<svg width="828" height="564" viewBox="0 0 828 564" fill="none" xmlns="http://www.w3.org/2000/svg">
<rect width="828" height="564" fill="white"/>
<path d="M357.5 153V459H520M520 459L505.5 444.5M520 459L505.5 475.5" stroke="black"/>
<rect x="240.5" y="48.5" width="244" height="106" rx="49.5" fill="white" stroke="black"/>
<rect x="240.5" y="226.5" width="244" height="106" rx="49.5" fill="white" stroke="black"/>
<rect x="240.5" y="403.5" width="244" height="106" rx="49.5" fill="white" stroke="black"/>
<rect x="520.5" y="403.5" width="244" height="106" rx="49.5" fill="white" stroke="black"/>
<path d="M323.976 91.352H313.944V104.528H315.6V92.96H322.32V104.528H323.976V91.352ZM323.568 111.968C324.336 111.968 324.912 111.776 325.296 111.392C325.704 110.96 325.992 109.712 326.136 107.672L324.624 107.168C324.528 108.752 324.384 109.688 324.168 110.024C323.976 110.288 323.688 110.432 323.28 110.432H321.72C321.168 110.432 320.904 110.144 320.904 109.592V104.6H319.272V109.952C319.272 111.296 319.92 111.968 321.24 111.968H323.568ZM318.12 94.712V99.392C318.048 102.392 317.52 104.816 316.56 106.688C315.48 108.488 313.608 109.928 310.944 111.032L311.88 112.496C314.616 111.392 316.584 109.856 317.784 107.888C319.032 105.776 319.68 102.944 319.752 99.392V94.712H318.12ZM305.592 95.96L304.416 97.088C306 99.032 307.44 100.928 308.712 102.776C307.608 105.656 306.024 108.128 303.96 110.192L305.064 111.464C307.08 109.472 308.664 107.144 309.816 104.456C310.632 105.728 311.4 107 312.072 108.296L313.296 107.072C312.456 105.584 311.544 104.072 310.536 102.56C311.448 99.896 311.976 96.92 312.12 93.608V92.288H304.584V93.968H310.512C310.344 96.44 309.96 98.744 309.36 100.856C308.208 99.224 306.936 97.592 305.592 95.96ZM338.352 90.464C335.616 93.968 332.208 96.872 328.104 99.224L328.992 100.832C333.12 98.36 336.456 95.432 339 92.024C341.712 95.624 345 98.552 348.84 100.784L349.752 99.176C345.936 97.064 342.576 94.16 339.648 90.464H338.352ZM333.768 98.888C333.768 101.576 333.456 103.76 332.88 105.488C332.112 107.552 330.576 109.256 328.224 110.624L329.304 111.944C332.04 110.36 333.768 108.32 334.536 105.848L334.752 105.104C335.928 106.4 336.912 107.624 337.68 108.824L338.904 107.6C337.848 106.208 336.576 104.816 335.088 103.424C335.304 102.08 335.424 100.568 335.424 98.888H333.768ZM342.192 98.672C342.168 101.432 341.904 103.712 341.4 105.488C340.728 107.6 339.336 109.376 337.272 110.792L338.328 112.088C340.8 110.456 342.384 108.368 343.056 105.824L343.152 105.44C344.424 108.032 346.296 110.216 348.792 111.992L349.92 110.672C346.92 108.704 344.832 106.04 343.632 102.68C343.776 101.456 343.848 100.112 343.848 98.672H342.192ZM358.464 98.048H370.8V96.464H358.464V94.472H356.808V102.584H367.92C367.92 103.592 367.896 104.528 367.872 105.344H352.728V107.024H367.752C367.608 108.176 367.44 108.944 367.2 109.328C366.744 110.096 365.904 110.504 364.704 110.504C363.648 110.504 362.568 110.48 361.464 110.432L361.872 111.992C362.976 112.04 364.008 112.064 364.968 112.064C366.792 112.016 368.016 111.44 368.64 110.384C368.952 109.832 369.192 108.704 369.36 107.024H373.296V105.344H369.504C369.576 104.096 369.624 102.632 369.648 100.952H358.464V98.048ZM372.648 91.448H353.304V96.368H354.984V93.104H370.968V96.248H372.648V91.448ZM394.488 112.304C396.168 112.304 397.032 111.488 397.032 109.904V91.4H383.856V93.032H395.328V109.4C395.328 110.264 394.92 110.696 394.128 110.696L391.296 110.648L391.728 112.304H394.488ZM384.408 95.864V97.52H393.672V95.864H384.408ZM385.272 100.136V107.576H392.712V100.136H385.272ZM391.08 106.064H386.952V101.648H391.08V106.064ZM378.888 90.632L377.688 91.808C379.416 93.104 380.808 94.352 381.816 95.528L382.992 94.328C381.888 93.08 380.52 91.856 378.888 90.632ZM376.056 97.736V99.392H379.536V108.944C379.536 109.328 379.344 109.664 379.008 109.976L379.68 111.512C381.168 110.456 382.584 109.232 383.904 107.864L383.448 106.016C382.632 106.856 381.888 107.6 381.192 108.248V97.736H376.056ZM408.192 91.376V92.96H412.896L412.32 95.624H408.768V97.184H411.984L411.312 100.352H407.568V101.96H422.064V100.352H419.808V95.624H414.048L414.624 92.96H421.32V91.376H408.192ZM413.04 100.352L413.712 97.184H418.08V100.352H413.04ZM420.48 104.144H409.392V112.448H411.096V111.296H418.776V112.448H420.48V104.144ZM411.096 109.664V105.728H418.776V109.664H411.096ZM402.984 90.728L401.784 91.904C403.44 93.152 404.736 94.304 405.696 95.408L406.896 94.232C405.84 93.056 404.52 91.88 402.984 90.728ZM400.008 97.736V99.392H403.536V108.968C403.536 109.352 403.344 109.688 403.008 110L403.68 111.536C405.264 110.456 406.728 109.232 408.12 107.84L407.664 106.016C406.776 106.904 405.96 107.696 405.192 108.368V97.736H400.008Z" fill="black"/>
<path d="M69.872 92.864V110H71.816V92.864H69.872ZM80.9913 97.256C80.1753 97.256 79.4313 97.448 78.7593 97.832C78.0873 98.192 77.5353 98.72 77.1033 99.416V97.592H75.1833V110H77.1033V102.512C77.1753 101.384 77.5353 100.496 78.2073 99.824C78.8313 99.2 79.5753 98.888 80.4393 98.888C82.5993 98.888 83.7033 100.088 83.7033 102.512V110H85.6233V102.368C85.6233 98.96 84.0633 97.256 80.9913 97.256ZM94.5176 97.256C92.6456 97.256 91.2776 98.048 90.3896 99.632V97.592H88.5896V114.752H90.5096V107.744C91.4696 109.472 92.8376 110.336 94.6136 110.336C96.3896 110.336 97.7576 109.664 98.7656 108.368C99.6776 107.168 100.158 105.656 100.158 103.832C100.158 101.96 99.6776 100.448 98.7416 99.248C97.7096 97.904 96.2936 97.256 94.5176 97.256ZM94.2776 98.84C95.5976 98.84 96.6056 99.32 97.3016 100.328C97.8776 101.192 98.1896 102.368 98.1896 103.832C98.1896 105.32 97.8776 106.496 97.2536 107.36C96.5576 108.272 95.5496 108.752 94.2056 108.752C93.0536 108.752 92.1656 108.296 91.4936 107.432C90.7736 106.544 90.4376 105.392 90.4376 103.952V103.712C90.4376 102.32 90.7496 101.168 91.3736 100.304C92.0456 99.32 93.0296 98.84 94.2776 98.84ZM102.652 97.592V105.272C102.652 108.632 104.14 110.336 107.164 110.336C108.844 110.336 110.188 109.568 111.196 108.08V110H113.116V97.592H111.196V105.152C111.052 106.208 110.644 107.072 109.972 107.744C109.324 108.368 108.58 108.704 107.764 108.704C106.636 108.704 105.82 108.392 105.316 107.816C104.812 107.24 104.572 106.352 104.572 105.176V97.592H102.652ZM119.394 93.584L117.498 94.376V97.592H115.002V99.2H117.498V107.096C117.498 108.032 117.69 108.728 118.098 109.208C118.53 109.736 119.274 110 120.282 110H122.154V108.392H120.57C120.138 108.392 119.826 108.272 119.658 108.08C119.466 107.888 119.394 107.552 119.394 107.096V99.2H122.466V97.592H119.394V93.584ZM135.125 95.384C134.693 95.384 134.357 95.528 134.069 95.84C133.781 96.104 133.661 96.44 133.661 96.872C133.661 97.28 133.781 97.616 134.069 97.904C134.357 98.192 134.693 98.336 135.125 98.336C135.533 98.336 135.893 98.192 136.181 97.904C136.469 97.616 136.613 97.28 136.613 96.872C136.613 96.44 136.469 96.104 136.181 95.84C135.893 95.528 135.533 95.384 135.125 95.384ZM135.125 104.168C134.693 104.168 134.357 104.312 134.069 104.624C133.781 104.888 133.661 105.224 133.661 105.656C133.661 106.064 133.781 106.4 134.069 106.688C134.357 106.976 134.693 107.12 135.125 107.12C135.533 107.12 135.893 106.976 136.181 106.688C136.469 106.4 136.613 106.064 136.613 105.656C136.613 105.224 136.469 104.888 136.181 104.624C135.893 104.312 135.533 104.168 135.125 104.168Z" fill="black"/>
<path d="M69.728 270.864V288H71.696V280.992H76.712C80.648 280.992 82.64 279.288 82.64 275.904C82.64 272.544 80.672 270.864 76.736 270.864H69.728ZM71.696 272.568H76.616C77.984 272.568 78.992 272.832 79.664 273.408C80.336 273.912 80.672 274.752 80.672 275.904C80.672 277.056 80.336 277.896 79.688 278.448C79.016 279 78.008 279.288 76.616 279.288H71.696V272.568ZM90.3344 275.256C89.4704 275.256 88.7264 275.52 88.0784 276.048C87.5504 276.456 87.1184 277.032 86.7824 277.752V275.592H84.8864V288H86.7824V281.424C86.7824 280.272 87.0944 279.288 87.7664 278.472C88.4144 277.608 89.2304 277.2 90.1904 277.2C90.7904 277.2 91.4144 277.272 92.0384 277.464V275.544C91.5824 275.352 91.0064 275.256 90.3344 275.256ZM99.1961 275.256C97.3241 275.256 95.8601 275.88 94.7561 277.176C93.7001 278.4 93.1721 279.936 93.1721 281.808C93.1721 283.656 93.7001 285.192 94.7561 286.392C95.8601 287.688 97.3241 288.336 99.1961 288.336C101.044 288.336 102.532 287.688 103.66 286.392C104.692 285.192 105.22 283.656 105.22 281.808C105.22 279.936 104.692 278.4 103.636 277.176C102.532 275.88 101.044 275.256 99.1961 275.256ZM99.1961 276.864C100.492 276.864 101.524 277.368 102.292 278.376C102.94 279.288 103.276 280.416 103.276 281.808C103.276 283.152 102.94 284.304 102.292 285.216C101.524 286.224 100.492 286.728 99.1961 286.728C97.8761 286.728 96.8441 286.224 96.1241 285.216C95.4521 284.304 95.1401 283.176 95.1401 281.808C95.1401 280.416 95.4521 279.288 96.1241 278.376C96.8441 277.368 97.8761 276.864 99.1961 276.864ZM113.067 275.256C111.219 275.256 109.755 275.904 108.699 277.224C107.715 278.424 107.235 279.96 107.235 281.856C107.235 283.752 107.715 285.288 108.699 286.464C109.731 287.712 111.171 288.336 113.043 288.336C114.579 288.336 115.803 287.928 116.739 287.136C117.699 286.32 118.299 285.096 118.587 283.512H116.667C116.379 285.648 115.155 286.728 113.043 286.728C111.795 286.728 110.835 286.272 110.187 285.408C109.515 284.544 109.203 283.344 109.203 281.832C109.203 280.32 109.539 279.12 110.211 278.232C110.907 277.32 111.867 276.864 113.067 276.864C114.051 276.864 114.843 277.08 115.467 277.56C116.067 278.04 116.451 278.76 116.619 279.72H118.515C118.299 278.208 117.723 277.08 116.763 276.336C115.827 275.616 114.603 275.256 113.067 275.256ZM125.952 275.256C124.152 275.256 122.736 275.904 121.68 277.2C120.624 278.424 120.12 279.96 120.12 281.784C120.12 283.8 120.648 285.384 121.752 286.584C122.808 287.736 124.248 288.336 126.024 288.336C127.632 288.336 128.952 287.856 129.984 286.944C130.824 286.176 131.376 285.216 131.664 284.016H129.744C129.432 284.88 129.024 285.528 128.496 285.96C127.872 286.464 127.032 286.728 126.024 286.728C124.848 286.728 123.912 286.344 123.24 285.576C122.568 284.808 122.208 283.728 122.112 282.336H131.904C131.856 280.176 131.376 278.472 130.464 277.272C129.456 275.928 127.944 275.256 125.952 275.256ZM126 276.864C128.352 276.864 129.672 278.184 129.912 280.848H122.16C122.28 279.624 122.664 278.664 123.336 277.944C124.008 277.224 124.896 276.864 126 276.864ZM138.544 275.256C137.152 275.256 136 275.568 135.136 276.192C134.2 276.816 133.744 277.632 133.744 278.688C133.744 279.744 134.2 280.536 135.16 281.112C135.736 281.496 136.768 281.856 138.232 282.216C139.576 282.552 140.464 282.816 140.872 283.008C141.64 283.392 142.048 283.92 142.048 284.616C142.048 286.008 140.92 286.728 138.712 286.728C137.656 286.728 136.864 286.536 136.336 286.152C135.808 285.72 135.448 285.024 135.304 284.04H133.432C133.72 286.896 135.496 288.336 138.76 288.336C142.264 288.336 144.016 287.04 144.016 284.496C144.016 283.416 143.512 282.576 142.528 281.952C141.88 281.544 140.824 281.16 139.336 280.8C138.088 280.464 137.224 280.2 136.768 279.984C136.048 279.624 135.712 279.168 135.712 278.64C135.712 278.088 135.976 277.656 136.504 277.344C136.984 277.008 137.656 276.864 138.52 276.864C139.504 276.864 140.272 277.056 140.8 277.44C141.28 277.776 141.592 278.352 141.76 279.12H143.632C143.296 276.528 141.616 275.256 138.544 275.256ZM150.661 275.256C149.269 275.256 148.117 275.568 147.253 276.192C146.317 276.816 145.861 277.632 145.861 278.688C145.861 279.744 146.317 280.536 147.277 281.112C147.853 281.496 148.885 281.856 150.349 282.216C151.693 282.552 152.581 282.816 152.989 283.008C153.757 283.392 154.165 283.92 154.165 284.616C154.165 286.008 153.037 286.728 150.829 286.728C149.773 286.728 148.981 286.536 148.453 286.152C147.925 285.72 147.565 285.024 147.421 284.04H145.549C145.837 286.896 147.613 288.336 150.877 288.336C154.381 288.336 156.133 287.04 156.133 284.496C156.133 283.416 155.629 282.576 154.645 281.952C153.997 281.544 152.941 281.16 151.453 280.8C150.205 280.464 149.341 280.2 148.885 279.984C148.165 279.624 147.829 279.168 147.829 278.64C147.829 278.088 148.093 277.656 148.621 277.344C149.101 277.008 149.773 276.864 150.637 276.864C151.621 276.864 152.389 277.056 152.917 277.44C153.397 277.776 153.709 278.352 153.877 279.12H155.749C155.413 276.528 153.733 275.256 150.661 275.256ZM168.898 273.384C168.466 273.384 168.13 273.528 167.842 273.84C167.554 274.104 167.434 274.44 167.434 274.872C167.434 275.28 167.554 275.616 167.842 275.904C168.13 276.192 168.466 276.336 168.898 276.336C169.306 276.336 169.666 276.192 169.954 275.904C170.242 275.616 170.386 275.28 170.386 274.872C170.386 274.44 170.242 274.104 169.954 273.84C169.666 273.528 169.306 273.384 168.898 273.384ZM168.898 282.168C168.466 282.168 168.13 282.312 167.842 282.624C167.554 282.888 167.434 283.224 167.434 283.656C167.434 284.064 167.554 284.4 167.842 284.688C168.13 284.976 168.466 285.12 168.898 285.12C169.306 285.12 169.666 284.976 169.954 284.688C170.242 284.4 170.386 284.064 170.386 283.656C170.386 283.224 170.242 282.888 169.954 282.624C169.666 282.312 169.306 282.168 168.898 282.168Z" fill="black"/>
<path d="M77.216 447.528C74.624 447.528 72.608 448.392 71.12 450.12C69.704 451.752 69.008 453.864 69.008 456.456C69.008 459.024 69.704 461.136 71.12 462.768C72.608 464.472 74.624 465.336 77.192 465.336C79.76 465.336 81.8 464.472 83.288 462.768C84.68 461.136 85.4 459.048 85.4 456.456C85.4 453.84 84.68 451.728 83.288 450.096C81.8 448.368 79.76 447.528 77.216 447.528ZM77.216 449.28C79.184 449.28 80.72 449.928 81.824 451.248C82.88 452.544 83.432 454.272 83.432 456.456C83.432 458.616 82.88 460.32 81.824 461.616C80.72 462.912 79.16 463.584 77.192 463.584C75.224 463.584 73.664 462.912 72.56 461.568C71.504 460.272 70.976 458.568 70.976 456.456C70.976 454.32 71.504 452.616 72.56 451.32C73.688 449.952 75.248 449.28 77.216 449.28ZM87.8864 452.592V460.272C87.8864 463.632 89.3744 465.336 92.3984 465.336C94.0784 465.336 95.4224 464.568 96.4304 463.08V465H98.3504V452.592H96.4304V460.152C96.2864 461.208 95.8784 462.072 95.2064 462.744C94.5584 463.368 93.8144 463.704 92.9984 463.704C91.8704 463.704 91.0544 463.392 90.5504 462.816C90.0464 462.24 89.8064 461.352 89.8064 460.176V452.592H87.8864ZM104.628 448.584L102.732 449.376V452.592H100.236V454.2H102.732V462.096C102.732 463.032 102.924 463.728 103.332 464.208C103.764 464.736 104.508 465 105.516 465H107.388V463.392H105.804C105.372 463.392 105.06 463.272 104.892 463.08C104.7 462.888 104.628 462.552 104.628 462.096V454.2H107.7V452.592H104.628V448.584ZM115.775 452.256C113.903 452.256 112.535 453.048 111.647 454.632V452.592H109.847V469.752H111.767V462.744C112.727 464.472 114.095 465.336 115.871 465.336C117.647 465.336 119.015 464.664 120.023 463.368C120.935 462.168 121.415 460.656 121.415 458.832C121.415 456.96 120.935 455.448 119.999 454.248C118.967 452.904 117.551 452.256 115.775 452.256ZM115.535 453.84C116.855 453.84 117.863 454.32 118.559 455.328C119.135 456.192 119.447 457.368 119.447 458.832C119.447 460.32 119.135 461.496 118.511 462.36C117.815 463.272 116.807 463.752 115.463 463.752C114.311 463.752 113.423 463.296 112.751 462.432C112.031 461.544 111.695 460.392 111.695 458.952V458.712C111.695 457.32 112.007 456.168 112.631 455.304C113.303 454.32 114.287 453.84 115.535 453.84ZM123.91 452.592V460.272C123.91 463.632 125.398 465.336 128.422 465.336C130.102 465.336 131.446 464.568 132.454 463.08V465H134.374V452.592H132.454V460.152C132.31 461.208 131.902 462.072 131.23 462.744C130.582 463.368 129.838 463.704 129.022 463.704C127.894 463.704 127.078 463.392 126.574 462.816C126.07 462.24 125.83 461.352 125.83 460.176V452.592H123.91ZM140.652 448.584L138.756 449.376V452.592H136.26V454.2H138.756V462.096C138.756 463.032 138.948 463.728 139.356 464.208C139.788 464.736 140.532 465 141.54 465H143.412V463.392H141.828C141.396 463.392 141.084 463.272 140.916 463.08C140.724 462.888 140.652 462.552 140.652 462.096V454.2H143.724V452.592H140.652V448.584ZM156.383 450.384C155.951 450.384 155.615 450.528 155.327 450.84C155.039 451.104 154.919 451.44 154.919 451.872C154.919 452.28 155.039 452.616 155.327 452.904C155.615 453.192 155.951 453.336 156.383 453.336C156.791 453.336 157.151 453.192 157.439 452.904C157.727 452.616 157.871 452.28 157.871 451.872C157.871 451.44 157.727 451.104 157.439 450.84C157.151 450.528 156.791 450.384 156.383 450.384ZM156.383 459.168C155.951 459.168 155.615 459.312 155.327 459.624C155.039 459.888 154.919 460.224 154.919 460.656C154.919 461.064 155.039 461.4 155.327 461.688C155.615 461.976 155.951 462.12 156.383 462.12C156.791 462.12 157.151 461.976 157.439 461.688C157.727 461.4 157.871 461.064 157.871 460.656C157.871 460.224 157.727 459.888 157.439 459.624C157.151 459.312 156.791 459.168 156.383 459.168Z" fill="black"/>
<path d="M311.592 275.592V277.32H318.096V290.448H319.872V277.32H326.04V275.592H319.872V268.368H318.096V275.592H311.592ZM306.888 268.632L305.688 269.808C307.416 271.104 308.808 272.352 309.816 273.528L310.992 272.328C309.888 271.08 308.52 269.856 306.888 268.632ZM304.08 275.736V277.392H307.608V286.968C307.608 287.352 307.416 287.688 307.056 287.976L307.728 289.536C309.432 288.408 311.04 287.136 312.528 285.696L312.096 283.92C311.088 284.88 310.128 285.696 309.264 286.416V275.736H304.08ZM331.248 273.816V283.248H334.296V284.184C334.296 284.376 334.272 284.616 334.248 284.856H328.368V286.392H333.816C333.672 286.68 333.504 286.944 333.312 287.208C332.64 287.928 331.464 288.528 329.784 289.008L330.672 290.376C332.52 289.848 333.864 289.128 334.68 288.192C335.112 287.688 335.424 287.088 335.664 286.392H342.48V290.448H344.184V286.392H349.632V284.856H344.184V283.248H347.04V273.816H331.248ZM336.024 283.248H342.48V284.856H335.976C336 284.64 336.024 284.424 336.024 284.184V283.248ZM345.36 281.904H332.928V280.416H345.36V281.904ZM332.928 279.168V277.824H345.36V279.168H332.928ZM332.928 276.6V275.16H345.36V276.6H332.928ZM331.968 271.464H333.816C334.296 272.112 334.728 272.784 335.112 273.456L336.552 272.928C336.288 272.472 335.952 271.992 335.544 271.464H338.688V270H332.736C332.928 269.544 333.144 269.064 333.336 268.584L331.68 268.224C331.032 270.048 329.976 271.728 328.512 273.264L329.952 274.152C330.72 273.336 331.392 272.424 331.968 271.464ZM341.832 271.392H343.656C344.184 272.064 344.64 272.76 345.024 273.48L346.464 272.952C346.176 272.472 345.84 271.944 345.408 271.392H349.416V269.928H342.576L343.08 268.632L341.4 268.272C340.872 269.904 340.008 271.416 338.808 272.76L340.224 273.672C340.824 272.976 341.352 272.208 341.832 271.392ZM352.392 273.096V274.752H355.896C355.104 277.752 353.784 280.416 351.936 282.744L352.68 284.616C354.024 282.648 355.128 280.488 355.968 278.088V290.28H357.696V277.632C358.368 278.568 359.16 279.792 360.072 281.304L361.08 279.816C359.928 278.4 358.8 277.128 357.696 275.976V274.752H360.672V273.096H357.696V268.416H355.968V273.096H352.392ZM359.544 289.224L360.96 290.496C362.088 288.768 362.856 286.992 363.264 285.12C363.696 283.344 363.912 281.136 363.912 278.496V271.032H368.184V287.736C368.184 289.128 368.952 289.824 370.488 289.824H371.472C372.24 289.824 372.816 289.68 373.2 289.416C373.584 289.08 373.824 288.504 373.92 287.64C374.016 286.728 374.088 285.432 374.088 283.704L372.504 283.2C372.504 285.504 372.432 286.872 372.336 287.352C372.288 287.688 372.168 287.904 371.976 288.048C371.808 288.144 371.592 288.192 371.304 288.192H370.488C370.104 288.192 369.936 287.976 369.936 287.568V269.4H362.184V278.496C362.184 280.968 362.016 282.936 361.704 284.4C361.296 286.104 360.576 287.712 359.544 289.224ZM386.376 268.368C383.544 271.704 380.016 274.488 375.744 276.744L376.656 278.4C380.928 276 384.384 273.192 387 269.928C389.832 273.384 393.24 276.192 397.248 278.352L398.184 276.696C394.2 274.68 390.672 271.896 387.624 268.368H386.376ZM394.584 280.704H379.416V290.376H381.096V288.936H392.904V290.376H394.584V280.704ZM381.096 287.28V282.336H392.904V287.28H381.096ZM380.76 276V277.656H393.24V276H380.76ZM416.856 268.32L415.752 269.376C416.976 270.312 417.936 271.2 418.656 272.064H414.168C414.12 270.912 414.096 269.688 414.096 268.344H412.32C412.32 269.64 412.344 270.864 412.392 272.064H402.48V280.056C402.408 283.968 401.616 287.016 400.08 289.224L401.4 290.4C403.176 287.808 404.136 284.352 404.232 280.056V279.336H408.384C408.336 281.976 408.264 283.704 408.12 284.52C407.976 285.192 407.64 285.552 407.112 285.576C406.464 285.576 405.672 285.552 404.736 285.504L405.264 287.064C406.032 287.112 406.728 287.16 407.304 287.16C408.504 287.112 409.248 286.584 409.56 285.552C409.872 284.376 410.064 281.76 410.112 277.704H404.232V273.72H412.464C412.656 276.72 412.992 279.24 413.52 281.256C413.784 282.288 414.096 283.248 414.432 284.136C412.776 286.224 410.736 287.808 408.336 288.888L409.296 290.328C411.552 289.32 413.52 287.856 415.2 285.888C415.56 286.632 415.968 287.304 416.4 287.88C417.552 289.32 418.632 290.04 419.64 290.04C420.72 290.04 421.536 288.432 422.112 285.24L420.552 284.376C420.192 286.848 419.784 288.096 419.352 288.12C418.872 288.12 418.224 287.544 417.432 286.392C417.048 285.84 416.688 285.168 416.352 284.4C417.888 282.24 419.136 279.552 420.096 276.384L418.536 275.712C417.792 278.28 416.832 280.536 415.632 282.456C415.464 281.928 415.296 281.376 415.152 280.776C414.72 279.048 414.408 276.696 414.24 273.72H421.632V272.064H418.704L419.808 270.96C418.992 270.072 418.008 269.184 416.856 268.32Z" fill="black"/>
<path d="M582.216 58.528C579.624 58.528 577.608 59.392 576.12 61.12C574.704 62.752 574.008 64.864 574.008 67.456C574.008 70.024 574.704 72.136 576.12 73.768C577.608 75.472 579.624 76.336 582.192 76.336C584.76 76.336 586.8 75.472 588.288 73.768C589.68 72.136 590.4 70.048 590.4 67.456C590.4 64.84 589.68 62.728 588.288 61.096C586.8 59.368 584.76 58.528 582.216 58.528ZM582.216 60.28C584.184 60.28 585.72 60.928 586.824 62.248C587.88 63.544 588.432 65.272 588.432 67.456C588.432 69.616 587.88 71.32 586.824 72.616C585.72 73.912 584.16 74.584 582.192 74.584C580.224 74.584 578.664 73.912 577.56 72.568C576.504 71.272 575.976 69.568 575.976 67.456C575.976 65.32 576.504 63.616 577.56 62.32C578.688 60.952 580.248 60.28 582.216 60.28ZM598.694 63.256C597.878 63.256 597.134 63.448 596.462 63.832C595.79 64.192 595.238 64.72 594.806 65.416V63.592H592.886V76H594.806V68.512C594.878 67.384 595.238 66.496 595.91 65.824C596.534 65.2 597.278 64.888 598.142 64.888C600.302 64.888 601.406 66.088 601.406 68.512V76H603.326V68.368C603.326 64.96 601.766 63.256 598.694 63.256ZM606.677 58.528V76H608.573V58.528H606.677ZM613.525 58.912C613.117 58.912 612.781 59.032 612.493 59.32C612.205 59.56 612.085 59.896 612.085 60.328C612.085 60.736 612.205 61.072 612.493 61.36C612.781 61.624 613.117 61.768 613.525 61.768C613.933 61.768 614.269 61.624 614.557 61.36C614.845 61.072 614.989 60.736 614.989 60.328C614.989 59.896 614.845 59.56 614.557 59.32C614.269 59.032 613.933 58.912 613.525 58.912ZM612.565 63.592V76H614.485V63.592H612.565ZM623.89 63.256C623.074 63.256 622.33 63.448 621.658 63.832C620.986 64.192 620.434 64.72 620.002 65.416V63.592H618.082V76H620.002V68.512C620.074 67.384 620.434 66.496 621.106 65.824C621.73 65.2 622.474 64.888 623.338 64.888C625.498 64.888 626.602 66.088 626.602 68.512V76H628.522V68.368C628.522 64.96 626.962 63.256 623.89 63.256ZM636.6 63.256C634.8 63.256 633.384 63.904 632.328 65.2C631.272 66.424 630.768 67.96 630.768 69.784C630.768 71.8 631.296 73.384 632.4 74.584C633.456 75.736 634.896 76.336 636.672 76.336C638.28 76.336 639.6 75.856 640.632 74.944C641.472 74.176 642.024 73.216 642.312 72.016H640.392C640.08 72.88 639.672 73.528 639.144 73.96C638.52 74.464 637.68 74.728 636.672 74.728C635.496 74.728 634.56 74.344 633.888 73.576C633.216 72.808 632.856 71.728 632.76 70.336H642.552C642.504 68.176 642.024 66.472 641.112 65.272C640.104 63.928 638.592 63.256 636.6 63.256ZM636.648 64.864C639 64.864 640.32 66.184 640.56 68.848H632.808C632.928 67.624 633.312 66.664 633.984 65.944C634.656 65.224 635.544 64.864 636.648 64.864Z" fill="black"/>
<path d="M582.216 127.528C579.624 127.528 577.608 128.392 576.12 130.12C574.704 131.752 574.008 133.864 574.008 136.456C574.008 139.024 574.704 141.136 576.12 142.768C577.608 144.472 579.624 145.336 582.192 145.336C584.76 145.336 586.8 144.472 588.288 142.768C589.68 141.136 590.4 139.048 590.4 136.456C590.4 133.84 589.68 131.728 588.288 130.096C586.8 128.368 584.76 127.528 582.216 127.528ZM582.216 129.28C584.184 129.28 585.72 129.928 586.824 131.248C587.88 132.544 588.432 134.272 588.432 136.456C588.432 138.616 587.88 140.32 586.824 141.616C585.72 142.912 584.16 143.584 582.192 143.584C580.224 143.584 578.664 142.912 577.56 141.568C576.504 140.272 575.976 138.568 575.976 136.456C575.976 134.32 576.504 132.616 577.56 131.32C578.688 129.952 580.248 129.28 582.216 129.28ZM597.854 127.864C596.798 127.864 595.982 128.152 595.43 128.752C594.902 129.328 594.638 130.12 594.638 131.176V132.592H591.518V134.2H594.638V145H596.558V134.2H602.15V145H604.046V134.2H607.574V132.592H604.046V131.224C604.046 130.624 604.166 130.192 604.43 129.928C604.67 129.64 605.054 129.52 605.582 129.52H609.71V145H611.63V127.864H605.366C604.286 127.864 603.47 128.152 602.942 128.776C602.414 129.352 602.15 130.144 602.15 131.176V132.592H596.558V131.224C596.558 130.624 596.678 130.192 596.918 129.928C597.158 129.64 597.566 129.52 598.094 129.52H600.23V127.864H597.854ZM616.572 127.912C616.164 127.912 615.828 128.032 615.54 128.32C615.252 128.56 615.132 128.896 615.132 129.328C615.132 129.736 615.252 130.072 615.54 130.36C615.828 130.624 616.164 130.768 616.572 130.768C616.98 130.768 617.316 130.624 617.604 130.36C617.892 130.072 618.036 129.736 618.036 129.328C618.036 128.896 617.892 128.56 617.604 128.32C617.316 128.032 616.98 127.912 616.572 127.912ZM615.612 132.592V145H617.532V132.592H615.612ZM626.937 132.256C626.121 132.256 625.377 132.448 624.705 132.832C624.033 133.192 623.481 133.72 623.049 134.416V132.592H621.129V145H623.049V137.512C623.121 136.384 623.481 135.496 624.153 134.824C624.777 134.2 625.521 133.888 626.385 133.888C628.545 133.888 629.649 135.088 629.649 137.512V145H631.569V137.368C631.569 133.96 630.009 132.256 626.937 132.256ZM639.647 132.256C637.847 132.256 636.431 132.904 635.375 134.2C634.319 135.424 633.815 136.96 633.815 138.784C633.815 140.8 634.343 142.384 635.447 143.584C636.503 144.736 637.943 145.336 639.719 145.336C641.327 145.336 642.647 144.856 643.679 143.944C644.519 143.176 645.071 142.216 645.359 141.016H643.439C643.127 141.88 642.719 142.528 642.191 142.96C641.567 143.464 640.727 143.728 639.719 143.728C638.543 143.728 637.607 143.344 636.935 142.576C636.263 141.808 635.903 140.728 635.807 139.336H645.599C645.551 137.176 645.071 135.472 644.159 134.272C643.151 132.928 641.639 132.256 639.647 132.256ZM639.695 133.864C642.047 133.864 643.367 135.184 643.607 137.848H635.855C635.975 136.624 636.359 135.664 637.031 134.944C637.703 134.224 638.591 133.864 639.695 133.864Z" fill="black"/>
<path d="M296.784 451.536H302.544V457.08H295.488V458.76H302.544V464.856H292.584V466.584H313.728V464.856H304.296V458.76H311.712V457.08H304.296V451.536H312.192V449.856H304.296V445.584H302.544V449.856H297.408C297.768 448.776 298.08 447.624 298.344 446.376L296.592 446.064C295.8 450.072 294.264 453.264 292.008 455.616L293.112 457.032C294.6 455.544 295.824 453.72 296.784 451.536ZM332.856 445.32L331.752 446.376C332.976 447.312 333.936 448.2 334.656 449.064H330.168C330.12 447.912 330.096 446.688 330.096 445.344H328.32C328.32 446.64 328.344 447.864 328.392 449.064H318.48V457.056C318.408 460.968 317.616 464.016 316.08 466.224L317.4 467.4C319.176 464.808 320.136 461.352 320.232 457.056V456.336H324.384C324.336 458.976 324.264 460.704 324.12 461.52C323.976 462.192 323.64 462.552 323.112 462.576C322.464 462.576 321.672 462.552 320.736 462.504L321.264 464.064C322.032 464.112 322.728 464.16 323.304 464.16C324.504 464.112 325.248 463.584 325.56 462.552C325.872 461.376 326.064 458.76 326.112 454.704H320.232V450.72H328.464C328.656 453.72 328.992 456.24 329.52 458.256C329.784 459.288 330.096 460.248 330.432 461.136C328.776 463.224 326.736 464.808 324.336 465.888L325.296 467.328C327.552 466.32 329.52 464.856 331.2 462.888C331.56 463.632 331.968 464.304 332.4 464.88C333.552 466.32 334.632 467.04 335.64 467.04C336.72 467.04 337.536 465.432 338.112 462.24L336.552 461.376C336.192 463.848 335.784 465.096 335.352 465.12C334.872 465.12 334.224 464.544 333.432 463.392C333.048 462.84 332.688 462.168 332.352 461.4C333.888 459.24 335.136 456.552 336.096 453.384L334.536 452.712C333.792 455.28 332.832 457.536 331.632 459.456C331.464 458.928 331.296 458.376 331.152 457.776C330.72 456.048 330.408 453.696 330.24 450.72H337.632V449.064H334.704L335.808 447.96C334.992 447.072 334.008 446.184 332.856 445.32ZM342 459.528V461.136H350.136V464.976H340.464V466.584H361.536V464.976H351.864V461.136H360.024V459.528H351.864V456.696H350.136V459.528H342ZM341.712 446.688V448.32H344.184C345.528 450.336 347.304 452.04 349.488 453.48C346.872 454.56 343.656 455.448 339.816 456.144L340.728 457.8C344.856 456.936 348.336 455.832 351.192 454.488C353.928 456 357.264 457.104 361.2 457.8L362.064 456.072C358.56 455.568 355.536 454.728 352.968 453.576C355.584 452.064 357.504 450.288 358.728 448.224V446.688H341.712ZM345.96 448.32H356.64C355.488 449.976 353.688 451.44 351.216 452.688C349.104 451.488 347.352 450.048 345.96 448.32ZM377.712 451.872V463.056H385.824V461.472H382.584V455.208H385.632V453.648H382.584V448.416C383.784 448.104 384.888 447.672 385.848 447.144L385.056 445.776C382.896 446.904 380.184 447.48 376.92 447.48L377.424 448.968C378.72 448.968 379.92 448.872 381.048 448.704V461.472H379.224V451.872H377.712ZM382.656 465.528C379.536 465.504 377.256 465.048 375.816 464.136C375.36 463.824 374.928 463.392 374.52 462.864C375.528 460.656 376.056 457.968 376.152 454.824V453.816H373.152C374.064 452.184 375 450.24 375.984 448.032V446.664H370.632V448.248H374.208C373.296 450.312 372.264 452.232 371.16 454.056V455.328H374.64C374.52 457.536 374.136 459.504 373.512 461.208C372.936 460.056 372.432 458.64 372 456.936L370.68 457.416C371.256 459.624 371.952 461.448 372.768 462.84C372.072 464.088 371.184 465.144 370.104 466.032L371.136 467.376C372.168 466.512 373.056 465.456 373.776 464.256C374.136 464.688 374.544 465.048 374.976 465.336C376.704 466.488 379.512 467.088 383.4 467.088H385.776L386.088 465.432C384.888 465.48 383.76 465.528 382.656 465.528ZM366.648 445.728L365.448 446.856C366.888 448.104 368.016 449.28 368.832 450.384L370.008 449.208C369.096 448.056 367.968 446.88 366.648 445.728ZM363.96 452.76V454.392H367.008V463.704C367.008 464.112 366.816 464.472 366.48 464.784L367.128 466.296C368.496 465.264 369.792 464.112 371.016 462.816L370.584 461.112C369.912 461.808 369.264 462.456 368.64 463.032V452.76H363.96ZM398.496 446.4V447.984H403.392C403.32 448.872 403.2 449.736 403.056 450.552H399.408V461.784H401.064V452.136H407.352V461.784H409.032V450.552H404.688C404.856 449.736 404.976 448.872 405.072 447.984H409.848V446.4H398.496ZM403.368 453.432V457.512C403.32 459.672 402.912 461.424 402.144 462.792C401.328 464.088 399.888 465.12 397.824 465.912L398.736 467.352C400.92 466.512 402.504 465.36 403.464 463.896C404.472 462.288 405 460.152 405.048 457.512V453.432H403.368ZM405.888 461.952L404.76 463.008C406.536 464.592 407.904 466.08 408.912 467.472L410.136 466.272C408.984 464.832 407.568 463.392 405.888 461.952ZM390.984 446.208C390.312 449.856 389.28 452.784 387.912 454.944L389.16 456.024C390.504 453.912 391.608 450.816 392.448 446.784L390.984 446.208ZM395.592 457.68L394.152 458.16C394.656 459.36 395.16 460.656 395.64 462.096C394.176 462.624 392.616 463.008 390.96 463.296C392.088 460.92 393.216 457.728 394.344 453.72L392.832 453.192C391.176 459.216 389.808 462.696 388.728 463.608L389.04 465.168C391.632 464.808 393.984 464.256 396.096 463.536C396.264 464.064 396.432 464.616 396.6 465.24L398.04 464.592C397.368 462.144 396.552 459.84 395.592 457.68ZM394.896 445.464L393.48 445.92C394.632 448.56 395.712 451.608 396.672 455.04L398.112 454.416C397.2 451.248 396.12 448.248 394.896 445.464ZM413.256 459.192V463.896H418.992V459.192H413.256ZM417.576 462.744H414.672V460.344H417.576V462.744ZM425.136 445.44C424.752 449.328 423.888 452.376 422.52 454.584L423.888 455.544C424.752 454.248 425.448 452.544 425.976 450.432H431.4C431.088 452.424 430.68 454.2 430.176 455.784L431.784 456.24C432.312 454.152 432.72 452.04 433.056 449.88V448.752H426.336C426.528 447.816 426.672 446.808 426.792 445.704L425.136 445.44ZM420.504 447.96V455.952H412.344V457.512H420.552V464.976C420.552 465.576 420.216 465.888 419.568 465.888C418.92 465.888 418.224 465.84 417.48 465.792L417.84 467.328H420.144C421.464 467.328 422.136 466.656 422.136 465.36V457.512H423.768V455.952H422.112V447.96H423.264V446.376H412.728V447.96H420.504ZM413.232 449.664V454.176H418.944V449.664H413.232ZM417.504 453.072H414.672V450.792H417.504V453.072ZM427.104 452.736C427.08 455.808 426.816 458.304 426.336 460.272C425.664 462.624 424.296 464.568 422.256 466.128L423.312 467.424C425.736 465.648 427.296 463.344 427.968 460.56L428.04 460.224C429.168 463.056 430.776 465.432 432.864 467.376L434.016 466.032C431.424 463.824 429.6 460.872 428.52 457.176C428.664 455.832 428.736 454.368 428.736 452.736H427.104Z" fill="black"/>
<path d="M554.488 467.304C556.168 467.304 557.032 466.488 557.032 464.904V446.4H543.856V448.032H555.328V464.4C555.328 465.264 554.92 465.696 554.128 465.696L551.296 465.648L551.728 467.304H554.488ZM544.408 450.864V452.52H553.672V450.864H544.408ZM545.272 455.136V462.576H552.712V455.136H545.272ZM551.08 461.064H546.952V456.648H551.08V461.064ZM538.888 445.632L537.688 446.808C539.416 448.104 540.808 449.352 541.816 450.528L542.992 449.328C541.888 448.08 540.52 446.856 538.888 445.632ZM536.056 452.736V454.392H539.536V463.944C539.536 464.328 539.344 464.664 539.008 464.976L539.68 466.512C541.168 465.456 542.584 464.232 543.904 462.864L543.448 461.016C542.632 461.856 541.888 462.6 541.192 463.248V452.736H536.056ZM568.192 446.376V447.96H572.896L572.32 450.624H568.768V452.184H571.984L571.312 455.352H567.568V456.96H582.064V455.352H579.808V450.624H574.048L574.624 447.96H581.32V446.376H568.192ZM573.04 455.352L573.712 452.184H578.08V455.352H573.04ZM580.48 459.144H569.392V467.448H571.096V466.296H578.776V467.448H580.48V459.144ZM571.096 464.664V460.728H578.776V464.664H571.096ZM562.984 445.728L561.784 446.904C563.44 448.152 564.736 449.304 565.696 450.408L566.896 449.232C565.84 448.056 564.52 446.88 562.984 445.728ZM560.008 452.736V454.392H563.536V463.968C563.536 464.352 563.344 464.688 563.008 465L563.68 466.536C565.264 465.456 566.728 464.232 568.12 462.84L567.664 461.016C566.776 461.904 565.96 462.696 565.192 463.368V452.736H560.008ZM586.888 467.136C588.28 467.136 589 466.416 589 464.976V457.896C589.888 457.464 590.752 456.984 591.616 456.504V454.728C590.752 455.256 589.888 455.736 589 456.168V451.464H591.736V449.808H589V445.416H587.272V449.808H584.344V451.464H587.272V456.936C586.168 457.392 585.016 457.776 583.864 458.088L584.296 459.816C585.304 459.48 586.312 459.096 587.272 458.688V464.544C587.272 465.216 586.936 465.552 586.288 465.552C585.712 465.552 585.088 465.504 584.464 465.456L584.824 467.136H586.888ZM592.528 455.664V457.344H593.968C594.592 459.432 595.84 461.304 597.688 462.984C595.936 464.232 593.8 465.24 591.256 466.032L592.192 467.496C594.904 466.656 597.208 465.528 599.08 464.136C600.736 465.384 602.8 466.488 605.272 467.448L606.208 465.96C603.88 465.144 601.912 464.184 600.304 463.08C602.032 461.472 603.256 459.528 604 457.272V455.664H592.528ZM595.552 457.344H602.296C601.552 459.12 600.424 460.68 598.912 462.024C597.28 460.632 596.176 459.072 595.552 457.344ZM594.376 446.352V449.544C594.376 451.176 593.44 452.424 591.616 453.312L592.768 454.632C594.976 453.384 596.08 451.632 596.08 449.376V447.984H600.736V451.896C600.736 453.288 601.48 454.008 603.016 454.008H605.464V452.4H603.448C602.776 452.4 602.44 452.088 602.44 451.512V446.352H594.376ZM609.448 446.208V452.688H613.456L613.816 454.176H608.128V455.544H620.944V454.176H615.424L615.088 452.688H619.768V446.208H609.448ZM618.184 451.512H611.008V450.048H618.184V451.512ZM611.008 448.944V447.408H618.184V448.944H611.008ZM609.664 456.912V461.544H613.792V465.12C613.792 465.552 613.576 465.768 613.168 465.768C612.688 465.768 612.16 465.72 611.632 465.672L611.968 467.184H613.696C614.848 467.184 615.448 466.608 615.448 465.48V461.544H619.6V456.912H609.664ZM618.016 460.32H611.248V458.136H618.016V460.32ZM610.24 462.336C609.592 463.824 608.824 465.096 607.96 466.152L609.184 467.04C610.096 465.888 610.864 464.52 611.536 462.984L610.24 462.336ZM618.136 462.384L616.936 463.128C617.8 464.376 618.472 465.528 618.976 466.56L620.2 465.696C619.72 464.736 619.024 463.632 618.136 462.384ZM627.808 445.632C626.032 447.456 623.776 448.944 621.04 450.048L621.76 451.536C624.592 450.288 626.968 448.704 628.864 446.832L627.808 445.632ZM628.408 451.944C626.608 454.104 624.328 455.832 621.544 457.128L622.264 458.616C625.144 457.176 627.544 455.352 629.464 453.144L628.408 451.944ZM628.744 458.016C626.896 461.616 624.136 464.208 620.488 465.792L621.184 467.352C625.12 465.672 628.072 462.888 630.088 459.024L628.744 458.016ZM639.616 456.576V458.256H645.112V464.88H638.632V466.584H653.68V464.88H646.864V458.256H652.6V456.576H646.864V452.112H645.112V456.576H639.616ZM635.752 457.632V467.472H637.456V455.664C638.752 454.032 639.88 452.256 640.816 450.36H653.656V448.656H641.584C642.016 447.624 642.376 446.544 642.712 445.44L640.912 445.224C640.576 446.4 640.144 447.552 639.664 448.656H632.68V450.36H638.848C637.168 453.552 634.84 456.384 631.84 458.856L632.92 460.272C633.928 459.432 634.864 458.544 635.752 457.632ZM658 459.528V461.136H666.136V464.976H656.464V466.584H677.536V464.976H667.864V461.136H676.024V459.528H667.864V456.696H666.136V459.528H658ZM657.712 446.688V448.32H660.184C661.528 450.336 663.304 452.04 665.488 453.48C662.872 454.56 659.656 455.448 655.816 456.144L656.728 457.8C660.856 456.936 664.336 455.832 667.192 454.488C669.928 456 673.264 457.104 677.2 457.8L678.064 456.072C674.56 455.568 671.536 454.728 668.968 453.576C671.584 452.064 673.504 450.288 674.728 448.224V446.688H657.712ZM661.96 448.32H672.64C671.488 449.976 669.688 451.44 667.216 452.688C665.104 451.488 663.352 450.048 661.96 448.32ZM693.712 451.872V463.056H701.824V461.472H698.584V455.208H701.632V453.648H698.584V448.416C699.784 448.104 700.888 447.672 701.848 447.144L701.056 445.776C698.896 446.904 696.184 447.48 692.92 447.48L693.424 448.968C694.72 448.968 695.92 448.872 697.048 448.704V461.472H695.224V451.872H693.712ZM698.656 465.528C695.536 465.504 693.256 465.048 691.816 464.136C691.36 463.824 690.928 463.392 690.52 462.864C691.528 460.656 692.056 457.968 692.152 454.824V453.816H689.152C690.064 452.184 691 450.24 691.984 448.032V446.664H686.632V448.248H690.208C689.296 450.312 688.264 452.232 687.16 454.056V455.328H690.64C690.52 457.536 690.136 459.504 689.512 461.208C688.936 460.056 688.432 458.64 688 456.936L686.68 457.416C687.256 459.624 687.952 461.448 688.768 462.84C688.072 464.088 687.184 465.144 686.104 466.032L687.136 467.376C688.168 466.512 689.056 465.456 689.776 464.256C690.136 464.688 690.544 465.048 690.976 465.336C692.704 466.488 695.512 467.088 699.4 467.088H701.776L702.088 465.432C700.888 465.48 699.76 465.528 698.656 465.528ZM682.648 445.728L681.448 446.856C682.888 448.104 684.016 449.28 684.832 450.384L686.008 449.208C685.096 448.056 683.968 446.88 682.648 445.728ZM679.96 452.76V454.392H683.008V463.704C683.008 464.112 682.816 464.472 682.48 464.784L683.128 466.296C684.496 465.264 685.792 464.112 687.016 462.816L686.584 461.112C685.912 461.808 685.264 462.456 684.64 463.032V452.76H679.96ZM704.44 449.856V451.464H707.272C706.576 454.56 705.424 457.32 703.792 459.768L704.536 461.688C705.688 459.72 706.6 457.512 707.32 455.112V467.352H709V454.704C709.624 455.808 710.344 457.248 711.208 459.024L712.144 457.632C711.088 455.904 710.032 454.368 709 453.024V451.464H711.304V449.856H709V445.344H707.32V449.856H704.44ZM718.264 449.88V451.536H722.584V464.472C722.584 465.36 722.224 465.816 721.528 465.816C720.808 465.816 720.04 465.768 719.248 465.696L719.584 467.328H722.104C723.52 467.328 724.24 466.512 724.24 464.904V451.536H726.016V449.88H724.24V445.344H722.584V449.88H718.264ZM719.248 454.584L717.88 455.184C718.696 456.552 719.464 458.112 720.136 459.888L721.552 459.168C720.88 457.488 720.112 455.976 719.248 454.584ZM712.312 451.92L711.232 452.976C712.36 454.68 713.392 456.36 714.328 457.992C713.416 460.632 712.072 462.936 710.32 464.904L711.28 466.368C712.96 464.424 714.304 462.216 715.312 459.768C716.2 461.4 716.992 462.984 717.664 464.544L718.936 463.272C718.072 461.448 717.088 459.624 716.008 457.776C716.824 455.136 717.28 452.232 717.376 449.064V447.816H711.904V449.472H715.864C715.744 451.776 715.432 453.936 714.928 455.952C714.112 454.608 713.224 453.264 712.312 451.92ZM736.984 445.392V464.76H728.344V466.44H749.704V464.76H738.76V454.488H747.664V452.808H738.76V445.392H736.984Z" fill="black"/>
<path d="M485 103H520M520 103V73.5H557.5M520 103V140H557.5" stroke="black"/>
</svg>
