<svg width="891" height="695" viewBox="0 0 891 695" fill="none" xmlns="http://www.w3.org/2000/svg">
<rect width="891" height="695" fill="white"/>
<path d="M278.5 143H688V564" stroke="black" stroke-width="3"/>
<rect x="120" y="116" width="156" height="58" rx="28" fill="#EB5757"/>
<rect x="612" y="567" width="156" height="58" rx="28" fill="#EB5757"/>
<path d="M749.894 239H648.628C642.711 239 635.895 243.5 632 247C628.105 250.5 618.684 263.111 619.008 268.111C619.333 273.111 626.664 283.18 630.234 286.18C633.804 289.18 643.684 297 648.628 297H749.894C779.901 297 778.832 239 749.894 239Z" fill="#F0F5FB"/>
<path d="M742.894 350H641.628C635.711 350 628.895 354.5 625 358C621.105 361.5 611.684 374.111 612.008 379.111C612.333 384.111 619.664 394.18 623.234 397.18C626.804 400.18 636.684 408 641.628 408H742.894C772.901 408 771.832 350 742.894 350Z" fill="#F0F5FB"/>
<path d="M742.894 461H641.628C635.711 461 628.895 465.5 625 469C621.105 472.5 611.684 485.111 612.008 490.111C612.333 495.111 619.664 505.18 623.234 508.18C626.804 511.18 636.684 519 641.628 519H742.894C772.901 519 771.832 461 742.894 461Z" fill="#F0F5FB"/>
<rect x="360" y="108" width="161" height="66" fill="#F2C94C"/>
<path d="M187.344 140.916V141.756H189.528V144.516C189.528 144.636 189.516 144.78 189.516 144.936H186.696V145.764H189.468C189.372 146.724 189.204 147.54 188.952 148.236C188.568 149.148 187.884 149.88 186.912 150.432L187.38 151.176C188.436 150.624 189.192 149.844 189.648 148.836C190.008 148.02 190.236 147 190.344 145.764H193.812V151.08H194.688V145.764H197.316V144.936H194.688V141.756H196.692V140.916H187.344ZM190.416 141.756H193.812V144.936H190.404C190.404 144.804 190.416 144.66 190.416 144.516V141.756ZM199.968 140.148C199.872 140.952 199.764 141.732 199.644 142.488H198.54V143.316H199.5C199.284 144.528 199.032 145.656 198.744 146.7C199.296 147.228 199.812 147.732 200.292 148.224C199.836 149.136 199.26 149.904 198.552 150.552L199.092 151.236C199.812 150.564 200.4 149.772 200.88 148.86C201.348 149.364 201.744 149.844 202.08 150.288L202.656 149.616C202.296 149.136 201.828 148.608 201.264 148.02C201.84 146.604 202.176 144.936 202.272 142.992V142.488H200.496C200.604 141.792 200.712 141.036 200.82 140.22L199.968 140.148ZM200.652 147.396C200.34 147.084 200.016 146.772 199.668 146.448C199.908 145.62 200.136 144.576 200.364 143.316H201.456C201.372 144.84 201.108 146.196 200.652 147.396ZM208.608 146.1H203.28V151.212H204.108V150.492H207.78V151.212H208.608V146.1ZM204.108 149.676V146.892H207.78V149.676H204.108ZM202.812 145.02C204.768 144.9 206.544 144.72 208.14 144.492C208.284 144.792 208.416 145.104 208.56 145.428L209.364 145.044C208.788 143.784 208.164 142.632 207.504 141.576L206.76 141.936C207.108 142.488 207.444 143.1 207.78 143.76C206.568 143.952 205.284 144.096 203.94 144.18C204.66 143.256 205.368 142.02 206.088 140.46L205.272 140.184C204.24 142.536 203.376 143.88 202.68 144.24L202.812 145.02Z" fill="black"/>
<path d="M682.944 598.8C681.72 599.244 680.304 599.604 678.672 599.868L678.78 600.708C680.34 600.42 681.72 600.06 682.944 599.616V598.8ZM680.724 590.16C680.244 591.588 679.668 592.848 678.996 593.952C678.888 594.108 678.768 594.216 678.636 594.276L678.852 595.068C679.548 594.972 680.232 594.876 680.916 594.768C680.244 595.896 679.68 596.688 679.224 597.156C679.116 597.252 678.984 597.336 678.828 597.408L679.056 598.188C680.256 598.032 681.504 597.732 682.8 597.288V596.52C681.912 596.82 681.012 597.06 680.1 597.24C680.832 596.376 681.744 594.936 682.836 592.908L682.08 592.632C681.84 593.088 681.6 593.532 681.372 593.964C680.796 594.06 680.232 594.144 679.668 594.216C680.292 593.28 680.916 592.032 681.528 590.472L680.724 590.16ZM682.8 591.684V592.524H685.668V594.3H683.196V595.14H689.052V594.3H686.544V592.524H689.4V591.684H686.544V590.232H685.668V591.684H682.8ZM688.704 596.34H683.58V601.164H684.432V600.588H687.864V601.164H688.704V596.34ZM684.432 599.772V597.156H687.864V599.772H684.432ZM690.864 591.432V592.26H695.556V593.436H691.8V596.832H694.812C693.912 598.152 692.46 599.232 690.468 600.072L690.972 600.864C693.096 599.808 694.608 598.464 695.52 596.832H695.556V601.188H696.444V596.832H696.48C697.344 598.32 698.832 599.652 700.956 600.84L701.544 600.096C699.504 599.136 698.04 598.056 697.176 596.832H700.224V593.436H696.444V592.26H701.112V591.432H696.444V590.232H695.556V591.432H690.864ZM699.36 596.04H696.444V594.252H699.36V596.04ZM695.556 596.04H692.664V594.252H695.556V596.04Z" fill="black"/>
<path d="M629.944 269.068C630.64 269.068 631 268.708 631 267.988V264.448C631.444 264.232 631.876 263.992 632.308 263.752V262.864C631.876 263.128 631.444 263.368 631 263.584V261.232H632.368V260.404H631V258.208H630.136V260.404H628.672V261.232H630.136V263.968C629.584 264.196 629.008 264.388 628.432 264.544L628.648 265.408C629.152 265.24 629.656 265.048 630.136 264.844V267.772C630.136 268.108 629.968 268.276 629.644 268.276C629.356 268.276 629.044 268.252 628.732 268.228L628.912 269.068H629.944ZM632.764 263.332V264.172H633.484C633.796 265.216 634.42 266.152 635.344 266.992C634.468 267.616 633.4 268.12 632.128 268.516L632.596 269.248C633.952 268.828 635.104 268.264 636.04 267.568C636.868 268.192 637.9 268.744 639.136 269.224L639.604 268.48C638.44 268.072 637.456 267.592 636.652 267.04C637.516 266.236 638.128 265.264 638.5 264.136V263.332H632.764ZM634.276 264.172H637.648C637.276 265.06 636.712 265.84 635.956 266.512C635.14 265.816 634.588 265.036 634.276 264.172ZM633.688 258.676V260.272C633.688 261.088 633.22 261.712 632.308 262.156L632.884 262.816C633.988 262.192 634.54 261.316 634.54 260.188V259.492H636.868V261.448C636.868 262.144 637.24 262.504 638.008 262.504H639.232V261.7H638.224C637.888 261.7 637.72 261.544 637.72 261.256V258.676H633.688ZM641.224 258.604V261.844H643.228L643.408 262.588H640.564V263.272H646.972V262.588H644.212L644.044 261.844H646.384V258.604H641.224ZM645.592 261.256H642.004V260.524H645.592V261.256ZM642.004 259.972V259.204H645.592V259.972H642.004ZM641.332 263.956V266.272H643.396V268.06C643.396 268.276 643.288 268.384 643.084 268.384C642.844 268.384 642.58 268.36 642.316 268.336L642.484 269.092H643.348C643.924 269.092 644.224 268.804 644.224 268.24V266.272H646.3V263.956H641.332ZM645.508 265.66H642.124V264.568H645.508V265.66ZM641.62 266.668C641.296 267.412 640.912 268.048 640.48 268.576L641.092 269.02C641.548 268.444 641.932 267.76 642.268 266.992L641.62 266.668ZM645.568 266.692L644.968 267.064C645.4 267.688 645.736 268.264 645.988 268.78L646.6 268.348C646.36 267.868 646.012 267.316 645.568 266.692ZM650.404 258.316C649.516 259.228 648.388 259.972 647.02 260.524L647.38 261.268C648.796 260.644 649.984 259.852 650.932 258.916L650.404 258.316ZM650.704 261.472C649.804 262.552 648.664 263.416 647.272 264.064L647.632 264.808C649.072 264.088 650.272 263.176 651.232 262.072L650.704 261.472ZM650.872 264.508C649.948 266.308 648.568 267.604 646.744 268.396L647.092 269.176C649.06 268.336 650.536 266.944 651.544 265.012L650.872 264.508ZM657.556 258.148V260.308H653.26V265.948H654.124V265.192H657.556V269.284H658.444V265.192H661.888V265.948H662.752V260.308H658.444V258.148H657.556ZM654.124 264.352V261.148H657.556V264.352H654.124ZM658.444 264.352V261.148H661.888V264.352H658.444ZM664.648 260.548V261.376H666.112C665.776 262.876 665.212 264.208 664.432 265.384L664.804 266.308C665.344 265.396 665.788 264.376 666.136 263.26V269.164H666.976V263.044C667.252 263.536 667.576 264.16 667.936 264.928L668.284 264.412V264.568H669.076C668.956 265.54 668.812 266.512 668.644 267.472H673.684C673.66 267.64 673.648 267.76 673.624 267.808C673.516 268.084 673.348 268.264 673.132 268.348C672.916 268.408 672.664 268.444 672.388 268.444C672.076 268.444 671.728 268.42 671.344 268.396L671.596 269.188C671.932 269.188 672.232 269.176 672.496 269.176C673.072 269.176 673.516 269.092 673.804 268.924C674.104 268.732 674.308 268.444 674.428 268.06C674.452 267.964 674.476 267.772 674.512 267.472H675.4V266.728H674.56C674.584 266.176 674.62 265.456 674.656 264.568H675.544V263.764H674.692L674.776 260.932H669.46C669.664 260.632 669.856 260.308 670.048 259.948H675.232V259.144H670.432C670.552 258.88 670.66 258.592 670.768 258.292L669.916 258.112C669.46 259.384 668.872 260.416 668.152 261.232V260.548H666.976V258.196H666.136V260.548H664.648ZM669.892 264.568H673.84C673.804 265.456 673.768 266.176 673.744 266.728H669.592C669.712 266.068 669.808 265.348 669.892 264.568ZM673.864 263.764H669.964C670.012 263.116 670.048 262.42 670.084 261.7H673.936C673.912 262.444 673.888 263.14 673.864 263.764ZM669.148 263.764H668.284V264.04C667.828 263.344 667.396 262.696 666.976 262.12V261.376H668.152V261.328L668.668 261.94C668.884 261.7 669.088 261.448 669.304 261.16C669.28 262.024 669.22 262.888 669.148 263.764ZM671.416 261.94L670.888 262.444C671.488 262.876 671.956 263.284 672.304 263.668L672.844 263.128C672.46 262.732 671.98 262.336 671.416 261.94ZM671.284 264.724L670.756 265.24C671.332 265.696 671.788 266.14 672.124 266.548L672.664 266.008C672.292 265.576 671.836 265.156 671.284 264.724ZM685.684 269.02C686.2 269.02 686.584 268.9 686.824 268.684C687.088 268.42 687.28 267.664 687.376 266.44L686.548 266.188C686.488 267.172 686.38 267.772 686.212 267.976C686.068 268.144 685.84 268.24 685.528 268.24H683.752C683.416 268.24 683.26 268.036 683.26 267.64V265.468C684.724 264.652 685.996 263.704 687.076 262.6L686.476 261.988C685.636 262.9 684.568 263.74 683.26 264.508V261.484H682.384V264.988C681.736 265.312 681.052 265.624 680.308 265.924L680.788 266.644C681.328 266.428 681.856 266.188 682.384 265.936V267.82C682.384 268.612 682.756 269.02 683.512 269.02H685.684ZM678.58 264.604V269.236H679.468V263.464C679.828 262.912 680.14 262.336 680.404 261.736L679.624 261.376C678.988 262.876 677.98 264.208 676.588 265.384L676.84 266.248C677.476 265.732 678.052 265.18 678.58 264.604ZM676.828 259.288V260.104H679.42V261.16H680.272V260.104H683.74V261.16H684.592V260.104H687.184V259.288H684.592V258.172H683.74V259.288H680.272V258.172H679.42V259.288H676.828ZM698.2 258.076C697.672 258.844 697.264 259.672 696.964 260.548C696.604 261.58 696.436 262.624 696.436 263.692C696.436 264.736 696.604 265.78 696.964 266.812C697.264 267.676 697.672 268.504 698.2 269.284H699.04C698.56 268.48 698.176 267.652 697.9 266.8C697.54 265.744 697.372 264.7 697.372 263.68C697.372 262.648 697.54 261.616 697.9 260.56C698.176 259.696 698.56 258.868 699.04 258.076H698.2ZM701.716 258.676V262.804H705.568V263.764H701.5V264.532H705.568V265.54H700.804V266.32H711.196V265.54H706.432V264.532H710.5V263.764H706.432V262.804H710.296V258.676H701.716ZM709.468 262.072H706.396V259.42H709.468V262.072ZM705.604 262.072H702.544V259.42H705.604V262.072ZM701.968 266.812C701.656 267.664 701.308 268.372 700.9 268.924L701.692 269.2C702.112 268.576 702.46 267.856 702.724 267.016L701.968 266.812ZM704.728 266.932L703.96 267.1C704.2 267.7 704.392 268.408 704.56 269.2L705.4 269.008C705.196 268.264 704.968 267.568 704.728 266.932ZM707.236 266.884L706.468 267.052C706.804 267.664 707.08 268.372 707.32 269.176L708.148 268.984C707.884 268.24 707.584 267.532 707.236 266.884ZM709.648 266.74L709 267.148C709.6 267.904 710.08 268.588 710.44 269.2L711.124 268.72C710.788 268.156 710.296 267.496 709.648 266.74ZM703.996 259.804L703.3 260.032C703.612 260.572 703.876 261.136 704.092 261.712L704.8 261.52C704.56 260.872 704.296 260.308 703.996 259.804ZM707.92 259.744C707.692 260.428 707.428 260.992 707.116 261.448L707.812 261.7C708.148 261.196 708.424 260.608 708.64 259.936L707.92 259.744ZM722.188 260.104H717.64C717.904 259.54 718.096 258.928 718.228 258.28L717.28 258.148C717.148 258.82 716.944 259.48 716.68 260.104H713.824V269.2H714.7V268.228H721.312V269.176H722.188V260.104ZM714.7 267.388V264.46H721.312V267.388H714.7ZM714.7 263.644V260.932H721.312V263.644H714.7ZM724.96 258.076C725.44 258.868 725.812 259.696 726.1 260.56C726.448 261.616 726.628 262.648 726.628 263.68C726.628 264.7 726.448 265.744 726.1 266.8C725.812 267.652 725.44 268.48 724.96 269.284H725.8C726.316 268.504 726.724 267.676 727.036 266.812C727.384 265.78 727.564 264.736 727.564 263.692C727.564 262.624 727.384 261.58 727.036 260.548C726.724 259.672 726.316 258.844 725.8 258.076H724.96ZM737.344 258.916V259.756H739.528V262.516C739.528 262.636 739.516 262.78 739.516 262.936H736.696V263.764H739.468C739.372 264.724 739.204 265.54 738.952 266.236C738.568 267.148 737.884 267.88 736.912 268.432L737.38 269.176C738.436 268.624 739.192 267.844 739.648 266.836C740.008 266.02 740.236 265 740.344 263.764H743.812V269.08H744.688V263.764H747.316V262.936H744.688V259.756H746.692V258.916H737.344ZM740.416 259.756H743.812V262.936H740.404C740.404 262.804 740.416 262.66 740.416 262.516V259.756ZM754.492 262.708C754.876 263.944 755.344 265.036 755.908 265.996C755.212 266.968 754.3 267.76 753.148 268.384L753.64 269.164C754.768 268.516 755.68 267.712 756.4 266.752C757.144 267.808 758.044 268.636 759.088 269.236L759.58 268.504C758.548 267.928 757.648 267.1 756.892 266.02C757.756 264.592 758.224 262.864 758.296 260.848H759.184V260.02H755.644C755.8 259.492 755.932 258.916 756.04 258.304L755.188 258.16C754.852 260.188 754.216 261.808 753.28 263.008L753.808 263.644C754.048 263.356 754.276 263.044 754.492 262.708ZM755.38 260.848H757.468C757.408 262.528 757.048 263.992 756.376 265.228C755.812 264.256 755.344 263.116 754.984 261.796C755.128 261.496 755.26 261.184 755.38 260.848ZM748.66 260.008V260.836H749.908V261.94C749.884 264.988 749.392 267.208 748.408 268.588L749.08 269.176C749.968 267.904 750.496 265.984 750.664 263.416H752.176C752.164 265.792 752.116 267.22 752.032 267.676C751.948 268.072 751.684 268.276 751.252 268.276C750.988 268.276 750.688 268.264 750.352 268.24L750.544 268.984C750.94 269.008 751.216 269.032 751.372 269.032C752.224 269.032 752.704 268.684 752.824 268C752.932 267.328 752.992 265.54 752.992 262.624H750.7C750.7 262.408 750.712 262.18 750.712 261.94V260.836H753.628V260.008H751.828C751.636 259.432 751.36 258.796 751.024 258.1L750.184 258.34C750.472 258.88 750.736 259.432 750.952 260.008H748.66ZM763 260.692C762.784 260.692 762.604 260.764 762.472 260.908C762.328 261.04 762.268 261.22 762.268 261.436C762.268 261.652 762.328 261.82 762.472 261.964C762.604 262.096 762.784 262.168 763 262.168C763.216 262.168 763.384 262.096 763.528 261.964C763.672 261.82 763.744 261.652 763.744 261.436C763.744 261.22 763.672 261.04 763.528 260.908C763.384 260.764 763.216 260.692 763 260.692ZM763.012 265.12C762.772 265.12 762.58 265.18 762.436 265.324C762.292 265.456 762.232 265.636 762.232 265.864C762.232 266.068 762.304 266.248 762.448 266.392C762.58 266.524 762.748 266.596 762.952 266.596C763.072 266.596 763.168 266.584 763.216 266.56C763.216 266.848 763.132 267.112 762.952 267.352C762.76 267.604 762.508 267.784 762.196 267.88V268.48C762.7 268.336 763.12 268.072 763.432 267.688C763.744 267.292 763.9 266.824 763.9 266.296C763.9 265.936 763.816 265.66 763.66 265.456C763.492 265.228 763.276 265.12 763.012 265.12ZM682.66 275.832V276.684H687.244V286.224H688.12V279.408C689.2 279.984 690.544 280.8 692.14 281.856L692.656 281.088C691.12 280.104 689.608 279.24 688.12 278.496V276.684H693.328V275.832H682.66ZM699.424 286.068C700.24 286.068 700.66 285.636 700.66 284.796V275.376H699.772V284.568C699.772 285.012 699.544 285.24 699.1 285.24C698.56 285.24 697.984 285.216 697.384 285.168L697.588 286.068H699.424ZM696.556 278.16C696.076 280.32 695.368 282.036 694.408 283.308L695.152 283.968C696.088 282.72 696.844 280.896 697.42 278.496L696.556 278.16ZM703.372 277.872L702.592 278.364C703.516 280.44 704.248 282.324 704.788 284.028L705.556 283.488C705.052 281.892 704.32 280.02 703.372 277.872ZM707.92 281.484V282.24H715.132V283.236H708.256V283.98H715.132V285.048H707.92V285.816H715.132V286.26H715.972V281.484H707.92ZM707.572 275.592V276.312H711.58V277.164H706.984V279.852H707.824V277.86H711.58V280.836H712.42V277.86H716.176V279.852H717.016V277.164H712.42V276.312H716.416V275.592H707.572ZM708.46 278.664V279.264H710.932V278.664H708.46ZM708.46 279.984V280.584H710.932V279.984H708.46ZM713.068 278.664V279.264H715.564V278.664H713.068ZM713.068 279.984V280.584H715.6V279.984H713.068Z" fill="black"/>
<path d="M639.648 371.548V372.376H641.112C640.776 373.876 640.212 375.208 639.432 376.384L639.804 377.308C640.344 376.396 640.788 375.376 641.136 374.26V380.164H641.976V374.044C642.252 374.536 642.576 375.16 642.936 375.928L643.284 375.412V375.568H644.076C643.956 376.54 643.812 377.512 643.644 378.472H648.684C648.66 378.64 648.648 378.76 648.624 378.808C648.516 379.084 648.348 379.264 648.132 379.348C647.916 379.408 647.664 379.444 647.388 379.444C647.076 379.444 646.728 379.42 646.344 379.396L646.596 380.188C646.932 380.188 647.232 380.176 647.496 380.176C648.072 380.176 648.516 380.092 648.804 379.924C649.104 379.732 649.308 379.444 649.428 379.06C649.452 378.964 649.476 378.772 649.512 378.472H650.4V377.728H649.56C649.584 377.176 649.62 376.456 649.656 375.568H650.544V374.764H649.692L649.776 371.932H644.46C644.664 371.632 644.856 371.308 645.048 370.948H650.232V370.144H645.432C645.552 369.88 645.66 369.592 645.768 369.292L644.916 369.112C644.46 370.384 643.872 371.416 643.152 372.232V371.548H641.976V369.196H641.136V371.548H639.648ZM644.892 375.568H648.84C648.804 376.456 648.768 377.176 648.744 377.728H644.592C644.712 377.068 644.808 376.348 644.892 375.568ZM648.864 374.764H644.964C645.012 374.116 645.048 373.42 645.084 372.7H648.936C648.912 373.444 648.888 374.14 648.864 374.764ZM644.148 374.764H643.284V375.04C642.828 374.344 642.396 373.696 641.976 373.12V372.376H643.152V372.328L643.668 372.94C643.884 372.7 644.088 372.448 644.304 372.16C644.28 373.024 644.22 373.888 644.148 374.764ZM646.416 372.94L645.888 373.444C646.488 373.876 646.956 374.284 647.304 374.668L647.844 374.128C647.46 373.732 646.98 373.336 646.416 372.94ZM646.284 375.724L645.756 376.24C646.332 376.696 646.788 377.14 647.124 377.548L647.664 377.008C647.292 376.576 646.836 376.156 646.284 375.724ZM660.684 380.02C661.2 380.02 661.584 379.9 661.824 379.684C662.088 379.42 662.28 378.664 662.376 377.44L661.548 377.188C661.488 378.172 661.38 378.772 661.212 378.976C661.068 379.144 660.84 379.24 660.528 379.24H658.752C658.416 379.24 658.26 379.036 658.26 378.64V376.468C659.724 375.652 660.996 374.704 662.076 373.6L661.476 372.988C660.636 373.9 659.568 374.74 658.26 375.508V372.484H657.384V375.988C656.736 376.312 656.052 376.624 655.308 376.924L655.788 377.644C656.328 377.428 656.856 377.188 657.384 376.936V378.82C657.384 379.612 657.756 380.02 658.512 380.02H660.684ZM653.58 375.604V380.236H654.468V374.464C654.828 373.912 655.14 373.336 655.404 372.736L654.624 372.376C653.988 373.876 652.98 375.208 651.588 376.384L651.84 377.248C652.476 376.732 653.052 376.18 653.58 375.604ZM651.828 370.288V371.104H654.42V372.16H655.272V371.104H658.74V372.16H659.592V371.104H662.184V370.288H659.592V369.172H658.74V370.288H655.272V369.172H654.42V370.288H651.828ZM673.2 369.076C672.672 369.844 672.264 370.672 671.964 371.548C671.604 372.58 671.436 373.624 671.436 374.692C671.436 375.736 671.604 376.78 671.964 377.812C672.264 378.676 672.672 379.504 673.2 380.284H674.04C673.56 379.48 673.176 378.652 672.9 377.8C672.54 376.744 672.372 375.7 672.372 374.68C672.372 373.648 672.54 372.616 672.9 371.56C673.176 370.696 673.56 369.868 674.04 369.076H673.2ZM676.716 369.676V373.804H680.568V374.764H676.5V375.532H680.568V376.54H675.804V377.32H686.196V376.54H681.432V375.532H685.5V374.764H681.432V373.804H685.296V369.676H676.716ZM684.468 373.072H681.396V370.42H684.468V373.072ZM680.604 373.072H677.544V370.42H680.604V373.072ZM676.968 377.812C676.656 378.664 676.308 379.372 675.9 379.924L676.692 380.2C677.112 379.576 677.46 378.856 677.724 378.016L676.968 377.812ZM679.728 377.932L678.96 378.1C679.2 378.7 679.392 379.408 679.56 380.2L680.4 380.008C680.196 379.264 679.968 378.568 679.728 377.932ZM682.236 377.884L681.468 378.052C681.804 378.664 682.08 379.372 682.32 380.176L683.148 379.984C682.884 379.24 682.584 378.532 682.236 377.884ZM684.648 377.74L684 378.148C684.6 378.904 685.08 379.588 685.44 380.2L686.124 379.72C685.788 379.156 685.296 378.496 684.648 377.74ZM678.996 370.804L678.3 371.032C678.612 371.572 678.876 372.136 679.092 372.712L679.8 372.52C679.56 371.872 679.296 371.308 678.996 370.804ZM682.92 370.744C682.692 371.428 682.428 371.992 682.116 372.448L682.812 372.7C683.148 372.196 683.424 371.608 683.64 370.936L682.92 370.744ZM697.188 371.104H692.64C692.904 370.54 693.096 369.928 693.228 369.28L692.28 369.148C692.148 369.82 691.944 370.48 691.68 371.104H688.824V380.2H689.7V379.228H696.312V380.176H697.188V371.104ZM689.7 378.388V375.46H696.312V378.388H689.7ZM689.7 374.644V371.932H696.312V374.644H689.7ZM699.96 369.076C700.44 369.868 700.812 370.696 701.1 371.56C701.448 372.616 701.628 373.648 701.628 374.68C701.628 375.7 701.448 376.744 701.1 377.8C700.812 378.652 700.44 379.48 699.96 380.284H700.8C701.316 379.504 701.724 378.676 702.036 377.812C702.384 376.78 702.564 375.736 702.564 374.692C702.564 373.624 702.384 372.58 702.036 371.548C701.724 370.672 701.316 369.844 700.8 369.076H699.96ZM720.012 369.184L719.292 369.448C719.532 369.736 719.748 370.048 719.916 370.384H718.332C718.296 369.988 718.284 369.568 718.284 369.136H717.432C717.432 369.568 717.456 369.988 717.48 370.384H712.812V372.268C712.776 373.708 712.38 374.836 711.636 375.652L712.296 376.24C713.016 375.412 713.436 374.356 713.58 373.072H715.716C715.692 373.732 715.632 374.152 715.56 374.344C715.464 374.512 715.236 374.608 714.876 374.632H713.916L714.144 375.376H715.092C715.62 375.352 715.992 375.196 716.208 374.896C716.412 374.584 716.52 373.72 716.52 372.304H713.64V371.188H717.564C717.66 371.884 717.804 372.484 717.996 372.976C718.116 373.288 718.26 373.576 718.416 373.852C717.888 374.272 717.288 374.656 716.616 375.016L717.072 375.7C717.708 375.352 718.308 374.956 718.86 374.512C719.004 374.704 719.16 374.872 719.328 375.016C719.844 375.472 720.36 375.712 720.888 375.712C721.176 375.712 721.44 375.508 721.68 375.112C721.872 374.776 722.052 374.38 722.22 373.9L721.512 373.444C721.284 374.392 721.056 374.884 720.84 374.908C720.504 374.896 720.12 374.692 719.712 374.284C719.628 374.188 719.544 374.092 719.472 373.984C720 373.504 720.48 372.952 720.912 372.352L720.384 371.788C720.024 372.316 719.58 372.832 719.064 373.312C718.932 373.06 718.812 372.784 718.704 372.484C718.572 372.1 718.476 371.668 718.416 371.188H721.56V370.384H720.696C720.492 369.928 720.264 369.52 720.012 369.184ZM721.08 376.24H712.896V379.024H711.552V379.804H722.412V379.024H721.08V376.24ZM713.724 379.024V377.032H715.332V379.024H713.724ZM716.16 379.024V377.032H717.792V379.024H716.16ZM718.62 379.024V377.032H720.252V379.024H718.62ZM729.492 373.708C729.876 374.944 730.344 376.036 730.908 376.996C730.212 377.968 729.3 378.76 728.148 379.384L728.64 380.164C729.768 379.516 730.68 378.712 731.4 377.752C732.144 378.808 733.044 379.636 734.088 380.236L734.58 379.504C733.548 378.928 732.648 378.1 731.892 377.02C732.756 375.592 733.224 373.864 733.296 371.848H734.184V371.02H730.644C730.8 370.492 730.932 369.916 731.04 369.304L730.188 369.16C729.852 371.188 729.216 372.808 728.28 374.008L728.808 374.644C729.048 374.356 729.276 374.044 729.492 373.708ZM730.38 371.848H732.468C732.408 373.528 732.048 374.992 731.376 376.228C730.812 375.256 730.344 374.116 729.984 372.796C730.128 372.496 730.26 372.184 730.38 371.848ZM723.66 371.008V371.836H724.908V372.94C724.884 375.988 724.392 378.208 723.408 379.588L724.08 380.176C724.968 378.904 725.496 376.984 725.664 374.416H727.176C727.164 376.792 727.116 378.22 727.032 378.676C726.948 379.072 726.684 379.276 726.252 379.276C725.988 379.276 725.688 379.264 725.352 379.24L725.544 379.984C725.94 380.008 726.216 380.032 726.372 380.032C727.224 380.032 727.704 379.684 727.824 379C727.932 378.328 727.992 376.54 727.992 373.624H725.7C725.7 373.408 725.712 373.18 725.712 372.94V371.836H728.628V371.008H726.828C726.636 370.432 726.36 369.796 726.024 369.1L725.184 369.34C725.472 369.88 725.736 370.432 725.952 371.008H723.66ZM738 371.692C737.784 371.692 737.604 371.764 737.472 371.908C737.328 372.04 737.268 372.22 737.268 372.436C737.268 372.652 737.328 372.82 737.472 372.964C737.604 373.096 737.784 373.168 738 373.168C738.216 373.168 738.384 373.096 738.528 372.964C738.672 372.82 738.744 372.652 738.744 372.436C738.744 372.22 738.672 372.04 738.528 371.908C738.384 371.764 738.216 371.692 738 371.692ZM738.012 376.12C737.772 376.12 737.58 376.18 737.436 376.324C737.292 376.456 737.232 376.636 737.232 376.864C737.232 377.068 737.304 377.248 737.448 377.392C737.58 377.524 737.748 377.596 737.952 377.596C738.072 377.596 738.168 377.584 738.216 377.56C738.216 377.848 738.132 378.112 737.952 378.352C737.76 378.604 737.508 378.784 737.196 378.88V379.48C737.7 379.336 738.12 379.072 738.432 378.688C738.744 378.292 738.9 377.824 738.9 377.296C738.9 376.936 738.816 376.66 738.66 376.456C738.492 376.228 738.276 376.12 738.012 376.12ZM675.66 386.832V387.684H680.244V397.224H681.12V390.408C682.2 390.984 683.544 391.8 685.14 392.856L685.656 392.088C684.12 391.104 682.608 390.24 681.12 389.496V387.684H686.328V386.832H675.66ZM687.732 389.352V390.192H692.256C691.632 393.144 690.048 395.256 687.492 396.516L688.032 397.236C690.588 395.904 692.244 393.78 692.988 390.864C693.888 393.576 695.544 395.664 697.956 397.152L698.496 396.456C696.036 394.992 694.38 392.904 693.54 390.192H698.268V389.352H693.288C693.384 388.608 693.444 387.828 693.444 386.988V386.208H692.556V387.18C692.544 387.936 692.496 388.656 692.4 389.352H687.732ZM700.92 392.484V393.24H708.132V394.236H701.256V394.98H708.132V396.048H700.92V396.816H708.132V397.26H708.972V392.484H700.92ZM700.572 386.592V387.312H704.58V388.164H699.984V390.852H700.824V388.86H704.58V391.836H705.42V388.86H709.176V390.852H710.016V388.164H705.42V387.312H709.416V386.592H700.572ZM701.46 389.664V390.264H703.932V389.664H701.46ZM701.46 390.984V391.584H703.932V390.984H701.46ZM706.068 389.664V390.264H708.564V389.664H706.068ZM706.068 390.984V391.584H708.6V390.984H706.068Z" fill="black"/>
<path d="M658.104 486.424H653.88C654.048 485.824 654.192 485.188 654.288 484.54H659.412V483.688H648.612V484.54H653.412C653.34 485.2 653.208 485.824 653.028 486.424H649.968V494.188H650.844V493.684H657.24V494.188H658.104V486.424ZM650.844 492.844V490.42H657.24V492.844H650.844ZM650.844 489.616V487.252H657.24V489.616H650.844ZM669.684 494.02C670.2 494.02 670.584 493.9 670.824 493.684C671.088 493.42 671.28 492.664 671.376 491.44L670.548 491.188C670.488 492.172 670.38 492.772 670.212 492.976C670.068 493.144 669.84 493.24 669.528 493.24H667.752C667.416 493.24 667.26 493.036 667.26 492.64V490.468C668.724 489.652 669.996 488.704 671.076 487.6L670.476 486.988C669.636 487.9 668.568 488.74 667.26 489.508V486.484H666.384V489.988C665.736 490.312 665.052 490.624 664.308 490.924L664.788 491.644C665.328 491.428 665.856 491.188 666.384 490.936V492.82C666.384 493.612 666.756 494.02 667.512 494.02H669.684ZM662.58 489.604V494.236H663.468V488.464C663.828 487.912 664.14 487.336 664.404 486.736L663.624 486.376C662.988 487.876 661.98 489.208 660.588 490.384L660.84 491.248C661.476 490.732 662.052 490.18 662.58 489.604ZM660.828 484.288V485.104H663.42V486.16H664.272V485.104H667.74V486.16H668.592V485.104H671.184V484.288H668.592V483.172H667.74V484.288H664.272V483.172H663.42V484.288H660.828ZM679.932 489.364V494.176H680.796V489.364H679.932ZM672.936 484.396V485.236H674.712C675.312 486.172 676.08 486.94 677.004 487.54C675.792 488.008 674.304 488.332 672.552 488.524L672.888 489.304C674.832 489.052 676.476 488.62 677.82 487.996L677.832 488.008C679.26 488.704 681.06 489.1 683.244 489.208L683.532 488.404C681.564 488.332 679.944 488.044 678.672 487.54C679.728 486.916 680.544 486.148 681.132 485.236H683.052V484.396H678.456C678.288 483.94 678.108 483.532 677.928 483.172L676.98 483.316C677.196 483.64 677.388 484 677.556 484.396H672.936ZM675.588 485.236H680.184C679.656 486.004 678.888 486.64 677.856 487.156C676.86 486.604 676.104 485.968 675.588 485.236ZM675.168 489.376V490.264C675.144 491.068 674.976 491.716 674.64 492.22C674.28 492.712 673.668 493.108 672.792 493.396L673.272 494.152C674.232 493.828 674.928 493.372 675.36 492.784C675.792 492.148 676.02 491.308 676.044 490.264V489.376H675.168ZM690.492 487.708C690.876 488.944 691.344 490.036 691.908 490.996C691.212 491.968 690.3 492.76 689.148 493.384L689.64 494.164C690.768 493.516 691.68 492.712 692.4 491.752C693.144 492.808 694.044 493.636 695.088 494.236L695.58 493.504C694.548 492.928 693.648 492.1 692.892 491.02C693.756 489.592 694.224 487.864 694.296 485.848H695.184V485.02H691.644C691.8 484.492 691.932 483.916 692.04 483.304L691.188 483.16C690.852 485.188 690.216 486.808 689.28 488.008L689.808 488.644C690.048 488.356 690.276 488.044 690.492 487.708ZM691.38 485.848H693.468C693.408 487.528 693.048 488.992 692.376 490.228C691.812 489.256 691.344 488.116 690.984 486.796C691.128 486.496 691.26 486.184 691.38 485.848ZM684.66 485.008V485.836H685.908V486.94C685.884 489.988 685.392 492.208 684.408 493.588L685.08 494.176C685.968 492.904 686.496 490.984 686.664 488.416H688.176C688.164 490.792 688.116 492.22 688.032 492.676C687.948 493.072 687.684 493.276 687.252 493.276C686.988 493.276 686.688 493.264 686.352 493.24L686.544 493.984C686.94 494.008 687.216 494.032 687.372 494.032C688.224 494.032 688.704 493.684 688.824 493C688.932 492.328 688.992 490.54 688.992 487.624H686.7C686.7 487.408 686.712 487.18 686.712 486.94V485.836H689.628V485.008H687.828C687.636 484.432 687.36 483.796 687.024 483.1L686.184 483.34C686.472 483.88 686.736 484.432 686.952 485.008H684.66ZM706.2 483.076C705.672 483.844 705.264 484.672 704.964 485.548C704.604 486.58 704.436 487.624 704.436 488.692C704.436 489.736 704.604 490.78 704.964 491.812C705.264 492.676 705.672 493.504 706.2 494.284H707.04C706.56 493.48 706.176 492.652 705.9 491.8C705.54 490.744 705.372 489.7 705.372 488.68C705.372 487.648 705.54 486.616 705.9 485.56C706.176 484.696 706.56 483.868 707.04 483.076H706.2ZM714.432 483.34C712.872 483.784 710.904 484.012 708.552 484.012L708.804 484.78C711.324 484.78 713.328 484.54 714.84 484.06L714.432 483.34ZM713.904 484.888C713.64 485.872 713.352 486.676 713.016 487.312L713.712 487.564C714.084 486.844 714.384 486.016 714.624 485.068L713.904 484.888ZM718.092 483.1C717.288 484.18 716.268 485.056 715.032 485.704L715.404 486.496C716.7 485.764 717.792 484.852 718.668 483.748L718.092 483.1ZM718.62 486.364C717.732 487.516 716.604 488.452 715.224 489.16L715.608 489.952C717.036 489.172 718.224 488.188 719.184 487L718.62 486.364ZM718.968 489.652C717.9 491.188 716.544 492.412 714.888 493.336L715.284 494.152C716.988 493.132 718.416 491.848 719.556 490.3L718.968 489.652ZM708.924 488.668V489.508H711.348C710.664 490.708 709.716 491.752 708.516 492.64L709.032 493.384C709.992 492.616 710.82 491.644 711.54 490.48V494.188H712.404V491.044C712.896 491.404 713.496 491.884 714.192 492.508L714.696 491.74C713.916 491.176 713.148 490.684 712.404 490.252V489.508H714.78V488.668H712.404V487.48H711.54V488.668H708.924ZM711.72 485.068L710.988 485.272C711.264 485.86 711.504 486.46 711.696 487.084L712.428 486.82C712.26 486.292 712.02 485.704 711.72 485.068ZM709.56 485.296L708.876 485.524C709.236 486.172 709.536 486.868 709.776 487.588L710.484 487.408C710.22 486.616 709.908 485.908 709.56 485.296ZM725.784 487.42V489.592H722.916V487.42H725.784ZM726.66 489.592V487.42H729.48V489.592H726.66ZM723.852 485.104H727.764C727.296 485.68 726.828 486.184 726.348 486.616H722.208C722.796 486.16 723.348 485.656 723.852 485.104ZM722.04 486.736V492.928C722.04 493.648 722.412 494.008 723.168 494.008H729.564C730.26 493.984 730.716 493.72 730.956 493.192C731.1 492.856 731.208 492.292 731.292 491.5L730.44 491.236C730.356 492.052 730.26 492.568 730.14 492.772C729.984 493.024 729.708 493.156 729.3 493.168H723.504C723.12 493.168 722.916 492.976 722.916 492.616V490.408H730.356V486.616H727.512C727.968 486.16 728.424 485.62 728.88 484.972V484.312H724.512C724.752 484 724.98 483.664 725.196 483.316L724.332 483.124C723.336 484.6 722.064 485.788 720.528 486.7L721.104 487.396C721.416 487.192 721.728 486.976 722.04 486.736ZM732.96 483.076C733.44 483.868 733.812 484.696 734.1 485.56C734.448 486.616 734.628 487.648 734.628 488.68C734.628 489.7 734.448 490.744 734.1 491.8C733.812 492.652 733.44 493.48 732.96 494.284H733.8C734.316 493.504 734.724 492.676 735.036 491.812C735.384 490.78 735.564 489.736 735.564 488.692C735.564 487.624 735.384 486.58 735.036 485.548C734.724 484.672 734.316 483.844 733.8 483.076H732.96Z" fill="black"/>
<path d="M772 116H640.5L606 173H737L772 116Z" fill="#BAD6F6"/>
<path d="M675 555L688 566L702.5 555" stroke="black" stroke-width="3"/>
<path d="M413.432 136.22H412.556C412.556 136.676 412.544 137.312 412.532 138.128C412.424 141.584 410.72 144.332 407.42 146.36L407.948 147.128C410.612 145.412 412.316 143.252 413.036 140.636C413.888 143.348 415.544 145.508 417.992 147.116L418.556 146.36C415.76 144.644 414.02 142.148 413.348 138.884C413.396 138.14 413.432 137.252 413.432 136.22ZM425.372 138.296V143.12H427.292V145.904C426.584 146.024 425.852 146.12 425.108 146.204L425.312 147.008C426.812 146.792 428.216 146.516 429.536 146.192C429.608 146.48 429.692 146.792 429.764 147.104L430.508 146.924C430.22 145.748 429.896 144.704 429.536 143.792L428.828 144.02C429.008 144.488 429.176 144.98 429.332 145.484C428.936 145.58 428.528 145.664 428.12 145.748V143.12H430.064V138.296H428.12V136.244H427.292V138.296H425.372ZM429.26 142.328H428.084V139.088H429.26V142.328ZM427.328 142.328H426.176V139.088H427.328V142.328ZM420.86 142.028H422V143.588H420.848C420.848 143.492 420.86 143.408 420.86 143.312V142.028ZM420.812 144.32H422V146.984H422.72V144.32H423.932V145.976C423.932 146.276 423.824 146.432 423.62 146.432C423.44 146.432 423.248 146.42 423.032 146.408L423.224 147.104H423.848C424.388 147.104 424.664 146.816 424.664 146.24V139.052H423.224C423.488 138.68 423.74 138.224 424.004 137.696V137.096H421.796C421.916 136.856 422.024 136.592 422.12 136.328L421.34 136.148C420.836 137.408 420.188 138.428 419.42 139.208L419.936 139.832C419.984 139.772 420.044 139.712 420.104 139.652V143.36C420.092 144.68 419.864 145.772 419.42 146.636L420.044 147.2C420.452 146.42 420.716 145.46 420.812 144.32ZM423.932 143.588H422.72V142.028H423.932V143.588ZM423.932 141.284H422.72V139.796H423.932V141.284ZM420.62 139.052C420.908 138.668 421.184 138.26 421.436 137.804H423.092C422.84 138.272 422.588 138.692 422.336 139.052H420.62ZM422 139.796V141.284H420.86V139.796H422ZM435.176 140.96C434.768 141.2 434.36 141.428 433.94 141.644V139.232H435.116V138.404H433.94V136.232H433.076V138.404H431.624V139.232H433.076V142.028C432.548 142.244 432.008 142.424 431.456 142.58L431.672 143.456C432.152 143.288 432.62 143.096 433.076 142.904V145.844C433.076 146.168 432.92 146.336 432.632 146.336C432.368 146.336 432.104 146.312 431.816 146.276L431.996 147.104H432.932C433.604 147.104 433.94 146.756 433.94 146.06V142.508C434.348 142.292 434.768 142.076 435.176 141.836V140.96ZM435.884 139.232V142.88H438.26C438.236 143.192 438.2 143.492 438.14 143.78H434.84V144.572H437.852L437.732 144.788C437.252 145.484 436.292 146.072 434.852 146.54L435.416 147.212C437.024 146.636 438.068 145.916 438.524 145.028C438.536 144.992 438.56 144.944 438.584 144.896C439.304 145.844 440.42 146.636 441.92 147.272L442.496 146.588C441.032 146.072 439.952 145.4 439.244 144.572H442.448V143.78H438.932C438.98 143.492 439.016 143.192 439.028 142.88H441.476V139.232H435.884ZM440.696 142.208H436.664V141.38H440.696V142.208ZM436.664 140.732V139.904H440.696V140.732H436.664ZM435.14 137.216V137.984H436.88V138.86H437.684V137.984H439.652V138.86H440.468V137.984H442.328V137.216H440.468V136.232H439.652V137.216H437.684V136.232H436.88V137.216H435.14ZM443.648 138.548V139.376H445.112C444.776 140.876 444.212 142.208 443.432 143.384L443.804 144.308C444.344 143.396 444.788 142.376 445.136 141.26V147.164H445.976V141.044C446.252 141.536 446.576 142.16 446.936 142.928L447.284 142.412V142.568H448.076C447.956 143.54 447.812 144.512 447.644 145.472H452.684C452.66 145.64 452.648 145.76 452.624 145.808C452.516 146.084 452.348 146.264 452.132 146.348C451.916 146.408 451.664 146.444 451.388 146.444C451.076 146.444 450.728 146.42 450.344 146.396L450.596 147.188C450.932 147.188 451.232 147.176 451.496 147.176C452.072 147.176 452.516 147.092 452.804 146.924C453.104 146.732 453.308 146.444 453.428 146.06C453.452 145.964 453.476 145.772 453.512 145.472H454.4V144.728H453.56C453.584 144.176 453.62 143.456 453.656 142.568H454.544V141.764H453.692L453.776 138.932H448.46C448.664 138.632 448.856 138.308 449.048 137.948H454.232V137.144H449.432C449.552 136.88 449.66 136.592 449.768 136.292L448.916 136.112C448.46 137.384 447.872 138.416 447.152 139.232V138.548H445.976V136.196H445.136V138.548H443.648ZM448.892 142.568H452.84C452.804 143.456 452.768 144.176 452.744 144.728H448.592C448.712 144.068 448.808 143.348 448.892 142.568ZM452.864 141.764H448.964C449.012 141.116 449.048 140.42 449.084 139.7H452.936C452.912 140.444 452.888 141.14 452.864 141.764ZM448.148 141.764H447.284V142.04C446.828 141.344 446.396 140.696 445.976 140.12V139.376H447.152V139.328L447.668 139.94C447.884 139.7 448.088 139.448 448.304 139.16C448.28 140.024 448.22 140.888 448.148 141.764ZM450.416 139.94L449.888 140.444C450.488 140.876 450.956 141.284 451.304 141.668L451.844 141.128C451.46 140.732 450.98 140.336 450.416 139.94ZM450.284 142.724L449.756 143.24C450.332 143.696 450.788 144.14 451.124 144.548L451.664 144.008C451.292 143.576 450.836 143.156 450.284 142.724ZM464.684 147.02C465.2 147.02 465.584 146.9 465.824 146.684C466.088 146.42 466.28 145.664 466.376 144.44L465.548 144.188C465.488 145.172 465.38 145.772 465.212 145.976C465.068 146.144 464.84 146.24 464.528 146.24H462.752C462.416 146.24 462.26 146.036 462.26 145.64V143.468C463.724 142.652 464.996 141.704 466.076 140.6L465.476 139.988C464.636 140.9 463.568 141.74 462.26 142.508V139.484H461.384V142.988C460.736 143.312 460.052 143.624 459.308 143.924L459.788 144.644C460.328 144.428 460.856 144.188 461.384 143.936V145.82C461.384 146.612 461.756 147.02 462.512 147.02H464.684ZM457.58 142.604V147.236H458.468V141.464C458.828 140.912 459.14 140.336 459.404 139.736L458.624 139.376C457.988 140.876 456.98 142.208 455.588 143.384L455.84 144.248C456.476 143.732 457.052 143.18 457.58 142.604ZM455.828 137.288V138.104H458.42V139.16H459.272V138.104H462.74V139.16H463.592V138.104H466.184V137.288H463.592V136.172H462.74V137.288H459.272V136.172H458.42V137.288H455.828Z" fill="black"/>
<path d="M649.228 139.124C648.64 140.984 647.704 142.628 646.432 144.068L646.708 144.992C647.176 144.5 647.608 143.984 648.004 143.456V150.224H648.868V142.136C649.336 141.308 649.72 140.432 650.032 139.496L649.228 139.124ZM649.972 141.128V141.956H657.196V141.128H654.064C653.896 140.408 653.716 139.772 653.524 139.22L652.612 139.376C652.828 139.904 653.032 140.492 653.2 141.128H649.972ZM649.768 148.784V149.636H657.508V148.784H654.784C655.384 147.092 655.9 145.148 656.32 142.952L655.492 142.736C655.036 145.16 654.508 147.176 653.896 148.784H649.768ZM651.448 142.868L650.656 143.108C651.16 144.812 651.58 146.576 651.904 148.4L652.708 148.184C652.336 146.192 651.916 144.416 651.448 142.868ZM658.852 142.592V143.252H663.424C663.376 143.48 663.34 143.708 663.292 143.936H660.376V149.228H658.636V149.924H669.376V149.228H667.636V143.936H664.156C664.204 143.72 664.24 143.492 664.288 143.252H669.16V142.592H664.384L664.456 141.896H668.344V139.652H659.656V141.896H663.592L663.52 142.592H658.852ZM661.216 149.228V148.436H666.784V149.228H661.216ZM661.216 147.896V147.14H666.784V147.896H661.216ZM661.216 146.588V145.832H666.784V146.588H661.216ZM661.216 145.292V144.536H666.784V145.292H661.216ZM667.528 141.284H665.74V140.288H667.528V141.284ZM664.948 141.284H663.052V140.288H664.948V141.284ZM662.272 141.284H660.484V140.288H662.272V141.284ZM674.404 140.636V141.428H677.452V142.592H674.788V150.176H675.592V147.572H677.452V150.116H678.268V147.572H680.188V148.94C680.188 149.228 680.044 149.372 679.78 149.372L678.868 149.336L679.096 150.128H680.032C680.668 150.128 680.992 149.792 680.992 149.12V142.592H678.268V141.428H681.472V140.636H680.212L680.716 140.276C680.5 139.952 680.176 139.58 679.756 139.16L679.168 139.52C679.552 139.928 679.852 140.3 680.08 140.636H678.268V139.208H677.452V140.636H674.404ZM677.452 143.372V144.704H675.592V143.372H677.452ZM675.592 145.472H677.452V146.804H675.592V145.472ZM680.188 146.804H678.268V145.472H680.188V146.804ZM680.188 144.704H678.268V143.372H680.188V144.704ZM671.98 150.092C672.652 150.092 673 149.744 673 149.072V145.592C673.432 145.412 673.852 145.22 674.26 145.016V144.14C673.84 144.356 673.42 144.56 673 144.74V142.328H674.212V141.5H673V139.232H672.136V141.5H670.672V142.328H672.136V145.076C671.596 145.256 671.044 145.412 670.492 145.544L670.708 146.408C671.188 146.264 671.656 146.096 672.136 145.928V148.844C672.136 149.144 671.98 149.3 671.68 149.3C671.368 149.3 671.056 149.276 670.72 149.252L670.9 150.092H671.98ZM691.936 149.228C691.384 149.204 690.916 149.168 690.532 149.096V146.252H693.136V145.46H690.532V143.48H692.728V139.7H687.244V143.48H689.692V148.844C689.296 148.664 688.936 148.364 688.624 147.956C688.336 147.548 688.108 147.068 687.952 146.516C688.108 145.916 688.24 145.268 688.348 144.572L687.52 144.428C687.208 146.576 686.608 148.292 685.72 149.564L686.272 150.248C686.8 149.54 687.256 148.664 687.616 147.632C688 148.508 688.516 149.132 689.188 149.504C689.716 149.84 690.748 150.008 692.26 150.02H693.376L693.532 149.192C693.148 149.216 692.608 149.228 691.936 149.228ZM684.1 150.068C684.772 150.068 685.108 149.72 685.108 149.024V145.544C685.552 145.34 685.996 145.124 686.428 144.884V144.032C685.996 144.272 685.564 144.5 685.108 144.716V142.232H686.356V141.404H685.108V139.208H684.28V141.404H682.816V142.232H684.28V145.052C683.74 145.256 683.188 145.424 682.612 145.568L682.828 146.42C683.308 146.264 683.8 146.084 684.28 145.892V148.82C684.28 149.144 684.124 149.312 683.812 149.312C683.512 149.312 683.212 149.288 682.9 149.252L683.08 150.068H684.1ZM691.9 142.688H688.084V140.492H691.9V142.688ZM700.372 141.296V146.12H702.292V148.904C701.584 149.024 700.852 149.12 700.108 149.204L700.312 150.008C701.812 149.792 703.216 149.516 704.536 149.192C704.608 149.48 704.692 149.792 704.764 150.104L705.508 149.924C705.22 148.748 704.896 147.704 704.536 146.792L703.828 147.02C704.008 147.488 704.176 147.98 704.332 148.484C703.936 148.58 703.528 148.664 703.12 148.748V146.12H705.064V141.296H703.12V139.244H702.292V141.296H700.372ZM704.26 145.328H703.084V142.088H704.26V145.328ZM702.328 145.328H701.176V142.088H702.328V145.328ZM695.86 145.028H697V146.588H695.848C695.848 146.492 695.86 146.408 695.86 146.312V145.028ZM695.812 147.32H697V149.984H697.72V147.32H698.932V148.976C698.932 149.276 698.824 149.432 698.62 149.432C698.44 149.432 698.248 149.42 698.032 149.408L698.224 150.104H698.848C699.388 150.104 699.664 149.816 699.664 149.24V142.052H698.224C698.488 141.68 698.74 141.224 699.004 140.696V140.096H696.796C696.916 139.856 697.024 139.592 697.12 139.328L696.34 139.148C695.836 140.408 695.188 141.428 694.42 142.208L694.936 142.832C694.984 142.772 695.044 142.712 695.104 142.652V146.36C695.092 147.68 694.864 148.772 694.42 149.636L695.044 150.2C695.452 149.42 695.716 148.46 695.812 147.32ZM698.932 146.588H697.72V145.028H698.932V146.588ZM698.932 144.284H697.72V142.796H698.932V144.284ZM695.62 142.052C695.908 141.668 696.184 141.26 696.436 140.804H698.092C697.84 141.272 697.588 141.692 697.336 142.052H695.62ZM697 142.796V144.284H695.86V142.796H697ZM710.176 143.96C709.768 144.2 709.36 144.428 708.94 144.644V142.232H710.116V141.404H708.94V139.232H708.076V141.404H706.624V142.232H708.076V145.028C707.548 145.244 707.008 145.424 706.456 145.58L706.672 146.456C707.152 146.288 707.62 146.096 708.076 145.904V148.844C708.076 149.168 707.92 149.336 707.632 149.336C707.368 149.336 707.104 149.312 706.816 149.276L706.996 150.104H707.932C708.604 150.104 708.94 149.756 708.94 149.06V145.508C709.348 145.292 709.768 145.076 710.176 144.836V143.96ZM710.884 142.232V145.88H713.26C713.236 146.192 713.2 146.492 713.14 146.78H709.84V147.572H712.852L712.732 147.788C712.252 148.484 711.292 149.072 709.852 149.54L710.416 150.212C712.024 149.636 713.068 148.916 713.524 148.028C713.536 147.992 713.56 147.944 713.584 147.896C714.304 148.844 715.42 149.636 716.92 150.272L717.496 149.588C716.032 149.072 714.952 148.4 714.244 147.572H717.448V146.78H713.932C713.98 146.492 714.016 146.192 714.028 145.88H716.476V142.232H710.884ZM715.696 145.208H711.664V144.38H715.696V145.208ZM711.664 143.732V142.904H715.696V143.732H711.664ZM710.14 140.216V140.984H711.88V141.86H712.684V140.984H714.652V141.86H715.468V140.984H717.328V140.216H715.468V139.232H714.652V140.216H712.684V139.232H711.88V140.216H710.14Z" fill="black"/>
</svg>
