<svg width="1440" height="1024" viewBox="0 0 1440 1024" fill="none" xmlns="http://www.w3.org/2000/svg">
<rect width="1440" height="1024" fill="white"/>
<path d="M937.056 480.065C937.644 479.482 937.649 478.533 937.065 477.944L927.563 468.355C926.979 467.767 926.03 467.763 925.441 468.346C924.853 468.929 924.849 469.879 925.432 470.467L933.879 478.99L925.355 487.437C924.767 488.021 924.763 488.97 925.346 489.559C925.929 490.147 926.879 490.151 927.467 489.568L937.056 480.065ZM713.993 479.5L935.993 480.5L936.007 477.5L714.007 476.5L713.993 479.5Z" fill="black"/>
<path d="M935.056 597.065C935.644 596.482 935.649 595.533 935.065 594.944L925.563 585.355C924.979 584.767 924.03 584.763 923.441 585.346C922.853 585.929 922.849 586.879 923.432 587.467L931.879 595.99L923.355 604.437C922.767 605.021 922.763 605.97 923.346 606.559C923.929 607.147 924.879 607.151 925.467 606.568L935.056 597.065ZM711.993 596.5L933.993 597.5L934.007 594.5L712.007 593.5L711.993 596.5Z" fill="black"/>
<path d="M805.056 707.065C805.644 706.482 805.648 705.532 805.065 704.944L795.559 695.358C794.975 694.77 794.026 694.766 793.437 695.35C792.849 695.933 792.845 696.883 793.429 697.471L801.879 705.991L793.358 714.441C792.77 715.025 792.766 715.974 793.35 716.563C793.933 717.151 794.883 717.155 795.471 716.571L805.056 707.065ZM561.994 706.5L803.994 707.5L804.006 704.5L562.006 703.5L561.994 706.5Z" fill="black"/>
<path d="M516.939 804.061C517.525 804.646 518.475 804.646 519.061 804.061L528.607 794.515C529.192 793.929 529.192 792.979 528.607 792.393C528.021 791.808 527.071 791.808 526.485 792.393L518 800.879L509.515 792.393C508.929 791.808 507.979 791.808 507.393 792.393C506.808 792.979 506.808 793.929 507.393 794.515L516.939 804.061ZM516.5 363V803H519.5V363H516.5Z" fill="black"/>
<rect x="1183" y="164" width="115" height="49" fill="#BAD6F6"/>
<rect x="936" y="462" width="115" height="49" fill="#BAD6F6"/>
<rect x="471" y="803" width="115" height="49" fill="#BAD6F6"/>
<rect x="471" y="313" width="115" height="49" fill="#BAD6F6"/>
<path d="M963.556 482.208V486.66H958.768V487.512H962.032V487.596C962.008 488.832 961.744 489.84 961.264 490.608C960.736 491.352 959.824 491.94 958.504 492.396L958.996 493.164C960.352 492.696 961.336 492.048 961.936 491.208C962.548 490.296 962.872 489.096 962.908 487.596V487.512H964.936V491.712C964.936 492.492 965.296 492.888 966.04 492.888H967.912C968.392 492.888 968.74 492.768 968.956 492.528C969.196 492.264 969.364 491.496 969.448 490.224L968.62 489.96C968.572 490.992 968.476 491.604 968.332 491.82C968.212 491.988 968.02 492.072 967.756 492.072H966.304C965.968 492.072 965.8 491.892 965.8 491.532V487.512H969.244V486.66H964.444V482.208H963.556ZM967.54 482.784C967.144 483.72 966.616 484.68 965.956 485.64L966.736 486.036C967.396 485.112 967.936 484.152 968.344 483.168L967.54 482.784ZM960.496 482.892L959.68 483.276C960.268 484.092 960.832 485.004 961.36 486.036L962.164 485.64C961.636 484.644 961.084 483.732 960.496 482.892ZM972.22 484.848C971.728 485.916 971.14 486.828 970.468 487.584L971.164 488.088C971.848 487.272 972.448 486.324 972.964 485.22L972.22 484.848ZM975.376 487.08L975.94 486.504C975.304 485.736 974.752 485.16 974.272 484.776L973.744 485.292C974.284 485.796 974.824 486.384 975.376 487.08ZM972.172 487.8L971.632 488.412C972.136 488.82 972.652 489.276 973.156 489.78C972.448 490.872 971.536 491.724 970.42 492.336L970.948 493.104C972.1 492.444 973.036 491.544 973.78 490.416C974.188 490.848 974.62 491.316 975.052 491.832L975.664 491.148C975.208 490.62 974.728 490.116 974.224 489.624C974.548 489 974.824 488.304 975.04 487.56L974.296 487.248C974.104 487.872 973.864 488.46 973.588 489.012C973.132 488.592 972.664 488.184 972.172 487.8ZM973.408 482.112L972.508 482.256C972.724 482.628 972.928 483.036 973.108 483.468H970.648V484.296H976.204V483.468H973.948C973.768 482.964 973.588 482.52 973.408 482.112ZM977.788 484.98H979.576C979.528 486.504 979.204 487.848 978.628 489.024C978.172 488.112 977.8 487.044 977.512 485.82C977.608 485.556 977.692 485.268 977.788 484.98ZM978.16 489.84C977.452 490.908 976.456 491.772 975.184 492.444L975.676 493.224C976.876 492.54 977.86 491.676 978.616 490.644C979.288 491.724 980.104 492.576 981.064 493.188L981.568 492.432C980.608 491.844 979.78 490.992 979.096 489.888C979.876 488.52 980.296 486.888 980.368 484.98H981.388V484.14H978.016C978.148 483.564 978.268 482.952 978.364 482.28L977.5 482.136C977.212 484.38 976.636 486.156 975.796 487.476L976.348 488.136C976.588 487.776 976.828 487.392 977.044 486.96C977.344 488.016 977.716 488.976 978.16 489.84ZM992.2 482.076C991.672 482.844 991.264 483.672 990.964 484.548C990.604 485.58 990.436 486.624 990.436 487.692C990.436 488.736 990.604 489.78 990.964 490.812C991.264 491.676 991.672 492.504 992.2 493.284H993.04C992.56 492.48 992.176 491.652 991.9 490.8C991.54 489.744 991.372 488.7 991.372 487.68C991.372 486.648 991.54 485.616 991.9 484.56C992.176 483.696 992.56 482.868 993.04 482.076H992.2ZM999.28 482.652V485.508H1001.34V486.504H998.8V490.752H1001.34V491.988C1001.34 492.708 1001.74 493.08 1002.54 493.08H1004.2C1004.58 493.08 1004.88 492.984 1005.1 492.816C1005.32 492.6 1005.47 492 1005.57 491.016L1004.76 490.764C1004.72 491.568 1004.61 492.036 1004.45 492.18C1004.32 492.264 1004.16 492.312 1003.97 492.312H1002.77C1002.39 492.312 1002.2 492.144 1002.2 491.832V490.752H1004.85V486.504H1002.2V485.508H1004.26V482.652H999.28ZM1003.42 484.776H1000.12V483.372H1003.42V484.776ZM1004.02 490.044H1002.2V488.952H1004.02V490.044ZM1001.34 490.044H999.616V488.952H1001.34V490.044ZM999.616 488.244V487.212H1001.34V488.244H999.616ZM1002.2 487.212H1004.02V488.244H1002.2V487.212ZM998.416 490.752C997.3 491.196 996.004 491.556 994.516 491.82L994.636 492.684C996.04 492.396 997.3 492.036 998.416 491.604V490.752ZM996.4 482.256C995.968 483.648 995.452 484.884 994.876 485.964C994.756 486.144 994.624 486.264 994.48 486.324L994.72 487.164C995.356 487.044 995.992 486.9 996.616 486.756C996.016 487.884 995.512 488.676 995.092 489.156C994.984 489.252 994.852 489.336 994.696 489.408L994.936 490.212C995.992 490.068 997.108 489.78 998.272 489.36V488.58C997.504 488.844 996.748 489.06 995.992 489.216C996.64 488.352 997.48 486.888 998.488 484.848L997.696 484.56C997.456 485.064 997.228 485.532 997.012 485.976C996.52 486.096 996.028 486.18 995.524 486.252C996.1 485.328 996.664 484.104 997.216 482.58L996.4 482.256ZM1007.51 483.144V483.936H1011.56V484.98H1007.02V487.164H1007.86V485.736H1011.44C1010.74 486.336 1010 486.864 1009.22 487.308C1009.04 487.404 1008.86 487.476 1008.68 487.512L1008.84 488.172C1009.89 488.148 1010.81 488.112 1011.63 488.088C1010.57 488.688 1009.56 489.12 1008.58 489.396C1008.34 489.396 1008.09 489.384 1007.84 489.372L1008 490.152C1009.11 490.128 1010.32 490.08 1011.64 490.02V492.072C1011.64 492.312 1011.5 492.444 1011.23 492.444C1010.92 492.444 1010.58 492.42 1010.25 492.384L1010.43 493.188H1011.52C1012.17 493.188 1012.5 492.876 1012.5 492.276V489.984C1013.37 489.936 1014.28 489.876 1015.25 489.816C1015.49 490.104 1015.71 490.392 1015.9 490.68L1016.55 490.212C1016.08 489.564 1015.41 488.82 1014.53 487.968L1013.91 488.364C1014.2 488.652 1014.47 488.928 1014.74 489.216C1013.18 489.324 1011.63 489.408 1010.07 489.456C1011.7 488.88 1013.21 488.076 1014.63 487.02L1013.93 486.552C1013.5 486.864 1013.07 487.164 1012.65 487.452C1011.98 487.5 1011.08 487.524 1009.97 487.548C1010.75 487.128 1011.5 486.636 1012.22 486.06L1011.56 485.736H1016.14V487.176H1016.98V484.98H1012.44V483.936H1016.49V483.144H1012.44V482.196H1011.56V483.144H1007.51ZM1013.78 490.62L1013.34 491.256C1014.5 491.676 1015.62 492.252 1016.73 492.972L1017.17 492.276C1016.15 491.628 1015.02 491.076 1013.78 490.62ZM1010 490.596C1009.14 491.244 1008.06 491.772 1006.76 492.168L1007.12 492.936C1008.47 492.468 1009.6 491.88 1010.5 491.16L1010 490.596ZM1018.96 482.076C1019.44 482.868 1019.81 483.696 1020.1 484.56C1020.45 485.616 1020.63 486.648 1020.63 487.68C1020.63 488.7 1020.45 489.744 1020.1 490.8C1019.81 491.652 1019.44 492.48 1018.96 493.284H1019.8C1020.32 492.504 1020.72 491.676 1021.04 490.812C1021.38 489.78 1021.56 488.736 1021.56 487.692C1021.56 486.624 1021.38 485.58 1021.04 484.548C1020.72 483.672 1020.32 482.844 1019.8 482.076H1018.96Z" fill="black"/>
<rect x="1183" y="55" width="115" height="49" rx="24.5" fill="#F2C94C"/>
<rect x="777" y="456" width="115" height="49" rx="24.5" fill="#F2C94C"/>
<rect x="777" y="573" width="115" height="49" rx="24.5" fill="#F2C94C"/>
<rect x="625" y="681" width="115" height="49" rx="24.5" fill="#F2C94C"/>
<path d="M813.952 473.16C812.896 474.312 811.3 475.08 809.164 475.488L809.668 476.28C810.952 475.992 812.056 475.572 812.992 475.02H816.496C815.824 476.004 814.852 476.76 813.604 477.264C813.22 476.784 812.812 476.352 812.38 475.944L811.624 476.304C812.032 476.676 812.428 477.096 812.8 477.552C811.936 477.804 810.976 477.96 809.896 478.032L810.268 478.812C813.772 478.536 816.184 477.24 817.48 474.936V474.252H814.036C814.276 474.036 814.504 473.808 814.72 473.568L813.952 473.16ZM813.496 480.66L812.728 481.02C813.172 481.452 813.592 481.944 814 482.484C812.644 482.94 811.024 483.168 809.152 483.18L809.5 484.008C814.156 483.9 817.324 482.436 819.028 479.604V478.92H815.74C816.076 478.668 816.376 478.392 816.664 478.104L815.92 477.696C814.672 479.016 812.74 479.82 810.124 480.084L810.64 480.852C812.092 480.6 813.34 480.216 814.396 479.712H817.948C817.18 480.768 816.136 481.596 814.804 482.172C814.396 481.632 813.952 481.128 813.496 480.66ZM825.376 473.22V476.724H822.112V480.576H830.056V476.724H826.228V475.2H830.884V474.384H826.228V473.22H825.376ZM829.192 479.772H822.976V477.54H829.192V479.772ZM822.088 481.104C821.656 482.088 821.14 482.94 820.54 483.648L821.248 484.164C821.848 483.396 822.364 482.496 822.82 481.452L822.088 481.104ZM824.704 481.452L823.9 481.62C824.128 482.376 824.32 483.24 824.488 484.224L825.352 484.032C825.16 483.108 824.944 482.244 824.704 481.452ZM827.212 481.332L826.396 481.5C826.756 482.28 827.056 483.18 827.296 484.2L828.148 484.008C827.884 483.048 827.572 482.148 827.212 481.332ZM829.672 481.092L828.976 481.536C829.708 482.52 830.284 483.408 830.704 484.224L831.424 483.72C831.016 482.976 830.44 482.1 829.672 481.092ZM838.372 475.296V480.12H840.292V482.904C839.584 483.024 838.852 483.12 838.108 483.204L838.312 484.008C839.812 483.792 841.216 483.516 842.536 483.192C842.608 483.48 842.692 483.792 842.764 484.104L843.508 483.924C843.22 482.748 842.896 481.704 842.536 480.792L841.828 481.02C842.008 481.488 842.176 481.98 842.332 482.484C841.936 482.58 841.528 482.664 841.12 482.748V480.12H843.064V475.296H841.12V473.244H840.292V475.296H838.372ZM842.26 479.328H841.084V476.088H842.26V479.328ZM840.328 479.328H839.176V476.088H840.328V479.328ZM833.86 479.028H835V480.588H833.848C833.848 480.492 833.86 480.408 833.86 480.312V479.028ZM833.812 481.32H835V483.984H835.72V481.32H836.932V482.976C836.932 483.276 836.824 483.432 836.62 483.432C836.44 483.432 836.248 483.42 836.032 483.408L836.224 484.104H836.848C837.388 484.104 837.664 483.816 837.664 483.24V476.052H836.224C836.488 475.68 836.74 475.224 837.004 474.696V474.096H834.796C834.916 473.856 835.024 473.592 835.12 473.328L834.34 473.148C833.836 474.408 833.188 475.428 832.42 476.208L832.936 476.832C832.984 476.772 833.044 476.712 833.104 476.652V480.36C833.092 481.68 832.864 482.772 832.42 483.636L833.044 484.2C833.452 483.42 833.716 482.46 833.812 481.32ZM836.932 480.588H835.72V479.028H836.932V480.588ZM836.932 478.284H835.72V476.796H836.932V478.284ZM833.62 476.052C833.908 475.668 834.184 475.26 834.436 474.804H836.092C835.84 475.272 835.588 475.692 835.336 476.052H833.62ZM835 476.796V478.284H833.86V476.796H835ZM848.176 477.96C847.768 478.2 847.36 478.428 846.94 478.644V476.232H848.116V475.404H846.94V473.232H846.076V475.404H844.624V476.232H846.076V479.028C845.548 479.244 845.008 479.424 844.456 479.58L844.672 480.456C845.152 480.288 845.62 480.096 846.076 479.904V482.844C846.076 483.168 845.92 483.336 845.632 483.336C845.368 483.336 845.104 483.312 844.816 483.276L844.996 484.104H845.932C846.604 484.104 846.94 483.756 846.94 483.06V479.508C847.348 479.292 847.768 479.076 848.176 478.836V477.96ZM848.884 476.232V479.88H851.26C851.236 480.192 851.2 480.492 851.14 480.78H847.84V481.572H850.852L850.732 481.788C850.252 482.484 849.292 483.072 847.852 483.54L848.416 484.212C850.024 483.636 851.068 482.916 851.524 482.028C851.536 481.992 851.56 481.944 851.584 481.896C852.304 482.844 853.42 483.636 854.92 484.272L855.496 483.588C854.032 483.072 852.952 482.4 852.244 481.572H855.448V480.78H851.932C851.98 480.492 852.016 480.192 852.028 479.88H854.476V476.232H848.884ZM853.696 479.208H849.664V478.38H853.696V479.208ZM849.664 477.732V476.904H853.696V477.732H849.664ZM848.14 474.216V474.984H849.88V475.86H850.684V474.984H852.652V475.86H853.468V474.984H855.328V474.216H853.468V473.232H852.652V474.216H850.684V473.232H849.88V474.216H848.14Z" fill="black"/>
<path d="M811.228 592.124C810.64 593.984 809.704 595.628 808.432 597.068L808.708 597.992C809.176 597.5 809.608 596.984 810.004 596.456V603.224H810.868V595.136C811.336 594.308 811.72 593.432 812.032 592.496L811.228 592.124ZM811.972 594.128V594.956H819.196V594.128H816.064C815.896 593.408 815.716 592.772 815.524 592.22L814.612 592.376C814.828 592.904 815.032 593.492 815.2 594.128H811.972ZM811.768 601.784V602.636H819.508V601.784H816.784C817.384 600.092 817.9 598.148 818.32 595.952L817.492 595.736C817.036 598.16 816.508 600.176 815.896 601.784H811.768ZM813.448 595.868L812.656 596.108C813.16 597.812 813.58 599.576 813.904 601.4L814.708 601.184C814.336 599.192 813.916 597.416 813.448 595.868ZM820.852 595.592V596.252H825.424C825.376 596.48 825.34 596.708 825.292 596.936H822.376V602.228H820.636V602.924H831.376V602.228H829.636V596.936H826.156C826.204 596.72 826.24 596.492 826.288 596.252H831.16V595.592H826.384L826.456 594.896H830.344V592.652H821.656V594.896H825.592L825.52 595.592H820.852ZM823.216 602.228V601.436H828.784V602.228H823.216ZM823.216 600.896V600.14H828.784V600.896H823.216ZM823.216 599.588V598.832H828.784V599.588H823.216ZM823.216 598.292V597.536H828.784V598.292H823.216ZM829.528 594.284H827.74V593.288H829.528V594.284ZM826.948 594.284H825.052V593.288H826.948V594.284ZM824.272 594.284H822.484V593.288H824.272V594.284ZM836.404 593.636V594.428H839.452V595.592H836.788V603.176H837.592V600.572H839.452V603.116H840.268V600.572H842.188V601.94C842.188 602.228 842.044 602.372 841.78 602.372L840.868 602.336L841.096 603.128H842.032C842.668 603.128 842.992 602.792 842.992 602.12V595.592H840.268V594.428H843.472V593.636H842.212L842.716 593.276C842.5 592.952 842.176 592.58 841.756 592.16L841.168 592.52C841.552 592.928 841.852 593.3 842.08 593.636H840.268V592.208H839.452V593.636H836.404ZM839.452 596.372V597.704H837.592V596.372H839.452ZM837.592 598.472H839.452V599.804H837.592V598.472ZM842.188 599.804H840.268V598.472H842.188V599.804ZM842.188 597.704H840.268V596.372H842.188V597.704ZM833.98 603.092C834.652 603.092 835 602.744 835 602.072V598.592C835.432 598.412 835.852 598.22 836.26 598.016V597.14C835.84 597.356 835.42 597.56 835 597.74V595.328H836.212V594.5H835V592.232H834.136V594.5H832.672V595.328H834.136V598.076C833.596 598.256 833.044 598.412 832.492 598.544L832.708 599.408C833.188 599.264 833.656 599.096 834.136 598.928V601.844C834.136 602.144 833.98 602.3 833.68 602.3C833.368 602.3 833.056 602.276 832.72 602.252L832.9 603.092H833.98ZM853.936 602.228C853.384 602.204 852.916 602.168 852.532 602.096V599.252H855.136V598.46H852.532V596.48H854.728V592.7H849.244V596.48H851.692V601.844C851.296 601.664 850.936 601.364 850.624 600.956C850.336 600.548 850.108 600.068 849.952 599.516C850.108 598.916 850.24 598.268 850.348 597.572L849.52 597.428C849.208 599.576 848.608 601.292 847.72 602.564L848.272 603.248C848.8 602.54 849.256 601.664 849.616 600.632C850 601.508 850.516 602.132 851.188 602.504C851.716 602.84 852.748 603.008 854.26 603.02H855.376L855.532 602.192C855.148 602.216 854.608 602.228 853.936 602.228ZM846.1 603.068C846.772 603.068 847.108 602.72 847.108 602.024V598.544C847.552 598.34 847.996 598.124 848.428 597.884V597.032C847.996 597.272 847.564 597.5 847.108 597.716V595.232H848.356V594.404H847.108V592.208H846.28V594.404H844.816V595.232H846.28V598.052C845.74 598.256 845.188 598.424 844.612 598.568L844.828 599.42C845.308 599.264 845.8 599.084 846.28 598.892V601.82C846.28 602.144 846.124 602.312 845.812 602.312C845.512 602.312 845.212 602.288 844.9 602.252L845.08 603.068H846.1ZM853.9 595.688H850.084V593.492H853.9V595.688Z" fill="black"/>
<path d="M662.228 699.124C661.64 700.984 660.704 702.628 659.432 704.068L659.708 704.992C660.176 704.5 660.608 703.984 661.004 703.456V710.224H661.868V702.136C662.336 701.308 662.72 700.432 663.032 699.496L662.228 699.124ZM662.972 701.128V701.956H670.196V701.128H667.064C666.896 700.408 666.716 699.772 666.524 699.22L665.612 699.376C665.828 699.904 666.032 700.492 666.2 701.128H662.972ZM662.768 708.784V709.636H670.508V708.784H667.784C668.384 707.092 668.9 705.148 669.32 702.952L668.492 702.736C668.036 705.16 667.508 707.176 666.896 708.784H662.768ZM664.448 702.868L663.656 703.108C664.16 704.812 664.58 706.576 664.904 708.4L665.708 708.184C665.336 706.192 664.916 704.416 664.448 702.868ZM671.852 702.592V703.252H676.424C676.376 703.48 676.34 703.708 676.292 703.936H673.376V709.228H671.636V709.924H682.376V709.228H680.636V703.936H677.156C677.204 703.72 677.24 703.492 677.288 703.252H682.16V702.592H677.384L677.456 701.896H681.344V699.652H672.656V701.896H676.592L676.52 702.592H671.852ZM674.216 709.228V708.436H679.784V709.228H674.216ZM674.216 707.896V707.14H679.784V707.896H674.216ZM674.216 706.588V705.832H679.784V706.588H674.216ZM674.216 705.292V704.536H679.784V705.292H674.216ZM680.528 701.284H678.74V700.288H680.528V701.284ZM677.948 701.284H676.052V700.288H677.948V701.284ZM675.272 701.284H673.484V700.288H675.272V701.284ZM687.404 700.636V701.428H690.452V702.592H687.788V710.176H688.592V707.572H690.452V710.116H691.268V707.572H693.188V708.94C693.188 709.228 693.044 709.372 692.78 709.372L691.868 709.336L692.096 710.128H693.032C693.668 710.128 693.992 709.792 693.992 709.12V702.592H691.268V701.428H694.472V700.636H693.212L693.716 700.276C693.5 699.952 693.176 699.58 692.756 699.16L692.168 699.52C692.552 699.928 692.852 700.3 693.08 700.636H691.268V699.208H690.452V700.636H687.404ZM690.452 703.372V704.704H688.592V703.372H690.452ZM688.592 705.472H690.452V706.804H688.592V705.472ZM693.188 706.804H691.268V705.472H693.188V706.804ZM693.188 704.704H691.268V703.372H693.188V704.704ZM684.98 710.092C685.652 710.092 686 709.744 686 709.072V705.592C686.432 705.412 686.852 705.22 687.26 705.016V704.14C686.84 704.356 686.42 704.56 686 704.74V702.328H687.212V701.5H686V699.232H685.136V701.5H683.672V702.328H685.136V705.076C684.596 705.256 684.044 705.412 683.492 705.544L683.708 706.408C684.188 706.264 684.656 706.096 685.136 705.928V708.844C685.136 709.144 684.98 709.3 684.68 709.3C684.368 709.3 684.056 709.276 683.72 709.252L683.9 710.092H684.98ZM704.936 709.228C704.384 709.204 703.916 709.168 703.532 709.096V706.252H706.136V705.46H703.532V703.48H705.728V699.7H700.244V703.48H702.692V708.844C702.296 708.664 701.936 708.364 701.624 707.956C701.336 707.548 701.108 707.068 700.952 706.516C701.108 705.916 701.24 705.268 701.348 704.572L700.52 704.428C700.208 706.576 699.608 708.292 698.72 709.564L699.272 710.248C699.8 709.54 700.256 708.664 700.616 707.632C701 708.508 701.516 709.132 702.188 709.504C702.716 709.84 703.748 710.008 705.26 710.02H706.376L706.532 709.192C706.148 709.216 705.608 709.228 704.936 709.228ZM697.1 710.068C697.772 710.068 698.108 709.72 698.108 709.024V705.544C698.552 705.34 698.996 705.124 699.428 704.884V704.032C698.996 704.272 698.564 704.5 698.108 704.716V702.232H699.356V701.404H698.108V699.208H697.28V701.404H695.816V702.232H697.28V705.052C696.74 705.256 696.188 705.424 695.612 705.568L695.828 706.42C696.308 706.264 696.8 706.084 697.28 705.892V708.82C697.28 709.144 697.124 709.312 696.812 709.312C696.512 709.312 696.212 709.288 695.9 709.252L696.08 710.068H697.1ZM704.9 702.688H701.084V700.492H704.9V702.688Z" fill="black"/>
<path d="M1237 254L1283.77 333.5H1190.23L1237 254Z" fill="#F0F5FB"/>
<path d="M843 659L889.765 738.5H796.235L843 659Z" fill="#F0F5FB"/>
<path d="M975 556L1021.77 635.5H928.235L975 556Z" fill="#F0F5FB"/>
<circle cx="1241" cy="425" r="38" fill="#EB5757"/>
<circle cx="673" cy="479" r="38" fill="#EB5757"/>
<circle cx="674" cy="594" r="38" fill="#EB5757"/>
<circle cx="524" cy="700" r="38" fill="#EB5757"/>
<path d="M656.372 477.296V482.12H658.292V484.904C657.584 485.024 656.852 485.12 656.108 485.204L656.312 486.008C657.812 485.792 659.216 485.516 660.536 485.192C660.608 485.48 660.692 485.792 660.764 486.104L661.508 485.924C661.22 484.748 660.896 483.704 660.536 482.792L659.828 483.02C660.008 483.488 660.176 483.98 660.332 484.484C659.936 484.58 659.528 484.664 659.12 484.748V482.12H661.064V477.296H659.12V475.244H658.292V477.296H656.372ZM660.26 481.328H659.084V478.088H660.26V481.328ZM658.328 481.328H657.176V478.088H658.328V481.328ZM651.86 481.028H653V482.588H651.848C651.848 482.492 651.86 482.408 651.86 482.312V481.028ZM651.812 483.32H653V485.984H653.72V483.32H654.932V484.976C654.932 485.276 654.824 485.432 654.62 485.432C654.44 485.432 654.248 485.42 654.032 485.408L654.224 486.104H654.848C655.388 486.104 655.664 485.816 655.664 485.24V478.052H654.224C654.488 477.68 654.74 477.224 655.004 476.696V476.096H652.796C652.916 475.856 653.024 475.592 653.12 475.328L652.34 475.148C651.836 476.408 651.188 477.428 650.42 478.208L650.936 478.832C650.984 478.772 651.044 478.712 651.104 478.652V482.36C651.092 483.68 650.864 484.772 650.42 485.636L651.044 486.2C651.452 485.42 651.716 484.46 651.812 483.32ZM654.932 482.588H653.72V481.028H654.932V482.588ZM654.932 480.284H653.72V478.796H654.932V480.284ZM651.62 478.052C651.908 477.668 652.184 477.26 652.436 476.804H654.092C653.84 477.272 653.588 477.692 653.336 478.052H651.62ZM653 478.796V480.284H651.86V478.796H653ZM666.176 479.96C665.768 480.2 665.36 480.428 664.94 480.644V478.232H666.116V477.404H664.94V475.232H664.076V477.404H662.624V478.232H664.076V481.028C663.548 481.244 663.008 481.424 662.456 481.58L662.672 482.456C663.152 482.288 663.62 482.096 664.076 481.904V484.844C664.076 485.168 663.92 485.336 663.632 485.336C663.368 485.336 663.104 485.312 662.816 485.276L662.996 486.104H663.932C664.604 486.104 664.94 485.756 664.94 485.06V481.508C665.348 481.292 665.768 481.076 666.176 480.836V479.96ZM666.884 478.232V481.88H669.26C669.236 482.192 669.2 482.492 669.14 482.78H665.84V483.572H668.852L668.732 483.788C668.252 484.484 667.292 485.072 665.852 485.54L666.416 486.212C668.024 485.636 669.068 484.916 669.524 484.028C669.536 483.992 669.56 483.944 669.584 483.896C670.304 484.844 671.42 485.636 672.92 486.272L673.496 485.588C672.032 485.072 670.952 484.4 670.244 483.572H673.448V482.78H669.932C669.98 482.492 670.016 482.192 670.028 481.88H672.476V478.232H666.884ZM671.696 481.208H667.664V480.38H671.696V481.208ZM667.664 479.732V478.904H671.696V479.732H667.664ZM666.14 476.216V476.984H667.88V477.86H668.684V476.984H670.652V477.86H671.468V476.984H673.328V476.216H671.468V475.232H670.652V476.216H668.684V475.232H667.88V476.216H666.14ZM679.28 475.652V478.508H681.344V479.504H678.8V483.752H681.344V484.988C681.344 485.708 681.74 486.08 682.544 486.08H684.2C684.584 486.08 684.884 485.984 685.1 485.816C685.316 485.6 685.472 485 685.568 484.016L684.764 483.764C684.716 484.568 684.608 485.036 684.452 485.18C684.32 485.264 684.164 485.312 683.972 485.312H682.772C682.388 485.312 682.196 485.144 682.196 484.832V483.752H684.848V479.504H682.196V478.508H684.26V475.652H679.28ZM683.42 477.776H680.12V476.372H683.42V477.776ZM684.02 483.044H682.196V481.952H684.02V483.044ZM681.344 483.044H679.616V481.952H681.344V483.044ZM679.616 481.244V480.212H681.344V481.244H679.616ZM682.196 480.212H684.02V481.244H682.196V480.212ZM678.416 483.752C677.3 484.196 676.004 484.556 674.516 484.82L674.636 485.684C676.04 485.396 677.3 485.036 678.416 484.604V483.752ZM676.4 475.256C675.968 476.648 675.452 477.884 674.876 478.964C674.756 479.144 674.624 479.264 674.48 479.324L674.72 480.164C675.356 480.044 675.992 479.9 676.616 479.756C676.016 480.884 675.512 481.676 675.092 482.156C674.984 482.252 674.852 482.336 674.696 482.408L674.936 483.212C675.992 483.068 677.108 482.78 678.272 482.36V481.58C677.504 481.844 676.748 482.06 675.992 482.216C676.64 481.352 677.48 479.888 678.488 477.848L677.696 477.56C677.456 478.064 677.228 478.532 677.012 478.976C676.52 479.096 676.028 479.18 675.524 479.252C676.1 478.328 676.664 477.104 677.216 475.58L676.4 475.256ZM687.512 476.144V476.936H691.556V477.98H687.02V480.164H687.86V478.736H691.436C690.74 479.336 689.996 479.864 689.216 480.308C689.036 480.404 688.856 480.476 688.676 480.512L688.844 481.172C689.888 481.148 690.812 481.112 691.628 481.088C690.572 481.688 689.564 482.12 688.58 482.396C688.34 482.396 688.088 482.384 687.836 482.372L688.004 483.152C689.108 483.128 690.32 483.08 691.64 483.02V485.072C691.64 485.312 691.496 485.444 691.232 485.444C690.92 485.444 690.584 485.42 690.248 485.384L690.428 486.188H691.52C692.168 486.188 692.504 485.876 692.504 485.276V482.984C693.368 482.936 694.28 482.876 695.252 482.816C695.492 483.104 695.708 483.392 695.9 483.68L696.548 483.212C696.08 482.564 695.408 481.82 694.532 480.968L693.908 481.364C694.196 481.652 694.472 481.928 694.736 482.216C693.176 482.324 691.628 482.408 690.068 482.456C691.7 481.88 693.212 481.076 694.628 480.02L693.932 479.552C693.5 479.864 693.068 480.164 692.648 480.452C691.976 480.5 691.076 480.524 689.972 480.548C690.752 480.128 691.496 479.636 692.216 479.06L691.556 478.736H696.14V480.176H696.98V477.98H692.444V476.936H696.488V476.144H692.444V475.196H691.556V476.144H687.512ZM693.776 483.62L693.344 484.256C694.496 484.676 695.624 485.252 696.728 485.972L697.172 485.276C696.152 484.628 695.024 484.076 693.776 483.62ZM689.996 483.596C689.144 484.244 688.064 484.772 686.756 485.168L687.116 485.936C688.472 485.468 689.6 484.88 690.5 484.16L689.996 483.596Z" fill="#333333"/>
<path d="M651.812 590.068V595H655.568V596.14H650.672V596.956H655.568V599.236H656.432V596.956H661.328V596.14H656.432V595H660.188V590.068H657.884C658.244 589.576 658.568 589.024 658.856 588.412L658.016 588.112C657.716 588.808 657.368 589.468 656.984 590.068H651.812ZM659.348 594.232H656.432V592.888H659.348V594.232ZM655.568 594.232H652.652V592.888H655.568V594.232ZM652.652 592.144V590.824H655.568V592.144H652.652ZM656.432 590.824H659.348V592.144H656.432V590.824ZM653.936 588.172L653.204 588.52C653.612 588.976 653.984 589.48 654.344 590.056L655.064 589.696C654.704 589.144 654.332 588.628 653.936 588.172ZM668.432 588.22H667.556C667.556 588.676 667.544 589.312 667.532 590.128C667.424 593.584 665.72 596.332 662.42 598.36L662.948 599.128C665.612 597.412 667.316 595.252 668.036 592.636C668.888 595.348 670.544 597.508 672.992 599.116L673.556 598.36C670.76 596.644 669.02 594.148 668.348 590.884C668.396 590.14 668.432 589.252 668.432 588.22ZM675.08 593.008V593.704H678.02C677.144 594.316 675.98 594.844 674.528 595.288L675.032 595.912C676.052 595.576 676.964 595.18 677.756 594.7L677.912 595.168C678.572 595.168 679.196 595.144 679.772 595.096V595.708H676.532V596.356H679.772V596.992H675.296V597.652H679.772V598.06C679.772 598.348 679.616 598.492 679.328 598.492C678.896 598.492 678.428 598.468 677.948 598.432L678.116 599.176H679.604C680.252 599.176 680.576 598.864 680.576 598.252V597.652H684.656V596.992H680.576V596.356H683.42V595.708H680.576V595.012C681.104 594.94 681.584 594.844 682.016 594.724L681.668 594.124C680.684 594.388 679.46 594.532 677.996 594.556C678.404 594.292 678.776 594.004 679.112 593.704H681.512C682.22 594.616 683.42 595.372 685.1 595.948L685.448 595.216C684.08 594.844 683.06 594.34 682.388 593.704H684.968V593.008H679.76C679.88 592.852 679.988 592.684 680.108 592.516L679.364 592.384C679.208 592.6 679.028 592.804 678.836 593.008H675.08ZM675.104 589.084V589.78H676.532C676.172 590.464 675.596 591.088 674.828 591.64L675.152 592.432C675.74 591.904 676.22 591.304 676.604 590.656V592.576H677.348V590.92C677.576 591.124 677.852 591.4 678.164 591.736L678.572 591.124C678.164 590.788 677.756 590.476 677.348 590.2V589.78H678.284V589.084H677.348V588.256H676.604V589.084H675.104ZM681.716 589.084V589.78H682.76C682.472 590.404 682.016 590.956 681.38 591.46L681.692 592.228C682.136 591.772 682.508 591.256 682.796 590.704V592.564H683.54V590.872C683.876 591.184 684.296 591.592 684.776 592.108L685.208 591.46C684.644 590.956 684.092 590.512 683.54 590.116V589.78H684.884V589.084H683.54V588.232H682.796V589.084H681.716ZM679.1 588.208L678.656 588.652C679.004 588.844 679.328 589.048 679.64 589.24C679.34 589.432 679.016 589.588 678.656 589.732L679.004 590.296C679.46 590.068 679.844 589.84 680.18 589.6C680.468 589.804 680.732 590.008 680.972 590.2L681.44 589.732C681.212 589.54 680.96 589.36 680.696 589.18C680.924 588.964 681.164 588.7 681.416 588.388L680.9 588.064C680.684 588.34 680.432 588.592 680.168 588.832C679.832 588.628 679.484 588.424 679.1 588.208ZM678.98 590.368L678.536 590.788C678.848 590.956 679.16 591.136 679.448 591.304C679.112 591.508 678.728 591.676 678.32 591.808L678.668 592.372C679.196 592.132 679.652 591.904 680.024 591.676C680.384 591.916 680.708 592.144 680.984 592.384L681.452 591.916C681.188 591.7 680.888 591.496 680.552 591.292C680.792 591.088 681.044 590.848 681.284 590.584L680.768 590.26C680.54 590.512 680.288 590.74 680 590.944C679.688 590.752 679.34 590.56 678.98 590.368ZM694.544 589.648V592.372H693.488V589.648H694.544ZM695.264 592.372V589.648H696.284V592.372H695.264ZM697.04 588.856H692.72V595.444C692.72 596.128 693.044 596.476 693.704 596.476H696.296C696.752 596.452 697.064 596.236 697.208 595.804C697.304 595.516 697.388 595.048 697.436 594.388L696.656 594.124C696.608 594.784 696.56 595.204 696.5 595.372C696.416 595.564 696.272 595.672 696.056 595.684H694.016C693.656 595.684 693.488 595.516 693.488 595.18V593.164H697.04V588.856ZM691.76 588.184C690.704 588.64 689.252 588.952 687.404 589.12V593.116C687.368 595.192 687.068 596.98 686.492 598.492L687.092 599.116C687.764 597.46 688.124 595.456 688.16 593.116V589.852C688.496 589.804 688.832 589.768 689.168 589.72V599.02H689.96V589.576C690.272 589.504 690.56 589.432 690.848 589.36C690.86 592.792 690.944 594.88 691.1 595.624C691.292 596.584 691.64 597.304 692.156 597.808C693.08 598.636 694.748 599.068 697.172 599.104L697.496 598.3C695.24 598.3 693.692 597.964 692.852 597.316C692.156 596.824 691.772 595.792 691.712 594.232C691.652 592.36 691.628 590.656 691.628 589.12C691.868 589.036 692.108 588.94 692.336 588.844L691.76 588.184Z" fill="#333333"/>
<path d="M500.952 685.16C499.896 686.312 498.3 687.08 496.164 687.488L496.668 688.28C497.952 687.992 499.056 687.572 499.992 687.02H503.496C502.824 688.004 501.852 688.76 500.604 689.264C500.22 688.784 499.812 688.352 499.38 687.944L498.624 688.304C499.032 688.676 499.428 689.096 499.8 689.552C498.936 689.804 497.976 689.96 496.896 690.032L497.268 690.812C500.772 690.536 503.184 689.24 504.48 686.936V686.252H501.036C501.276 686.036 501.504 685.808 501.72 685.568L500.952 685.16ZM500.496 692.66L499.728 693.02C500.172 693.452 500.592 693.944 501 694.484C499.644 694.94 498.024 695.168 496.152 695.18L496.5 696.008C501.156 695.9 504.324 694.436 506.028 691.604V690.92H502.74C503.076 690.668 503.376 690.392 503.664 690.104L502.92 689.696C501.672 691.016 499.74 691.82 497.124 692.084L497.64 692.852C499.092 692.6 500.34 692.216 501.396 691.712H504.948C504.18 692.768 503.136 693.596 501.804 694.172C501.396 693.632 500.952 693.128 500.496 692.66ZM513.432 685.22H512.556C512.556 685.676 512.544 686.312 512.532 687.128C512.424 690.584 510.72 693.332 507.42 695.36L507.948 696.128C510.612 694.412 512.316 692.252 513.036 689.636C513.888 692.348 515.544 694.508 517.992 696.116L518.556 695.36C515.76 693.644 514.02 691.148 513.348 687.884C513.396 687.14 513.432 686.252 513.432 685.22ZM520.08 690.008V690.704H523.02C522.144 691.316 520.98 691.844 519.528 692.288L520.032 692.912C521.052 692.576 521.964 692.18 522.756 691.7L522.912 692.168C523.572 692.168 524.196 692.144 524.772 692.096V692.708H521.532V693.356H524.772V693.992H520.296V694.652H524.772V695.06C524.772 695.348 524.616 695.492 524.328 695.492C523.896 695.492 523.428 695.468 522.948 695.432L523.116 696.176H524.604C525.252 696.176 525.576 695.864 525.576 695.252V694.652H529.656V693.992H525.576V693.356H528.42V692.708H525.576V692.012C526.104 691.94 526.584 691.844 527.016 691.724L526.668 691.124C525.684 691.388 524.46 691.532 522.996 691.556C523.404 691.292 523.776 691.004 524.112 690.704H526.512C527.22 691.616 528.42 692.372 530.1 692.948L530.448 692.216C529.08 691.844 528.06 691.34 527.388 690.704H529.968V690.008H524.76C524.88 689.852 524.988 689.684 525.108 689.516L524.364 689.384C524.208 689.6 524.028 689.804 523.836 690.008H520.08ZM520.104 686.084V686.78H521.532C521.172 687.464 520.596 688.088 519.828 688.64L520.152 689.432C520.74 688.904 521.22 688.304 521.604 687.656V689.576H522.348V687.92C522.576 688.124 522.852 688.4 523.164 688.736L523.572 688.124C523.164 687.788 522.756 687.476 522.348 687.2V686.78H523.284V686.084H522.348V685.256H521.604V686.084H520.104ZM526.716 686.084V686.78H527.76C527.472 687.404 527.016 687.956 526.38 688.46L526.692 689.228C527.136 688.772 527.508 688.256 527.796 687.704V689.564H528.54V687.872C528.876 688.184 529.296 688.592 529.776 689.108L530.208 688.46C529.644 687.956 529.092 687.512 528.54 687.116V686.78H529.884V686.084H528.54V685.232H527.796V686.084H526.716ZM524.1 685.208L523.656 685.652C524.004 685.844 524.328 686.048 524.64 686.24C524.34 686.432 524.016 686.588 523.656 686.732L524.004 687.296C524.46 687.068 524.844 686.84 525.18 686.6C525.468 686.804 525.732 687.008 525.972 687.2L526.44 686.732C526.212 686.54 525.96 686.36 525.696 686.18C525.924 685.964 526.164 685.7 526.416 685.388L525.9 685.064C525.684 685.34 525.432 685.592 525.168 685.832C524.832 685.628 524.484 685.424 524.1 685.208ZM523.98 687.368L523.536 687.788C523.848 687.956 524.16 688.136 524.448 688.304C524.112 688.508 523.728 688.676 523.32 688.808L523.668 689.372C524.196 689.132 524.652 688.904 525.024 688.676C525.384 688.916 525.708 689.144 525.984 689.384L526.452 688.916C526.188 688.7 525.888 688.496 525.552 688.292C525.792 688.088 526.044 687.848 526.284 687.584L525.768 687.26C525.54 687.512 525.288 687.74 525 687.944C524.688 687.752 524.34 687.56 523.98 687.368ZM539.544 686.648V689.372H538.488V686.648H539.544ZM540.264 689.372V686.648H541.284V689.372H540.264ZM542.04 685.856H537.72V692.444C537.72 693.128 538.044 693.476 538.704 693.476H541.296C541.752 693.452 542.064 693.236 542.208 692.804C542.304 692.516 542.388 692.048 542.436 691.388L541.656 691.124C541.608 691.784 541.56 692.204 541.5 692.372C541.416 692.564 541.272 692.672 541.056 692.684H539.016C538.656 692.684 538.488 692.516 538.488 692.18V690.164H542.04V685.856ZM536.76 685.184C535.704 685.64 534.252 685.952 532.404 686.12V690.116C532.368 692.192 532.068 693.98 531.492 695.492L532.092 696.116C532.764 694.46 533.124 692.456 533.16 690.116V686.852C533.496 686.804 533.832 686.768 534.168 686.72V696.02H534.96V686.576C535.272 686.504 535.56 686.432 535.848 686.36C535.86 689.792 535.944 691.88 536.1 692.624C536.292 693.584 536.64 694.304 537.156 694.808C538.08 695.636 539.748 696.068 542.172 696.104L542.496 695.3C540.24 695.3 538.692 694.964 537.852 694.316C537.156 693.824 536.772 692.792 536.712 691.232C536.652 689.36 536.628 687.656 536.628 686.12C536.868 686.036 537.108 685.94 537.336 685.844L536.76 685.184ZM505.2 702.076C504.672 702.844 504.264 703.672 503.964 704.548C503.604 705.58 503.436 706.624 503.436 707.692C503.436 708.736 503.604 709.78 503.964 710.812C504.264 711.676 504.672 712.504 505.2 713.284H506.04C505.56 712.48 505.176 711.652 504.9 710.8C504.54 709.744 504.372 708.7 504.372 707.68C504.372 706.648 504.54 705.616 504.9 704.56C505.176 703.696 505.56 702.868 506.04 702.076H505.2ZM510.72 703.264C509.856 703.264 509.148 703.552 508.62 704.128C508.092 704.692 507.816 705.46 507.816 706.42H508.8C508.812 705.664 508.992 705.088 509.328 704.704C509.64 704.296 510.096 704.104 510.684 704.104C511.236 704.104 511.68 704.248 511.992 704.536C512.304 704.824 512.46 705.22 512.46 705.748C512.46 706.3 512.232 706.816 511.8 707.284C511.572 707.524 511.128 707.872 510.456 708.352C509.544 708.976 508.932 709.492 508.596 709.876C508.02 710.512 507.744 711.22 507.744 712H513.456V711.124H508.956C509.112 710.548 509.736 709.888 510.828 709.156C511.716 708.556 512.304 708.088 512.604 707.776C513.156 707.176 513.444 706.504 513.444 705.76C513.444 705.016 513.18 704.404 512.676 703.948C512.16 703.492 511.512 703.264 510.72 703.264ZM520.627 702.22H519.751C519.751 702.676 519.739 703.312 519.727 704.128C519.619 707.584 517.915 710.332 514.615 712.36L515.143 713.128C517.807 711.412 519.511 709.252 520.231 706.636C521.083 709.348 522.739 711.508 525.187 713.116L525.751 712.36C522.955 710.644 521.215 708.148 520.543 704.884C520.591 704.14 520.627 703.252 520.627 702.22ZM530.719 703.504L529.999 703.948C531.055 705.184 531.883 706.3 532.495 707.308L533.227 706.804C532.651 705.868 531.811 704.764 530.719 703.504ZM534.847 709.384C535.759 710.644 536.491 711.832 537.055 712.96L537.715 712.3C537.043 711.052 536.215 709.804 535.231 708.556C535.303 708.376 535.363 708.196 535.423 708.016C535.927 706.432 536.179 704.512 536.179 702.232H535.279C535.267 704.548 535.015 706.456 534.511 707.956C533.851 709.732 532.495 711.196 530.455 712.372L531.031 713.08C532.783 712.072 534.055 710.836 534.847 709.384ZM527.743 711.832C529.147 711.316 530.467 710.704 531.691 709.996L531.451 709.156C530.527 709.708 529.603 710.176 528.667 710.56V702.544H527.779V710.356C527.779 710.632 527.671 710.848 527.455 711.016L527.743 711.832ZM543.187 702.196V711.88H538.867V712.72H549.547V711.88H544.075V706.744H548.527V705.904H544.075V702.196H543.187ZM551.155 702.076C551.635 702.868 552.007 703.696 552.295 704.56C552.643 705.616 552.823 706.648 552.823 707.68C552.823 708.7 552.643 709.744 552.295 710.8C552.007 711.652 551.635 712.48 551.155 713.284H551.995C552.511 712.504 552.919 711.676 553.231 710.812C553.579 709.78 553.759 708.736 553.759 707.692C553.759 706.624 553.579 705.58 553.231 704.548C552.919 703.672 552.511 702.844 551.995 702.076H551.155Z" fill="#333333"/>
<path d="M1218.13 226.304V236.072H1233.9V226.304H1218.13ZM1232.22 234.464H1219.86V231.992H1232.22V234.464ZM1219.86 230.432V227.912H1232.22V230.432H1219.86ZM1222.59 237.248V245.12H1215.44V246.8H1236.56V245.12H1229.36V237.248H1227.63V245.12H1224.32V237.248H1222.59ZM1233.99 237.656C1233.18 239.72 1232.17 241.472 1231.02 242.96L1232.36 243.896C1233.56 242.36 1234.62 240.536 1235.53 238.4L1233.99 237.656ZM1217.94 238.016L1216.52 238.904C1217.77 240.728 1218.78 242.36 1219.5 243.824L1220.86 242.864C1220.19 241.496 1219.21 239.888 1217.94 238.016ZM1248.73 247.112C1250.22 247.112 1250.96 246.368 1250.96 244.928V234.512H1260.22V232.808H1239.78V234.512H1249.21V244.496C1249.21 245.168 1248.85 245.528 1248.13 245.528C1247.22 245.528 1246.28 245.48 1245.27 245.432L1245.63 247.112H1248.73ZM1243.47 237.152C1242.63 240.08 1241.29 242.744 1239.44 245.144L1240.95 246.08C1242.78 243.68 1244.17 240.824 1245.18 237.512L1243.47 237.152ZM1256.14 236.912L1254.58 237.44C1256.12 239.888 1257.54 242.696 1258.83 245.888L1260.42 245.168C1259.22 242.24 1257.78 239.504 1256.14 236.912ZM1241.98 226.712V228.392H1258.09V226.712H1241.98Z" fill="#333333"/>
<path d="M1219.5 123.064V126.64H1217.12C1217.72 125.104 1218.27 123.352 1218.8 121.384H1223.43V119.752H1219.21C1219.42 118.792 1219.64 117.76 1219.86 116.68L1218.27 116.32C1218.06 117.52 1217.84 118.648 1217.6 119.752H1215.22V121.384H1217.22C1216.66 123.52 1216.06 125.32 1215.39 126.76L1215.75 128.2H1219.5V131.776C1218.1 132.04 1216.62 132.28 1215.03 132.472L1215.25 134.152C1216.71 133.936 1218.13 133.696 1219.5 133.432V138.4H1221.1V133.072L1223.38 132.496V130.864C1222.66 131.056 1221.92 131.248 1221.1 131.44V128.2H1223.31V126.64H1221.1V123.064H1219.5ZM1226.58 121.84V123.256H1233.46V121.816H1226.6C1227.8 120.664 1228.95 119.392 1230.1 118C1231.93 120.352 1233.97 122.344 1236.22 123.976L1237.14 122.608C1234.95 121.072 1232.82 119.032 1230.73 116.44H1229.48C1227.54 118.84 1225.33 120.952 1222.88 122.752L1223.82 124.192C1224.75 123.472 1225.66 122.68 1226.58 121.84ZM1228.26 138.232C1229.43 138.232 1230.03 137.608 1230.03 136.384V125.176H1224.37V138.4H1225.88V133.912H1228.57V136.072C1228.57 136.6 1228.3 136.864 1227.78 136.864L1226.72 136.816L1227.1 138.232H1228.26ZM1225.88 132.568V130.288H1228.57V132.568H1225.88ZM1225.88 128.944V126.568H1228.57V128.944H1225.88ZM1231.47 125.848V134.464H1232.82V125.848H1231.47ZM1234.09 138.28C1235.24 138.28 1235.84 137.584 1235.84 136.216V124.768H1234.33V135.832C1234.33 136.504 1234.06 136.864 1233.56 136.864C1232.96 136.864 1232.34 136.816 1231.69 136.768L1232.05 138.28H1234.09ZM1248.94 121.96C1247.41 128.344 1244.07 133.24 1238.94 136.6L1239.97 138.064C1245.01 134.8 1248.32 130.096 1249.9 123.976C1250.02 124.264 1250.14 124.6 1250.29 124.984C1252.76 131.32 1255.93 135.688 1259.82 138.04L1260.9 136.648C1257.1 134.272 1254.1 130.216 1251.85 124.48C1250.36 120.592 1248.56 117.88 1246.42 116.392L1244.98 117.304C1246.52 118.408 1247.84 119.944 1248.94 121.96Z" fill="#333333"/>
<path d="M1233.49 353.696H1218.61V364.4H1220.36V363.296H1231.74V364.4H1233.49V353.696ZM1220.36 361.76V359.264H1231.74V361.76H1220.36ZM1220.36 357.776V355.232H1231.74V357.776H1220.36ZM1216.54 344.744V346.328H1220.29C1220.77 347.504 1221.22 348.776 1221.61 350.168H1215.42V351.776H1236.58V350.168H1230.2C1230.82 348.944 1231.3 347.672 1231.66 346.328H1235.48V344.744H1227.01C1226.67 343.784 1226.31 342.944 1225.93 342.2L1224.1 342.488C1224.51 343.16 1224.9 343.928 1225.26 344.744H1216.54ZM1222.11 346.328H1229.94C1229.65 347.672 1229.17 348.944 1228.52 350.168H1223.34C1222.95 348.776 1222.54 347.48 1222.11 346.328ZM1242.44 347.696C1241.46 349.832 1240.28 351.656 1238.94 353.168L1240.33 354.176C1241.7 352.544 1242.9 350.648 1243.93 348.44L1242.44 347.696ZM1248.75 352.16L1249.88 351.008C1248.61 349.472 1247.5 348.32 1246.54 347.552L1245.49 348.584C1246.57 349.592 1247.65 350.768 1248.75 352.16ZM1242.34 353.6L1241.26 354.824C1242.27 355.64 1243.3 356.552 1244.31 357.56C1242.9 359.744 1241.07 361.448 1238.84 362.672L1239.9 364.208C1242.2 362.888 1244.07 361.088 1245.56 358.832C1246.38 359.696 1247.24 360.632 1248.1 361.664L1249.33 360.296C1248.42 359.24 1247.46 358.232 1246.45 357.248C1247.1 356 1247.65 354.608 1248.08 353.12L1246.59 352.496C1246.21 353.744 1245.73 354.92 1245.18 356.024C1244.26 355.184 1243.33 354.368 1242.34 353.6ZM1244.82 342.224L1243.02 342.512C1243.45 343.256 1243.86 344.072 1244.22 344.936H1239.3V346.592H1250.41V344.936H1245.9C1245.54 343.928 1245.18 343.04 1244.82 342.224ZM1253.58 347.96H1257.15C1257.06 351.008 1256.41 353.696 1255.26 356.048C1254.34 354.224 1253.6 352.088 1253.02 349.64C1253.22 349.112 1253.38 348.536 1253.58 347.96ZM1254.32 357.68C1252.9 359.816 1250.91 361.544 1248.37 362.888L1249.35 364.448C1251.75 363.08 1253.72 361.352 1255.23 359.288C1256.58 361.448 1258.21 363.152 1260.13 364.376L1261.14 362.864C1259.22 361.688 1257.56 359.984 1256.19 357.776C1257.75 355.04 1258.59 351.776 1258.74 347.96H1260.78V346.28H1254.03C1254.3 345.128 1254.54 343.904 1254.73 342.56L1253 342.272C1252.42 346.76 1251.27 350.312 1249.59 352.952L1250.7 354.272C1251.18 353.552 1251.66 352.784 1252.09 351.92C1252.69 354.032 1253.43 355.952 1254.32 357.68Z" fill="#333333"/>
<path d="M1226.5 486.896C1225.42 488.576 1223.74 489.992 1221.46 491.096L1222.35 492.584C1224.94 491.072 1226.82 489.176 1227.99 486.896H1228.47V493.328H1230.13V486.896H1230.56C1231.62 488.96 1233.44 490.832 1235.98 492.512L1237.11 491.12C1234.76 489.872 1233.06 488.48 1232 486.896H1236.42V485.336H1230.13V483.896H1228.47V485.336H1222.18V486.896H1226.5ZM1222.04 481.328C1221.27 481.736 1220.5 482.12 1219.74 482.48V477.656H1222.26V476H1219.74V471.488H1218.01V476H1215.32V477.656H1218.01V483.176C1217.07 483.512 1216.11 483.8 1215.1 484.04L1215.51 485.768C1216.35 485.504 1217.19 485.216 1218.01 484.88V490.784C1218.01 491.36 1217.72 491.648 1217.14 491.648C1216.62 491.648 1216.04 491.6 1215.46 491.528L1215.82 493.184H1217.74C1219.06 493.184 1219.74 492.512 1219.74 491.216V484.16C1220.5 483.824 1221.27 483.44 1222.04 483.032V481.328ZM1224.7 472.256V477.152H1233.9V472.256H1224.7ZM1232.31 475.784H1226.26V473.624H1232.31V475.784ZM1222.74 478.592V483.344H1228.59V478.592H1222.74ZM1227.18 482.096H1224.18V479.84H1227.18V482.096ZM1230.01 478.592V483.344H1235.91V478.592H1230.01ZM1234.5 482.096H1231.42V479.84H1234.5V482.096ZM1249.62 476.48H1250.91V493.424H1252.66V487.832H1259.82V486.176H1252.66V482.12H1259.67V480.44H1252.66V476.48H1260.73V474.776H1250.36C1250.74 473.792 1251.13 472.736 1251.51 471.632L1249.78 471.248C1248.44 475.304 1246.69 478.592 1244.58 481.088L1245.8 482.552C1247.24 480.824 1248.51 478.808 1249.62 476.48ZM1241.94 479.936V493.424H1243.71V477.344C1244.67 475.712 1245.49 473.96 1246.14 472.088L1244.5 471.32C1243.33 474.968 1241.43 478.184 1238.84 480.992L1239.42 482.816C1240.33 481.904 1241.17 480.944 1241.94 479.936Z" fill="#333333"/>
<path d="M496.716 332.676V336.804H500.568V337.764H496.5V338.532H500.568V339.54H495.804V340.32H506.196V339.54H501.432V338.532H505.5V337.764H501.432V336.804H505.296V332.676H496.716ZM504.468 336.072H501.396V333.42H504.468V336.072ZM500.604 336.072H497.544V333.42H500.604V336.072ZM496.968 340.812C496.656 341.664 496.308 342.372 495.9 342.924L496.692 343.2C497.112 342.576 497.46 341.856 497.724 341.016L496.968 340.812ZM499.728 340.932L498.96 341.1C499.2 341.7 499.392 342.408 499.56 343.2L500.4 343.008C500.196 342.264 499.968 341.568 499.728 340.932ZM502.236 340.884L501.468 341.052C501.804 341.664 502.08 342.372 502.32 343.176L503.148 342.984C502.884 342.24 502.584 341.532 502.236 340.884ZM504.648 340.74L504 341.148C504.6 341.904 505.08 342.588 505.44 343.2L506.124 342.72C505.788 342.156 505.296 341.496 504.648 340.74ZM498.996 333.804L498.3 334.032C498.612 334.572 498.876 335.136 499.092 335.712L499.8 335.52C499.56 334.872 499.296 334.308 498.996 333.804ZM502.92 333.744C502.692 334.428 502.428 334.992 502.116 335.448L502.812 335.7C503.148 335.196 503.424 334.608 503.64 333.936L502.92 333.744ZM517.668 337.92H512.52V343.26H513.36V342.672H516.84V343.236H517.668V337.92ZM513.36 341.904V340.692H516.84V341.904H513.36ZM513.36 339.948V338.688H516.84V339.948H513.36ZM515.052 332.112L514.164 332.256C514.344 332.592 514.512 332.952 514.668 333.36H512.112V334.176H513.036L513.516 336.18H511.812V336.996H518.352V336.18H516.636C516.876 335.544 517.068 334.872 517.2 334.176H518.172V333.36H515.508C515.364 332.892 515.22 332.472 515.052 332.112ZM514.332 336.18L513.84 334.176H516.408C516.288 334.884 516.084 335.556 515.808 336.18H514.332ZM511.188 333.012H507.972V342.036H508.812V341.136H510.36V341.784H511.188V333.012ZM508.812 340.32V337.5H510.36V340.32H508.812ZM508.812 336.684V333.816H510.36V336.684H508.812ZM529.2 332.076C528.672 332.844 528.264 333.672 527.964 334.548C527.604 335.58 527.436 336.624 527.436 337.692C527.436 338.736 527.604 339.78 527.964 340.812C528.264 341.676 528.672 342.504 529.2 343.284H530.04C529.56 342.48 529.176 341.652 528.9 340.8C528.54 339.744 528.372 338.7 528.372 337.68C528.372 336.648 528.54 335.616 528.9 334.56C529.176 333.696 529.56 332.868 530.04 332.076H529.2ZM539.304 338.016V339.624H537.012C537.048 339.324 537.072 339 537.084 338.652V338.016H539.304ZM539.304 340.416V343.104H540.132V340.416H542.34V339.624H540.132V338.016H541.872V337.224H539.916C540.216 336.864 540.492 336.468 540.744 336.036L539.916 335.748C539.652 336.276 539.34 336.768 538.992 337.224H537.12C536.856 336.72 536.568 336.252 536.28 335.82L535.548 336.168C535.776 336.48 536.004 336.84 536.232 337.224H534.288V338.016H536.232V338.652C536.22 338.988 536.196 339.312 536.16 339.624H533.856V340.416H535.98C535.908 340.644 535.824 340.86 535.728 341.064C535.392 341.664 534.804 342.132 533.952 342.492L534.432 343.248C535.356 342.864 536.016 342.324 536.424 341.628C536.616 341.28 536.76 340.872 536.88 340.416H539.304ZM540.876 333.432V334.668H533.616V333.432H540.876ZM533.616 335.484H541.716V332.616H532.764V336.612C532.752 339.024 532.356 340.992 531.564 342.528L532.308 343.176C533.172 341.352 533.604 339.156 533.616 336.612V335.484ZM548.616 339.396V340.236H546C546.636 339.864 547.164 339.444 547.584 338.988H550.692C551.052 339.444 551.556 339.852 552.204 340.236H549.432V339.396H548.616ZM548.616 340.896V343.2H549.432V340.896H551.904V341.784C551.904 342.072 551.748 342.216 551.436 342.216L550.584 342.192L550.764 342.912H551.676C552.372 342.912 552.72 342.588 552.72 341.964V340.512C553.128 340.716 553.608 340.908 554.16 341.1L554.508 340.38C553.212 340.044 552.228 339.576 551.568 338.988H554.16V338.268H548.112C548.232 338.064 548.328 337.86 548.412 337.644H552.852V334.464H551.46V333.696H554.316V332.988H551.46V332.184H550.632V332.988H547.38V332.184H546.552V332.988H543.696V333.696H546.552V334.464H545.16V337.644H547.608C547.512 337.86 547.392 338.064 547.248 338.268H543.84V338.988H546.552C545.844 339.564 544.836 340.044 543.54 340.452L543.912 341.172C544.488 340.968 545.028 340.74 545.532 340.488V342.9H546.348V340.896H548.616ZM550.632 333.696V334.464H547.38V333.696H550.632ZM552.036 337.044H545.976V336.324H552.036V337.044ZM545.976 335.76V335.088H552.036V335.76H545.976ZM555.96 332.076C556.44 332.868 556.812 333.696 557.1 334.56C557.448 335.616 557.628 336.648 557.628 337.68C557.628 338.7 557.448 339.744 557.1 340.8C556.812 341.652 556.44 342.48 555.96 343.284H556.8C557.316 342.504 557.724 341.676 558.036 340.812C558.384 339.78 558.564 338.736 558.564 337.692C558.564 336.624 558.384 335.58 558.036 334.548C557.724 333.672 557.316 332.844 556.8 332.076H555.96Z" fill="#333333"/>
<path d="M500.028 824.656H504.636C504.18 826.204 503.424 827.584 502.344 828.808C501.528 828.088 500.556 827.356 499.416 826.624L498.804 827.212C499.992 827.992 500.964 828.736 501.732 829.444C500.484 830.656 498.852 831.664 496.86 832.456L497.364 833.236C501.768 831.448 504.492 828.568 505.524 824.608V823.816H500.496C500.76 823.312 500.976 822.796 501.156 822.244L500.292 822.136C499.56 824.236 498.156 826.012 496.068 827.452L496.62 828.172C498.048 827.152 499.188 825.976 500.028 824.656ZM508.044 822.688V833.236H508.884V823.492H511.044C510.72 824.5 510.264 825.64 509.688 826.9C510.54 827.896 510.972 828.796 510.972 829.6C510.972 829.864 510.888 830.044 510.744 830.152C510.588 830.26 510.276 830.332 509.808 830.356C509.688 830.356 509.532 830.332 509.352 830.308L509.628 831.172C510.492 831.16 511.104 831.016 511.464 830.728C511.704 830.488 511.836 830.116 511.836 829.6C511.764 828.76 511.344 827.812 510.552 826.768C511.08 825.592 511.536 824.452 511.92 823.36V822.688H508.044ZM518.004 822.868H512.616V833.14H513.456V832.228H517.164V833.164H518.004V822.868ZM513.456 831.4V827.92H517.164V831.4H513.456ZM513.456 827.104V823.708H517.164V827.104H513.456ZM529.2 822.076C528.672 822.844 528.264 823.672 527.964 824.548C527.604 825.58 527.436 826.624 527.436 827.692C527.436 828.736 527.604 829.78 527.964 830.812C528.264 831.676 528.672 832.504 529.2 833.284H530.04C529.56 832.48 529.176 831.652 528.9 830.8C528.54 829.744 528.372 828.7 528.372 827.68C528.372 826.648 528.54 825.616 528.9 824.56C529.176 823.696 529.56 822.868 530.04 822.076H529.2ZM539.304 828.016V829.624H537.012C537.048 829.324 537.072 829 537.084 828.652V828.016H539.304ZM539.304 830.416V833.104H540.132V830.416H542.34V829.624H540.132V828.016H541.872V827.224H539.916C540.216 826.864 540.492 826.468 540.744 826.036L539.916 825.748C539.652 826.276 539.34 826.768 538.992 827.224H537.12C536.856 826.72 536.568 826.252 536.28 825.82L535.548 826.168C535.776 826.48 536.004 826.84 536.232 827.224H534.288V828.016H536.232V828.652C536.22 828.988 536.196 829.312 536.16 829.624H533.856V830.416H535.98C535.908 830.644 535.824 830.86 535.728 831.064C535.392 831.664 534.804 832.132 533.952 832.492L534.432 833.248C535.356 832.864 536.016 832.324 536.424 831.628C536.616 831.28 536.76 830.872 536.88 830.416H539.304ZM540.876 823.432V824.668H533.616V823.432H540.876ZM533.616 825.484H541.716V822.616H532.764V826.612C532.752 829.024 532.356 830.992 531.564 832.528L532.308 833.176C533.172 831.352 533.604 829.156 533.616 826.612V825.484ZM548.616 829.396V830.236H546C546.636 829.864 547.164 829.444 547.584 828.988H550.692C551.052 829.444 551.556 829.852 552.204 830.236H549.432V829.396H548.616ZM548.616 830.896V833.2H549.432V830.896H551.904V831.784C551.904 832.072 551.748 832.216 551.436 832.216L550.584 832.192L550.764 832.912H551.676C552.372 832.912 552.72 832.588 552.72 831.964V830.512C553.128 830.716 553.608 830.908 554.16 831.1L554.508 830.38C553.212 830.044 552.228 829.576 551.568 828.988H554.16V828.268H548.112C548.232 828.064 548.328 827.86 548.412 827.644H552.852V824.464H551.46V823.696H554.316V822.988H551.46V822.184H550.632V822.988H547.38V822.184H546.552V822.988H543.696V823.696H546.552V824.464H545.16V827.644H547.608C547.512 827.86 547.392 828.064 547.248 828.268H543.84V828.988H546.552C545.844 829.564 544.836 830.044 543.54 830.452L543.912 831.172C544.488 830.968 545.028 830.74 545.532 830.488V832.9H546.348V830.896H548.616ZM550.632 823.696V824.464H547.38V823.696H550.632ZM552.036 827.044H545.976V826.324H552.036V827.044ZM545.976 825.76V825.088H552.036V825.76H545.976ZM555.96 822.076C556.44 822.868 556.812 823.696 557.1 824.56C557.448 825.616 557.628 826.648 557.628 827.68C557.628 828.7 557.448 829.744 557.1 830.8C556.812 831.652 556.44 832.48 555.96 833.284H556.8C557.316 832.504 557.724 831.676 558.036 830.812C558.384 829.78 558.564 828.736 558.564 827.692C558.564 826.624 558.384 825.58 558.036 824.548C557.724 823.672 557.316 822.844 556.8 822.076H555.96Z" fill="black"/>
<path d="M950.568 592.244V597.344H948.984V602.756H949.812V601.868H953.268V597.344H951.408V595.112H953.808V594.32H951.408V592.244H950.568ZM949.812 601.076V598.136H952.44V601.076H949.812ZM959.124 594.872L955.908 595.46C955.836 594.524 955.8 593.444 955.8 592.232H954.96C954.96 593.48 954.996 594.596 955.068 595.604L953.352 595.916L953.484 596.708L955.14 596.408C955.212 597.26 955.332 598.004 955.488 598.652C955.608 599.192 955.74 599.696 955.896 600.152C955.032 601.04 954.06 601.712 952.968 602.18L953.46 602.84C954.432 602.444 955.356 601.82 956.22 600.98C956.376 601.34 956.556 601.664 956.748 601.94C957.252 602.66 957.72 603.02 958.176 603.02C958.716 603.02 959.136 602.204 959.424 600.572L958.716 600.188C958.524 601.436 958.296 602.06 958.032 602.072C957.828 602.072 957.552 601.784 957.216 601.208C957.072 600.968 956.94 600.68 956.808 600.356C957.564 599.48 958.272 598.412 958.92 597.152L958.248 596.696C957.744 597.74 957.168 598.664 956.52 599.456C956.424 599.144 956.34 598.796 956.268 598.424C956.148 597.848 956.04 597.116 955.968 596.252L959.244 595.664L959.124 594.872ZM957.144 592.472L956.532 592.856C957.12 593.492 957.576 594.068 957.912 594.596L958.548 594.152C958.212 593.672 957.744 593.12 957.144 592.472ZM960.66 596.072V596.9H965.568V601.736H961.14V602.576H970.884V601.736H966.456V596.9H971.34V596.072H966.456V592.196H965.568V596.072H960.66ZM973.332 592.604L972.6 593.06C973.368 594.08 973.968 595.004 974.424 595.844L975.144 595.34C974.712 594.56 974.112 593.648 973.332 592.604ZM974.472 597.584C973.944 599.276 973.32 600.932 972.612 602.552L973.428 602.912C974.1 601.34 974.712 599.672 975.264 597.896L974.472 597.584ZM979.104 592.244V594.332H976.068V599.792H976.908V599.18H979.104V603.224H979.992V599.18H982.212V599.792H983.052V594.332H979.992V592.244H979.104ZM976.908 598.376V595.148H979.104V598.376H976.908ZM979.992 598.376V595.148H982.212V598.376H979.992ZM985.212 596.624V596.756H986.304V598.232H984.66V599.036H986.304V601.772C986.304 601.94 986.184 602.06 985.956 602.132L986.316 602.876C987.204 602.672 987.984 602.408 988.656 602.096L988.5 601.328C988.044 601.556 987.588 601.736 987.144 601.88V599.036H988.776V598.232H987.144V596.756H988.452V595.976H985.524C985.74 595.472 985.944 594.944 986.124 594.368H988.404V593.552H986.364C986.46 593.168 986.544 592.772 986.64 592.34L985.812 592.16C985.536 593.636 985.092 594.98 984.492 596.204L985.2 596.648L985.212 596.624ZM989.34 597.656V598.424H991.812V599.396H989.664V600.152H991.812V601.148H988.944V601.928H991.812V603.26H992.64V601.928H995.472V601.148H992.64V600.152H994.8V599.396H992.64V598.424H995.1V597.656H992.64V596.744H991.812V597.656H989.34ZM990.96 592.136C990.384 593.168 989.64 594.008 988.728 594.644L989.256 595.292C989.604 595.028 989.94 594.74 990.252 594.428C990.564 594.86 990.984 595.244 991.488 595.604C990.732 595.94 989.82 596.204 988.764 596.42L989.148 597.128C990.348 596.84 991.368 596.48 992.208 596.036C993.036 596.468 994.068 596.804 995.316 597.032L995.616 596.3C994.608 596.12 993.732 595.88 992.988 595.568C993.768 595.028 994.332 594.392 994.692 593.672V593.024H991.38C991.524 592.796 991.656 592.568 991.788 592.328L990.96 592.136ZM992.244 595.208C991.596 594.848 991.092 594.416 990.732 593.912C990.768 593.864 990.816 593.804 990.876 593.732H993.804C993.444 594.296 992.928 594.788 992.244 595.208ZM996.816 593.168V593.96H1001.56V595.052H997.476V595.832H1006.55V595.052H1002.44V593.96H1007.17V593.168H1002.44V592.184H1001.56V593.168H996.816ZM1001.68 597.476V598.94H998.628C998.64 598.748 998.652 598.568 998.652 598.376V597.476H1001.68ZM1002.54 598.94V597.476H1005.47V598.94H1002.54ZM998.556 599.708H1006.31V596.708H997.8V598.376C997.788 600.116 997.368 601.532 996.54 602.636L997.248 603.272C997.944 602.24 998.376 601.052 998.556 599.708Z" fill="black"/>
<path d="M815.568 699.244V704.344H813.984V709.756H814.812V708.868H818.268V704.344H816.408V702.112H818.808V701.32H816.408V699.244H815.568ZM814.812 708.076V705.136H817.44V708.076H814.812ZM824.124 701.872L820.908 702.46C820.836 701.524 820.8 700.444 820.8 699.232H819.96C819.96 700.48 819.996 701.596 820.068 702.604L818.352 702.916L818.484 703.708L820.14 703.408C820.212 704.26 820.332 705.004 820.488 705.652C820.608 706.192 820.74 706.696 820.896 707.152C820.032 708.04 819.06 708.712 817.968 709.18L818.46 709.84C819.432 709.444 820.356 708.82 821.22 707.98C821.376 708.34 821.556 708.664 821.748 708.94C822.252 709.66 822.72 710.02 823.176 710.02C823.716 710.02 824.136 709.204 824.424 707.572L823.716 707.188C823.524 708.436 823.296 709.06 823.032 709.072C822.828 709.072 822.552 708.784 822.216 708.208C822.072 707.968 821.94 707.68 821.808 707.356C822.564 706.48 823.272 705.412 823.92 704.152L823.248 703.696C822.744 704.74 822.168 705.664 821.52 706.456C821.424 706.144 821.34 705.796 821.268 705.424C821.148 704.848 821.04 704.116 820.968 703.252L824.244 702.664L824.124 701.872ZM822.144 699.472L821.532 699.856C822.12 700.492 822.576 701.068 822.912 701.596L823.548 701.152C823.212 700.672 822.744 700.12 822.144 699.472ZM825.66 703.072V703.9H830.568V708.736H826.14V709.576H835.884V708.736H831.456V703.9H836.34V703.072H831.456V699.196H830.568V703.072H825.66ZM838.332 699.604L837.6 700.06C838.368 701.08 838.968 702.004 839.424 702.844L840.144 702.34C839.712 701.56 839.112 700.648 838.332 699.604ZM839.472 704.584C838.944 706.276 838.32 707.932 837.612 709.552L838.428 709.912C839.1 708.34 839.712 706.672 840.264 704.896L839.472 704.584ZM844.104 699.244V701.332H841.068V706.792H841.908V706.18H844.104V710.224H844.992V706.18H847.212V706.792H848.052V701.332H844.992V699.244H844.104ZM841.908 705.376V702.148H844.104V705.376H841.908ZM844.992 705.376V702.148H847.212V705.376H844.992ZM850.212 703.624V703.756H851.304V705.232H849.66V706.036H851.304V708.772C851.304 708.94 851.184 709.06 850.956 709.132L851.316 709.876C852.204 709.672 852.984 709.408 853.656 709.096L853.5 708.328C853.044 708.556 852.588 708.736 852.144 708.88V706.036H853.776V705.232H852.144V703.756H853.452V702.976H850.524C850.74 702.472 850.944 701.944 851.124 701.368H853.404V700.552H851.364C851.46 700.168 851.544 699.772 851.64 699.34L850.812 699.16C850.536 700.636 850.092 701.98 849.492 703.204L850.2 703.648L850.212 703.624ZM854.34 704.656V705.424H856.812V706.396H854.664V707.152H856.812V708.148H853.944V708.928H856.812V710.26H857.64V708.928H860.472V708.148H857.64V707.152H859.8V706.396H857.64V705.424H860.1V704.656H857.64V703.744H856.812V704.656H854.34ZM855.96 699.136C855.384 700.168 854.64 701.008 853.728 701.644L854.256 702.292C854.604 702.028 854.94 701.74 855.252 701.428C855.564 701.86 855.984 702.244 856.488 702.604C855.732 702.94 854.82 703.204 853.764 703.42L854.148 704.128C855.348 703.84 856.368 703.48 857.208 703.036C858.036 703.468 859.068 703.804 860.316 704.032L860.616 703.3C859.608 703.12 858.732 702.88 857.988 702.568C858.768 702.028 859.332 701.392 859.692 700.672V700.024H856.38C856.524 699.796 856.656 699.568 856.788 699.328L855.96 699.136ZM857.244 702.208C856.596 701.848 856.092 701.416 855.732 700.912C855.768 700.864 855.816 700.804 855.876 700.732H858.804C858.444 701.296 857.928 701.788 857.244 702.208ZM861.816 700.168V700.96H866.556V702.052H862.476V702.832H871.548V702.052H867.444V700.96H872.172V700.168H867.444V699.184H866.556V700.168H861.816ZM866.676 704.476V705.94H863.628C863.64 705.748 863.652 705.568 863.652 705.376V704.476H866.676ZM867.54 705.94V704.476H870.468V705.94H867.54ZM863.556 706.708H871.308V703.708H862.8V705.376C862.788 707.116 862.368 708.532 861.54 709.636L862.248 710.272C862.944 709.24 863.376 708.052 863.556 706.708Z" fill="black"/>
<path d="M632.5 479H611V597.5H632.5" stroke="black" stroke-width="3"/>
<rect x="337" y="213" width="72" height="216"/>
</svg>
