<svg width="1003" height="860" viewBox="0 0 1003 860" fill="none" xmlns="http://www.w3.org/2000/svg">
<rect width="1003" height="860" fill="white"/>
<path d="M222.5 140H632V491.5" stroke="black" stroke-width="3"/>
<path d="M635.5 578V597H500V704H635.5V729" stroke="black" stroke-width="3"/>
<path d="M728 533.5H867V411H702" stroke="black" stroke-width="3"/>
<rect x="64" y="113" width="156" height="58" rx="28" fill="#EB5757"/>
<rect x="557" y="729" width="156" height="58" rx="28" fill="#EB5757"/>
<path d="M919.44 505H824.714C819.179 505 812.804 509.483 809.16 512.969C805.517 516.456 796.704 529.019 797.008 534C797.311 538.981 804.169 549.011 807.508 552C810.848 554.989 820.09 562.779 824.714 562.779H919.44C947.508 562.779 946.508 505 919.44 505Z" fill="#F0F5FB"/>
<path d="M567.44 623H472.714C467.179 623 460.804 627.483 457.16 630.969C453.517 634.456 444.704 647.019 445.008 652C445.311 656.981 452.169 667.011 455.508 670C458.848 672.989 468.09 680.779 472.714 680.779H567.44C595.508 680.779 594.508 623 567.44 623Z" fill="#F0F5FB"/>
<rect x="304" y="105" width="161" height="66" fill="#F2C94C"/>
<rect x="554" y="245" width="161" height="66" fill="#F2C94C"/>
<path d="M131.344 137.916V138.756H133.528V141.516C133.528 141.636 133.516 141.78 133.516 141.936H130.696V142.764H133.468C133.372 143.724 133.204 144.54 132.952 145.236C132.568 146.148 131.884 146.88 130.912 147.432L131.38 148.176C132.436 147.624 133.192 146.844 133.648 145.836C134.008 145.02 134.236 144 134.344 142.764H137.812V148.08H138.688V142.764H141.316V141.936H138.688V138.756H140.692V137.916H131.344ZM134.416 138.756H137.812V141.936H134.404C134.404 141.804 134.416 141.66 134.416 141.516V138.756ZM143.968 137.148C143.872 137.952 143.764 138.732 143.644 139.488H142.54V140.316H143.5C143.284 141.528 143.032 142.656 142.744 143.7C143.296 144.228 143.812 144.732 144.292 145.224C143.836 146.136 143.26 146.904 142.552 147.552L143.092 148.236C143.812 147.564 144.4 146.772 144.88 145.86C145.348 146.364 145.744 146.844 146.08 147.288L146.656 146.616C146.296 146.136 145.828 145.608 145.264 145.02C145.84 143.604 146.176 141.936 146.272 139.992V139.488H144.496C144.604 138.792 144.712 138.036 144.82 137.22L143.968 137.148ZM144.652 144.396C144.34 144.084 144.016 143.772 143.668 143.448C143.908 142.62 144.136 141.576 144.364 140.316H145.456C145.372 141.84 145.108 143.196 144.652 144.396ZM152.608 143.1H147.28V148.212H148.108V147.492H151.78V148.212H152.608V143.1ZM148.108 146.676V143.892H151.78V146.676H148.108ZM146.812 142.02C148.768 141.9 150.544 141.72 152.14 141.492C152.284 141.792 152.416 142.104 152.56 142.428L153.364 142.044C152.788 140.784 152.164 139.632 151.504 138.576L150.76 138.936C151.108 139.488 151.444 140.1 151.78 140.76C150.568 140.952 149.284 141.096 147.94 141.18C148.66 140.256 149.368 139.02 150.088 137.46L149.272 137.184C148.24 139.536 147.376 140.88 146.68 141.24L146.812 142.02Z" fill="black"/>
<path d="M627.944 760.8C626.72 761.244 625.304 761.604 623.672 761.868L623.78 762.708C625.34 762.42 626.72 762.06 627.944 761.616V760.8ZM625.724 752.16C625.244 753.588 624.668 754.848 623.996 755.952C623.888 756.108 623.768 756.216 623.636 756.276L623.852 757.068C624.548 756.972 625.232 756.876 625.916 756.768C625.244 757.896 624.68 758.688 624.224 759.156C624.116 759.252 623.984 759.336 623.828 759.408L624.056 760.188C625.256 760.032 626.504 759.732 627.8 759.288V758.52C626.912 758.82 626.012 759.06 625.1 759.24C625.832 758.376 626.744 756.936 627.836 754.908L627.08 754.632C626.84 755.088 626.6 755.532 626.372 755.964C625.796 756.06 625.232 756.144 624.668 756.216C625.292 755.28 625.916 754.032 626.528 752.472L625.724 752.16ZM627.8 753.684V754.524H630.668V756.3H628.196V757.14H634.052V756.3H631.544V754.524H634.4V753.684H631.544V752.232H630.668V753.684H627.8ZM633.704 758.34H628.58V763.164H629.432V762.588H632.864V763.164H633.704V758.34ZM629.432 761.772V759.156H632.864V761.772H629.432ZM635.864 753.432V754.26H640.556V755.436H636.8V758.832H639.812C638.912 760.152 637.46 761.232 635.468 762.072L635.972 762.864C638.096 761.808 639.608 760.464 640.52 758.832H640.556V763.188H641.444V758.832H641.48C642.344 760.32 643.832 761.652 645.956 762.84L646.544 762.096C644.504 761.136 643.04 760.056 642.176 758.832H645.224V755.436H641.444V754.26H646.112V753.432H641.444V752.232H640.556V753.432H635.864ZM644.36 758.04H641.444V756.252H644.36V758.04ZM640.556 758.04H637.664V756.252H640.556V758.04Z" fill="black"/>
<path d="M584.536 272.388L583.948 272.952C584.8 273.636 585.472 274.272 585.952 274.86L586.576 274.248C586.024 273.624 585.34 273.012 584.536 272.388ZM591.508 282.984H594.256L594.46 282.12C594.148 282.144 593.692 282.156 593.116 282.168C592.528 282.18 591.952 282.192 591.388 282.192C590.464 282.192 589.684 282.18 589.06 282.168C588.364 282.144 587.824 282.048 587.464 281.88C587.128 281.724 586.828 281.472 586.54 281.124C586.444 281.016 586.348 280.92 586.252 280.848V276.36H583.732V277.152H585.448V280.8C584.956 281.016 584.392 281.628 583.756 282.636L584.404 283.224C585.064 282.12 585.532 281.568 585.82 281.568C585.964 281.568 586.12 281.664 586.276 281.868C586.648 282.3 587.068 282.6 587.536 282.744C588.016 282.876 588.628 282.948 589.396 282.96C590.152 282.972 590.86 282.984 591.508 282.984ZM587.404 274.092V274.896H588.82V275.844C588.82 276.348 588.784 276.828 588.724 277.284H586.984V278.1H588.568C588.304 279.228 587.788 280.068 587.032 280.608L587.548 281.304C588.472 280.608 589.096 279.54 589.408 278.1H591.544V281.544H592.384V278.1H594.292V277.284H592.384V274.896H593.908V274.092H592.384V272.196H591.544V274.092H589.648V272.184H588.82V274.092H587.404ZM589.648 274.896H591.544V277.284H589.552C589.612 276.78 589.648 276.228 589.648 275.652V274.896ZM600.472 274.98C599.704 278.172 598.036 280.62 595.468 282.3L595.984 283.032C598.504 281.4 600.16 279.048 600.952 275.988C601.012 276.132 601.072 276.3 601.144 276.492C602.38 279.66 603.964 281.844 605.908 283.02L606.448 282.324C604.552 281.136 603.052 279.108 601.924 276.24C601.18 274.296 600.28 272.94 599.212 272.196L598.492 272.652C599.26 273.204 599.92 273.972 600.472 274.98ZM611.596 272.688V273.48H613.948L613.66 274.812H611.884V275.592H613.492L613.156 277.176H611.284V277.98H618.532V277.176H617.404V274.812H614.524L614.812 273.48H618.16V272.688H611.596ZM614.02 277.176L614.356 275.592H616.54V277.176H614.02ZM617.74 279.072H612.196V283.224H613.048V282.648H616.888V283.224H617.74V279.072ZM613.048 281.832V279.864H616.888V281.832H613.048ZM608.992 272.364L608.392 272.952C609.22 273.576 609.868 274.152 610.348 274.704L610.948 274.116C610.42 273.528 609.76 272.94 608.992 272.364ZM607.504 275.868V276.696H609.268V281.484C609.268 281.676 609.172 281.844 609.004 282L609.34 282.768C610.132 282.228 610.864 281.616 611.56 280.92L611.332 280.008C610.888 280.452 610.48 280.848 610.096 281.184V275.868H607.504ZM628.744 277.848H621.304V283.2H622.18V282.648H627.868V283.2H628.744V277.848ZM622.18 281.88V280.632H627.868V281.88H622.18ZM622.18 279.888V278.616H627.868V279.888H622.18ZM620.272 273.372V274.164H622.144C622.384 274.752 622.612 275.388 622.804 276.084H619.708V276.888H630.292V276.084H627.1C627.412 275.472 627.652 274.836 627.832 274.164H629.74V273.372H625.504C625.336 272.892 625.156 272.472 624.964 272.1L624.052 272.244C624.256 272.58 624.448 272.964 624.628 273.372H620.272ZM623.056 274.164H626.968C626.824 274.836 626.584 275.472 626.26 276.084H623.668C623.476 275.388 623.272 274.74 623.056 274.164ZM636.232 272.916V278.52H641.752V272.916H636.232ZM640.888 277.68H637.096V273.744H640.888V277.68ZM632.968 272.316L632.368 272.904C633.22 273.552 633.892 274.164 634.384 274.74L634.972 274.14C634.42 273.528 633.76 272.916 632.968 272.316ZM631.528 275.868V276.696H633.268V281.472C633.268 281.664 633.184 281.832 633.016 281.976L633.352 282.744C634.132 282.204 634.864 281.592 635.56 280.896L635.332 279.984C634.888 280.428 634.48 280.824 634.096 281.16V275.868H631.528ZM637.516 279.24C636.94 280.584 636.232 281.748 635.404 282.708L636.16 283.26C636.976 282.228 637.684 281.016 638.284 279.612L637.516 279.24ZM640.396 279.204L639.7 279.648C640.6 280.944 641.308 282.132 641.836 283.212L642.58 282.696C642.076 281.7 641.344 280.536 640.396 279.204ZM646.072 276.492C646.048 277.02 646 277.5 645.952 277.956H643.708V278.76H645.844C645.736 279.336 645.604 279.828 645.436 280.212C645.052 281.1 644.392 281.856 643.468 282.492L644.02 283.176C645.04 282.444 645.772 281.568 646.216 280.56C646.408 280.104 646.564 279.504 646.696 278.76H648.532C648.508 280.284 648.472 281.196 648.4 281.496C648.304 282.012 647.944 282.276 647.344 282.276C647.092 282.276 646.792 282.252 646.444 282.228L646.648 282.996C647.032 283.02 647.296 283.032 647.464 283.032C648.508 283.032 649.084 282.624 649.204 281.832C649.324 281.328 649.384 280.044 649.384 277.956H646.804C646.852 277.5 646.888 277.02 646.912 276.492H649.264V272.676H644.164V276.492H646.072ZM650.62 273.252V280.728H651.46V273.252H650.62ZM652.852 283.092C653.596 283.092 653.98 282.684 653.98 281.892V272.232H653.116V281.676C653.116 282.108 652.924 282.324 652.552 282.324C652.048 282.324 651.52 282.3 650.956 282.264L651.148 283.092H652.852ZM648.436 275.7H644.992V273.456H648.436V275.7ZM659.152 277.212C661.216 277.092 663.136 276.936 664.9 276.732C665.092 277.044 665.284 277.344 665.452 277.644L666.16 277.14C665.728 276.396 665.116 275.544 664.3 274.56L663.592 274.98C663.88 275.34 664.144 275.688 664.408 276.036C663.04 276.204 661.672 276.324 660.292 276.396C660.724 275.928 661.216 275.196 661.78 274.2H666.16V273.42H663.004C662.836 272.916 662.668 272.46 662.476 272.052L661.6 272.196C661.792 272.568 661.972 272.976 662.14 273.42H658.792V274.2H660.892C660.172 275.388 659.596 276.12 659.14 276.408C659.092 276.432 659.032 276.456 658.96 276.48L659.152 277.212ZM656.572 272.364L655.948 272.964C656.74 273.516 657.352 274.032 657.808 274.524L658.42 273.912C657.916 273.396 657.304 272.88 656.572 272.364ZM656.284 275.232L655.672 275.832C656.476 276.456 657.112 277.044 657.568 277.596L658.18 276.972C657.676 276.396 657.04 275.808 656.284 275.232ZM657.508 278.424C657.052 279.888 656.524 281.304 655.9 282.696L656.704 283.044C657.28 281.7 657.796 280.26 658.276 278.724L657.508 278.424ZM661.6 277.764V282.96H662.476V277.764H661.6ZM659.656 277.752C659.608 279.168 659.476 280.2 659.248 280.836C659.008 281.484 658.6 282.036 658.024 282.504L658.576 283.188C659.248 282.636 659.74 281.976 660.028 281.208C660.292 280.476 660.448 279.324 660.496 277.752H659.656ZM665.368 283.08C665.848 283.056 666.148 282.924 666.292 282.708C666.436 282.468 666.508 281.82 666.508 280.764L665.752 280.476C665.752 281.112 665.728 281.58 665.68 281.868C665.656 282.132 665.536 282.264 665.32 282.288H664.792C664.636 282.264 664.564 282.168 664.564 281.988V277.764H663.736V282.144C663.736 282.768 664.072 283.08 664.768 283.08H665.368ZM672.652 272.64V276.108H677.632V272.64H672.652ZM676.792 275.328H673.504V273.408H676.792V275.328ZM672.184 277.224V278.016H674.644V279.552H672.46V280.332H674.644V281.952H671.704V282.768H678.436V281.952H675.532V280.332H677.776V279.552H675.532V278.016H678.148V277.224H672.184ZM667.696 275.484V276.312H669.364C668.98 277.68 668.332 278.892 667.42 279.96L667.792 280.92C668.476 279.972 669.028 278.916 669.448 277.74V283.152H670.276V277.74C670.612 278.184 671.032 278.784 671.512 279.528L671.992 278.808C671.416 278.124 670.84 277.5 670.276 276.948V276.312H671.824V275.484H670.276V273.6C670.876 273.48 671.452 273.348 671.992 273.192L671.692 272.376C670.54 272.736 669.208 272.988 667.708 273.132L667.876 273.948C668.416 273.888 668.944 273.816 669.448 273.744V275.484H667.696Z" fill="black"/>
<path d="M716 381H584.5L550 438H681L716 381Z" fill="#BAD6F6"/>
<path d="M716 113H584.5L550 170H681L716 113Z" fill="#BAD6F6"/>
<path d="M635 489L728 533.5L635 578L542 533.5L635 489Z" fill="#2F80ED"/>
<path d="M616.56 400.172V401.468H613.968V402.272H616.56V403.724H613.464V404.564H620.424V403.724H617.448V402.272H620.04V401.468H617.448V400.172H616.56ZM613.32 406.004V406.832H618.024V409.844C618.024 410.204 617.844 410.396 617.484 410.396C617.088 410.396 616.68 410.372 616.248 410.336L616.428 411.188H617.784C618.528 411.188 618.912 410.816 618.912 410.072V406.832H620.544V406.004H618.912V405.032H618.024V406.004H613.32ZM615.12 407.252L614.46 407.66C615.06 408.368 615.528 409.016 615.876 409.592L616.56 409.112C616.224 408.584 615.744 407.96 615.12 407.252ZM610.944 400.316L610.344 400.904C611.208 401.552 611.88 402.176 612.384 402.764L612.972 402.164C612.42 401.54 611.736 400.928 610.944 400.316ZM609.504 403.868V404.696H611.268V409.496C611.268 409.688 611.184 409.856 611.028 410L611.352 410.78C612.168 410.24 612.948 409.616 613.668 408.92L613.44 408.008C612.96 408.476 612.516 408.884 612.096 409.232V403.868H609.504ZM630.744 411.152C631.584 411.152 632.016 410.744 632.016 409.952V400.7H625.428V401.516H631.164V409.7C631.164 410.132 630.96 410.348 630.564 410.348L629.148 410.324L629.364 411.152H630.744ZM625.704 402.932V403.76H630.336V402.932H625.704ZM626.136 405.068V408.788H629.856V405.068H626.136ZM629.04 408.032H626.976V405.824H629.04V408.032ZM622.944 400.316L622.344 400.904C623.208 401.552 623.904 402.176 624.408 402.764L624.996 402.164C624.444 401.54 623.76 400.928 622.944 400.316ZM621.528 403.868V404.696H623.268V409.472C623.268 409.664 623.172 409.832 623.004 409.988L623.34 410.756C624.084 410.228 624.792 409.616 625.452 408.932L625.224 408.008C624.816 408.428 624.444 408.8 624.096 409.124V403.868H621.528ZM635.628 404.3V408.764H640.392V404.3H635.628ZM639.552 407.96H636.48V405.092H639.552V407.96ZM636.3 400.172C635.808 401.852 634.872 403.268 633.492 404.432L634.032 405.14C634.944 404.372 635.688 403.484 636.264 402.488H642.744C642.72 405.128 642.708 406.808 642.684 407.552C642.636 408.788 642.492 409.568 642.264 409.892C642.024 410.204 641.676 410.372 641.196 410.372C640.788 410.372 640.38 410.36 639.984 410.348L640.224 411.164C640.68 411.152 641.064 411.14 641.388 411.14C642.144 411.14 642.672 410.924 642.96 410.516C643.236 410.096 643.404 409.304 643.464 408.14C643.512 407.456 643.56 405.296 643.608 401.648H636.684C636.876 401.216 637.044 400.76 637.176 400.28L636.3 400.172ZM645.756 405.356V406.196H650.808V409.76C650.808 410.12 650.616 410.312 650.232 410.312C649.536 410.312 648.9 410.3 648.3 410.276L648.528 411.116H650.58C651.312 411.116 651.684 410.756 651.684 410.036V406.196H656.244V405.356H651.684V404.096C652.908 403.292 653.988 402.44 654.936 401.54V400.724H647.016V401.54H653.76C652.824 402.356 651.84 403.064 650.808 403.652V405.356H645.756Z" fill="black"/>
<path d="M597.4 528.604V532.768H604.696V528.604H597.4ZM603.844 532.036H598.252V531.052H603.844V532.036ZM598.252 530.344V529.348H603.844V530.344H598.252ZM600.7 534.448V538.036C600.448 537.988 600.232 537.928 600.04 537.868C599.416 537.64 598.84 537.112 598.336 536.272C598.492 535.876 598.624 535.456 598.744 535.012L597.928 534.868C597.532 536.368 596.776 537.568 595.672 538.456L596.236 539.164C596.956 538.576 597.556 537.844 598.024 536.956C598.504 537.748 599.056 538.276 599.668 538.552C600.376 538.852 601.72 539.008 603.7 539.008C604.384 539.02 605.152 539.032 606.016 539.032L606.256 538.216C605.548 538.24 604.672 538.252 603.64 538.252C602.848 538.252 602.152 538.216 601.576 538.168V536.572H605.032V535.804H601.576V534.448H606.316V533.656H595.696V534.448H600.7ZM608.164 528.76V529.6H613.072C611.992 530.908 610.168 532.036 607.6 532.984L608.14 533.692C609.964 532.96 611.44 532.132 612.568 531.196V534.34H613.432V530.368C613.648 530.128 613.864 529.864 614.056 529.6H617.884V528.76H608.164ZM616.984 534.76H609.04V539.152H609.916V538.588H616.108V539.152H616.984V534.76ZM609.916 537.748V535.6H616.108V537.748H609.916ZM614.692 530.668L614.116 531.22C615.628 532.132 616.816 532.984 617.68 533.776L618.304 533.14C617.332 532.312 616.132 531.484 614.692 530.668ZM619.72 530.548V531.376H621.196C620.836 532.948 620.224 534.34 619.384 535.564L619.756 536.512C620.356 535.528 620.836 534.448 621.22 533.248V539.14H622.072V532.84C622.348 533.272 622.672 533.836 623.056 534.52L623.548 533.788C623.044 533.116 622.552 532.516 622.072 531.988V531.376H623.308V530.548H622.072V528.208H621.22V530.548H619.72ZM625.072 531.7V532.468H628.72V531.736C629.128 532.156 629.596 532.552 630.112 532.924L630.58 532.192C629.008 531.052 627.904 529.732 627.256 528.22H626.464C625.696 529.864 624.592 531.196 623.176 532.216L623.644 532.948C624.148 532.588 624.616 532.18 625.072 531.7ZM628.66 531.676H625.096C625.744 530.956 626.332 530.092 626.86 529.072C627.304 530.032 627.904 530.896 628.66 531.676ZM623.452 538V538.84H630.328V538H628.456C628.96 536.68 629.392 535.18 629.728 533.488L628.9 533.272C628.528 535.144 628.096 536.716 627.604 538H623.452ZM624.796 533.596L624.052 533.848C624.388 534.952 624.676 536.092 624.916 537.292L625.672 537.088C625.42 535.768 625.132 534.604 624.796 533.596ZM626.644 533.164L625.9 533.404C626.212 534.46 626.476 535.564 626.68 536.716L627.472 536.512C627.232 535.252 626.956 534.136 626.644 533.164ZM632.296 528.448L631.708 529.012C632.44 529.576 633.016 530.116 633.424 530.62L633.988 530.044C633.532 529.516 632.968 528.976 632.296 528.448ZM632.104 531.4L631.516 531.952C632.224 532.564 632.776 533.14 633.184 533.68L633.748 533.116C633.304 532.54 632.752 531.976 632.104 531.4ZM633.16 534.628C632.704 536.02 632.176 537.388 631.576 538.72L632.368 539.056C632.92 537.76 633.436 536.38 633.892 534.916L633.16 534.628ZM638.488 528.784H634.468V536.176H635.236V529.528H637.72V536.104H638.488V528.784ZM637.204 536.668L636.676 537.172C637.444 537.892 638.032 538.564 638.464 539.2L639.04 538.624C638.548 537.976 637.936 537.316 637.204 536.668ZM636.124 530.356V534.16C636.1 535.276 635.92 536.176 635.608 536.872C635.272 537.544 634.672 538.084 633.808 538.492L634.264 539.212C635.152 538.78 635.8 538.18 636.196 537.436C636.604 536.62 636.82 535.528 636.844 534.16V530.356H636.124ZM641.08 539.104C641.704 539.104 642.028 538.756 642.028 538.084V528.268H641.212V537.88C641.212 538.192 641.068 538.36 640.792 538.36C640.408 538.36 640 538.336 639.58 538.3L639.76 539.104H641.08ZM639.436 529.252V536.74H640.192V529.252H639.436ZM649.78 537.196C648.964 537.376 648.136 537.544 647.284 537.688V535.564H649.444V534.724H647.284V533.332H646.42V534.724H644.08V535.564H646.42V537.832C645.508 537.976 644.572 538.096 643.612 538.204L643.804 539.032C645.94 538.768 647.932 538.432 649.78 538.048V537.196ZM643.768 528.724V529.54H645.736C645.052 530.92 644.464 531.82 643.972 532.252C643.888 532.288 643.768 532.312 643.624 532.336L643.828 533.116C645.628 532.936 647.296 532.708 648.808 532.444C649 532.768 649.168 533.08 649.324 533.392L650.044 532.888C649.612 532.084 649 531.136 648.196 530.056L647.536 530.488C647.86 530.932 648.16 531.364 648.424 531.796C647.344 531.988 646.216 532.132 645.028 532.252C645.532 531.64 646.072 530.74 646.648 529.54H649.732V528.724H643.768ZM652.9 539.092C653.62 539.092 653.992 538.72 653.992 537.988V528.232H653.116V537.772C653.116 538.12 652.936 538.3 652.6 538.3C652.072 538.3 651.52 538.276 650.944 538.252L651.136 539.092H652.9ZM650.716 529.312V536.74H651.556V529.312H650.716ZM659.596 528.688V529.48H661.948L661.66 530.812H659.884V531.592H661.492L661.156 533.176H659.284V533.98H666.532V533.176H665.404V530.812H662.524L662.812 529.48H666.16V528.688H659.596ZM662.02 533.176L662.356 531.592H664.54V533.176H662.02ZM665.74 535.072H660.196V539.224H661.048V538.648H664.888V539.224H665.74V535.072ZM661.048 537.832V535.864H664.888V537.832H661.048ZM656.992 528.364L656.392 528.952C657.22 529.576 657.868 530.152 658.348 530.704L658.948 530.116C658.42 529.528 657.76 528.94 656.992 528.364ZM655.504 531.868V532.696H657.268V537.484C657.268 537.676 657.172 537.844 657.004 538L657.34 538.768C658.132 538.228 658.864 537.616 659.56 536.92L659.332 536.008C658.888 536.452 658.48 536.848 658.096 537.184V531.868H655.504ZM676.744 533.848H669.304V539.2H670.18V538.648H675.868V539.2H676.744V533.848ZM670.18 537.88V536.632H675.868V537.88H670.18ZM670.18 535.888V534.616H675.868V535.888H670.18ZM668.272 529.372V530.164H670.144C670.384 530.752 670.612 531.388 670.804 532.084H667.708V532.888H678.292V532.084H675.1C675.412 531.472 675.652 530.836 675.832 530.164H677.74V529.372H673.504C673.336 528.892 673.156 528.472 672.964 528.1L672.052 528.244C672.256 528.58 672.448 528.964 672.628 529.372H668.272ZM671.056 530.164H674.968C674.824 530.836 674.584 531.472 674.26 532.084H671.668C671.476 531.388 671.272 530.74 671.056 530.164Z" fill="black"/>
<path d="M828.592 522.044L828.04 522.572C828.64 522.992 829.12 523.388 829.468 523.772L830.02 523.208C829.636 522.824 829.156 522.428 828.592 522.044ZM828.628 520.208C827.356 521.408 825.712 522.404 823.708 523.172L824.2 523.892C826.06 523.148 827.656 522.164 829 520.964C830.212 522.14 831.82 523.1 833.824 523.82L834.304 523.112C832.132 522.344 830.488 521.372 829.372 520.208H828.628ZM830.368 530.996C830.92 530.996 831.328 530.9 831.592 530.72C831.88 530.504 832.084 529.916 832.18 528.944L831.388 528.692C831.316 529.424 831.184 529.868 830.98 530.024C830.824 530.144 830.572 530.216 830.212 530.216H827.932C827.62 530.216 827.464 530.048 827.464 529.724V527.672H826.588V529.904C826.588 530.624 826.948 530.996 827.68 530.996H830.368ZM825.292 526.976C824.968 528.128 824.452 529.196 823.732 530.156L824.488 530.624C825.196 529.64 825.748 528.488 826.132 527.144L825.292 526.976ZM829.42 527.276L828.64 527.516C828.976 528.02 829.276 528.608 829.552 529.256L830.344 528.908C830.08 528.332 829.78 527.78 829.42 527.276ZM832.288 526.784L831.628 527.192C832.444 528.296 833.092 529.316 833.56 530.228L834.304 529.724C833.836 528.884 833.164 527.912 832.288 526.784ZM825.772 523.94V524.696H831.196C830.452 525.536 829.216 526.124 827.464 526.46L827.776 527.216C830.008 526.64 831.472 525.788 832.18 524.636V523.94H825.772ZM842.56 520.172V521.468H839.968V522.272H842.56V523.724H839.464V524.564H846.424V523.724H843.448V522.272H846.04V521.468H843.448V520.172H842.56ZM839.32 526.004V526.832H844.024V529.844C844.024 530.204 843.844 530.396 843.484 530.396C843.088 530.396 842.68 530.372 842.248 530.336L842.428 531.188H843.784C844.528 531.188 844.912 530.816 844.912 530.072V526.832H846.544V526.004H844.912V525.032H844.024V526.004H839.32ZM841.12 527.252L840.46 527.66C841.06 528.368 841.528 529.016 841.876 529.592L842.56 529.112C842.224 528.584 841.744 527.96 841.12 527.252ZM836.944 520.316L836.344 520.904C837.208 521.552 837.88 522.176 838.384 522.764L838.972 522.164C838.42 521.54 837.736 520.928 836.944 520.316ZM835.504 523.868V524.696H837.268V529.496C837.268 529.688 837.184 529.856 837.028 530L837.352 530.78C838.168 530.24 838.948 529.616 839.668 528.92L839.44 528.008C838.96 528.476 838.516 528.884 838.096 529.232V523.868H835.504ZM857.008 526.208H848.992V531.212H849.868V530.612H856.132V531.212H857.008V526.208ZM849.868 529.784V527.036H856.132V529.784H849.868ZM848.14 524.972C851.26 524.852 854.08 524.684 856.612 524.456C856.9 524.912 857.2 525.38 857.5 525.884L858.34 525.476C857.452 524.024 856.492 522.692 855.46 521.492L854.68 521.864C855.16 522.416 855.628 523.028 856.084 523.676C854.02 523.868 851.836 524.024 849.532 524.12C850.612 523.232 851.704 522.008 852.784 520.472L851.896 520.172C850.336 522.464 849.028 523.796 847.972 524.156L848.14 524.972ZM867.304 526.016V527.624H865.012C865.048 527.324 865.072 527 865.084 526.652V526.016H867.304ZM867.304 528.416V531.104H868.132V528.416H870.34V527.624H868.132V526.016H869.872V525.224H867.916C868.216 524.864 868.492 524.468 868.744 524.036L867.916 523.748C867.652 524.276 867.34 524.768 866.992 525.224H865.12C864.856 524.72 864.568 524.252 864.28 523.82L863.548 524.168C863.776 524.48 864.004 524.84 864.232 525.224H862.288V526.016H864.232V526.652C864.22 526.988 864.196 527.312 864.16 527.624H861.856V528.416H863.98C863.908 528.644 863.824 528.86 863.728 529.064C863.392 529.664 862.804 530.132 861.952 530.492L862.432 531.248C863.356 530.864 864.016 530.324 864.424 529.628C864.616 529.28 864.76 528.872 864.88 528.416H867.304ZM868.876 521.432V522.668H861.616V521.432H868.876ZM861.616 523.484H869.716V520.616H860.764V524.612C860.752 527.024 860.356 528.992 859.564 530.528L860.308 531.176C861.172 529.352 861.604 527.156 861.616 524.612V523.484ZM876.616 527.396V528.236H874C874.636 527.864 875.164 527.444 875.584 526.988H878.692C879.052 527.444 879.556 527.852 880.204 528.236H877.432V527.396H876.616ZM876.616 528.896V531.2H877.432V528.896H879.904V529.784C879.904 530.072 879.748 530.216 879.436 530.216L878.584 530.192L878.764 530.912H879.676C880.372 530.912 880.72 530.588 880.72 529.964V528.512C881.128 528.716 881.608 528.908 882.16 529.1L882.508 528.38C881.212 528.044 880.228 527.576 879.568 526.988H882.16V526.268H876.112C876.232 526.064 876.328 525.86 876.412 525.644H880.852V522.464H879.46V521.696H882.316V520.988H879.46V520.184H878.632V520.988H875.38V520.184H874.552V520.988H871.696V521.696H874.552V522.464H873.16V525.644H875.608C875.512 525.86 875.392 526.064 875.248 526.268H871.84V526.988H874.552C873.844 527.564 872.836 528.044 871.54 528.452L871.912 529.172C872.488 528.968 873.028 528.74 873.532 528.488V530.9H874.348V528.896H876.616ZM878.632 521.696V522.464H875.38V521.696H878.632ZM880.036 525.044H873.976V524.324H880.036V525.044ZM873.976 523.76V523.088H880.036V523.76H873.976ZM885.064 520.652V525.536H892.948V520.652H885.064ZM892.108 524.732H885.928V523.496H892.108V524.732ZM885.928 522.716V521.456H892.108V522.716H885.928ZM887.296 526.124V530.06H883.72V530.9H894.28V530.06H890.68V526.124H889.816V530.06H888.16V526.124H887.296ZM892.996 526.328C892.588 527.36 892.084 528.236 891.508 528.98L892.18 529.448C892.78 528.68 893.308 527.768 893.764 526.7L892.996 526.328ZM884.968 526.508L884.26 526.952C884.884 527.864 885.388 528.68 885.748 529.412L886.432 528.932C886.096 528.248 885.604 527.444 884.968 526.508ZM900.364 531.056C901.108 531.056 901.48 530.684 901.48 529.964V524.756H906.112V523.904H895.888V524.756H900.604V529.748C900.604 530.084 900.424 530.264 900.064 530.264C899.608 530.264 899.14 530.24 898.636 530.216L898.816 531.056H900.364ZM897.736 526.076C897.316 527.54 896.644 528.872 895.72 530.072L896.476 530.54C897.388 529.34 898.084 527.912 898.588 526.256L897.736 526.076ZM904.072 525.956L903.292 526.22C904.06 527.444 904.768 528.848 905.416 530.444L906.208 530.084C905.608 528.62 904.888 527.252 904.072 525.956ZM896.992 520.856V521.696H905.044V520.856H896.992ZM910 522.692C909.784 522.692 909.616 522.764 909.472 522.92C909.328 523.052 909.268 523.22 909.268 523.436C909.268 523.64 909.328 523.808 909.472 523.952C909.616 524.096 909.784 524.168 910 524.168C910.204 524.168 910.384 524.096 910.528 523.952C910.672 523.808 910.744 523.64 910.744 523.436C910.744 523.22 910.672 523.052 910.528 522.92C910.384 522.764 910.204 522.692 910 522.692ZM910 527.084C909.784 527.084 909.616 527.156 909.472 527.312C909.328 527.444 909.268 527.612 909.268 527.828C909.268 528.032 909.328 528.2 909.472 528.344C909.616 528.488 909.784 528.56 910 528.56C910.204 528.56 910.384 528.488 910.528 528.344C910.672 528.2 910.744 528.032 910.744 527.828C910.744 527.612 910.672 527.444 910.528 527.312C910.384 527.156 910.204 527.084 910 527.084ZM924.472 519.992C923.944 520.124 923.536 520.388 923.224 520.784C922.912 521.168 922.768 521.636 922.768 522.176C922.768 522.512 922.84 522.8 922.996 523.016C923.164 523.232 923.38 523.352 923.656 523.352C923.884 523.352 924.064 523.28 924.208 523.148C924.352 523.004 924.436 522.824 924.436 522.608C924.436 522.392 924.364 522.224 924.232 522.08C924.088 521.936 923.908 521.876 923.704 521.876C923.584 521.876 923.488 521.888 923.44 521.912C923.44 521.624 923.524 521.36 923.704 521.132C923.896 520.868 924.148 520.688 924.472 520.592V519.992ZM922.096 519.992C921.568 520.124 921.16 520.388 920.86 520.784C920.548 521.168 920.392 521.636 920.392 522.176C920.392 522.524 920.464 522.8 920.632 523.016C920.788 523.232 921.004 523.352 921.28 523.352C921.52 523.352 921.712 523.28 921.856 523.148C921.988 523.004 922.06 522.824 922.06 522.608C922.06 522.392 921.988 522.224 921.844 522.08C921.7 521.936 921.532 521.876 921.34 521.876C921.208 521.876 921.112 521.888 921.064 521.912C921.064 521.624 921.148 521.36 921.34 521.12C921.52 520.868 921.772 520.688 922.096 520.592V519.992ZM830.368 537.196V537.976H827.464V538.684H830.368V539.488H827.944V540.184H830.368V541H827.128V541.72H834.472V541H831.196V540.184H833.74V539.488H831.196V538.684H834.172V537.976H831.196V537.196H830.368ZM828.868 544.744H832.744V545.62H828.868V544.744ZM832.744 544.072H828.868V543.184H832.744V544.072ZM828.868 546.292H832.744V546.976C832.744 547.252 832.588 547.396 832.3 547.396L831.34 547.36L831.544 548.128H832.552C833.224 548.128 833.572 547.804 833.572 547.156V542.476H828.04V548.2H828.868V546.292ZM824.956 537.328L824.344 537.916C825.208 538.564 825.892 539.176 826.396 539.752L826.984 539.152C826.432 538.54 825.76 537.928 824.956 537.328ZM823.504 540.868V541.696H825.22V546.46C825.22 546.664 825.124 546.844 824.944 547.012L825.28 547.78C826.024 547.24 826.744 546.616 827.416 545.92L827.188 545.008C826.78 545.428 826.408 545.8 826.048 546.136V540.868H823.504ZM840.592 539.044L840.04 539.572C840.64 539.992 841.12 540.388 841.468 540.772L842.02 540.208C841.636 539.824 841.156 539.428 840.592 539.044ZM840.628 537.208C839.356 538.408 837.712 539.404 835.708 540.172L836.2 540.892C838.06 540.148 839.656 539.164 841 537.964C842.212 539.14 843.82 540.1 845.824 540.82L846.304 540.112C844.132 539.344 842.488 538.372 841.372 537.208H840.628ZM842.368 547.996C842.92 547.996 843.328 547.9 843.592 547.72C843.88 547.504 844.084 546.916 844.18 545.944L843.388 545.692C843.316 546.424 843.184 546.868 842.98 547.024C842.824 547.144 842.572 547.216 842.212 547.216H839.932C839.62 547.216 839.464 547.048 839.464 546.724V544.672H838.588V546.904C838.588 547.624 838.948 547.996 839.68 547.996H842.368ZM837.292 543.976C836.968 545.128 836.452 546.196 835.732 547.156L836.488 547.624C837.196 546.64 837.748 545.488 838.132 544.144L837.292 543.976ZM841.42 544.276L840.64 544.516C840.976 545.02 841.276 545.608 841.552 546.256L842.344 545.908C842.08 545.332 841.78 544.78 841.42 544.276ZM844.288 543.784L843.628 544.192C844.444 545.296 845.092 546.316 845.56 547.228L846.304 546.724C845.836 545.884 845.164 544.912 844.288 543.784ZM837.772 540.94V541.696H843.196C842.452 542.536 841.216 543.124 839.464 543.46L839.776 544.216C842.008 543.64 843.472 542.788 844.18 541.636V540.94H837.772ZM856.252 541.372H853.444V537.184H852.556V541.372H849.748V538.096H848.884V542.212H852.556V546.616H849.172V543.34H848.296V548.116H849.172V547.444H856.828V548.116H857.704V543.34H856.828V546.616H853.444V542.212H857.116V538.096H856.252V541.372ZM866.56 537.172V538.468H863.968V539.272H866.56V540.724H863.464V541.564H870.424V540.724H867.448V539.272H870.04V538.468H867.448V537.172H866.56ZM863.32 543.004V543.832H868.024V546.844C868.024 547.204 867.844 547.396 867.484 547.396C867.088 547.396 866.68 547.372 866.248 547.336L866.428 548.188H867.784C868.528 548.188 868.912 547.816 868.912 547.072V543.832H870.544V543.004H868.912V542.032H868.024V543.004H863.32ZM865.12 544.252L864.46 544.66C865.06 545.368 865.528 546.016 865.876 546.592L866.56 546.112C866.224 545.584 865.744 544.96 865.12 544.252ZM860.944 537.316L860.344 537.904C861.208 538.552 861.88 539.176 862.384 539.764L862.972 539.164C862.42 538.54 861.736 537.928 860.944 537.316ZM859.504 540.868V541.696H861.268V546.496C861.268 546.688 861.184 546.856 861.028 547L861.352 547.78C862.168 547.24 862.948 546.616 863.668 545.92L863.44 545.008C862.96 545.476 862.516 545.884 862.096 546.232V540.868H859.504ZM880.744 548.152C881.584 548.152 882.016 547.744 882.016 546.952V537.7H875.428V538.516H881.164V546.7C881.164 547.132 880.96 547.348 880.564 547.348L879.148 547.324L879.364 548.152H880.744ZM875.704 539.932V540.76H880.336V539.932H875.704ZM876.136 542.068V545.788H879.856V542.068H876.136ZM879.04 545.032H876.976V542.824H879.04V545.032ZM872.944 537.316L872.344 537.904C873.208 538.552 873.904 539.176 874.408 539.764L874.996 539.164C874.444 538.54 873.76 537.928 872.944 537.316ZM871.528 540.868V541.696H873.268V546.472C873.268 546.664 873.172 546.832 873.004 546.988L873.34 547.756C874.084 547.228 874.792 546.616 875.452 545.932L875.224 545.008C874.816 545.428 874.444 545.8 874.096 546.124V540.868H871.528ZM885.628 541.3V545.764H890.392V541.3H885.628ZM889.552 544.96H886.48V542.092H889.552V544.96ZM886.3 537.172C885.808 538.852 884.872 540.268 883.492 541.432L884.032 542.14C884.944 541.372 885.688 540.484 886.264 539.488H892.744C892.72 542.128 892.708 543.808 892.684 544.552C892.636 545.788 892.492 546.568 892.264 546.892C892.024 547.204 891.676 547.372 891.196 547.372C890.788 547.372 890.38 547.36 889.984 547.348L890.224 548.164C890.68 548.152 891.064 548.14 891.388 548.14C892.144 548.14 892.672 547.924 892.96 547.516C893.236 547.096 893.404 546.304 893.464 545.14C893.512 544.456 893.56 542.296 893.608 538.648H886.684C886.876 538.216 887.044 537.76 887.176 537.28L886.3 537.172ZM895.756 542.356V543.196H900.808V546.76C900.808 547.12 900.616 547.312 900.232 547.312C899.536 547.312 898.9 547.3 898.3 547.276L898.528 548.116H900.58C901.312 548.116 901.684 547.756 901.684 547.036V543.196H906.244V542.356H901.684V541.096C902.908 540.292 903.988 539.44 904.936 538.54V537.724H897.016V538.54H903.76C902.824 539.356 901.84 540.064 900.808 540.652V542.356H895.756ZM911.14 536.98C910.9 536.98 910.72 537.04 910.588 537.184C910.432 537.316 910.36 537.496 910.36 537.724C910.36 537.928 910.432 538.096 910.576 538.24C910.72 538.384 910.888 538.456 911.092 538.456C911.212 538.456 911.308 538.444 911.356 538.42C911.356 538.708 911.272 538.972 911.092 539.224C910.9 539.464 910.648 539.632 910.336 539.74V540.34C910.84 540.196 911.26 539.932 911.572 539.548C911.884 539.152 912.04 538.684 912.04 538.156C912.04 537.796 911.956 537.52 911.8 537.304C911.632 537.088 911.404 536.98 911.14 536.98ZM908.776 536.98C908.536 536.98 908.344 537.04 908.2 537.184C908.056 537.316 907.996 537.496 907.996 537.724C907.996 537.928 908.068 538.096 908.212 538.24C908.344 538.384 908.512 538.456 908.716 538.456C908.836 538.456 908.932 538.444 908.98 538.42C908.98 538.708 908.896 538.972 908.704 539.224C908.512 539.464 908.272 539.632 907.96 539.74V540.34C908.464 540.196 908.884 539.932 909.196 539.548C909.508 539.152 909.664 538.684 909.664 538.156C909.664 537.796 909.58 537.52 909.424 537.304C909.256 537.088 909.04 536.98 908.776 536.98Z" fill="black"/>
<path d="M491.56 646.172V647.468H488.968V648.272H491.56V649.724H488.464V650.564H495.424V649.724H492.448V648.272H495.04V647.468H492.448V646.172H491.56ZM488.32 652.004V652.832H493.024V655.844C493.024 656.204 492.844 656.396 492.484 656.396C492.088 656.396 491.68 656.372 491.248 656.336L491.428 657.188H492.784C493.528 657.188 493.912 656.816 493.912 656.072V652.832H495.544V652.004H493.912V651.032H493.024V652.004H488.32ZM490.12 653.252L489.46 653.66C490.06 654.368 490.528 655.016 490.876 655.592L491.56 655.112C491.224 654.584 490.744 653.96 490.12 653.252ZM485.944 646.316L485.344 646.904C486.208 647.552 486.88 648.176 487.384 648.764L487.972 648.164C487.42 647.54 486.736 646.928 485.944 646.316ZM484.504 649.868V650.696H486.268V655.496C486.268 655.688 486.184 655.856 486.028 656L486.352 656.78C487.168 656.24 487.948 655.616 488.668 654.92L488.44 654.008C487.96 654.476 487.516 654.884 487.096 655.232V649.868H484.504ZM505.744 657.152C506.584 657.152 507.016 656.744 507.016 655.952V646.7H500.428V647.516H506.164V655.7C506.164 656.132 505.96 656.348 505.564 656.348L504.148 656.324L504.364 657.152H505.744ZM500.704 648.932V649.76H505.336V648.932H500.704ZM501.136 651.068V654.788H504.856V651.068H501.136ZM504.04 654.032H501.976V651.824H504.04V654.032ZM497.944 646.316L497.344 646.904C498.208 647.552 498.904 648.176 499.408 648.764L499.996 648.164C499.444 647.54 498.76 646.928 497.944 646.316ZM496.528 649.868V650.696H498.268V655.472C498.268 655.664 498.172 655.832 498.004 655.988L498.34 656.756C499.084 656.228 499.792 655.616 500.452 654.932L500.224 654.008C499.816 654.428 499.444 654.8 499.096 655.124V649.868H496.528ZM513.724 648.524V649.352H517.204V655.736C517.204 656.156 516.976 656.372 516.532 656.372C515.98 656.372 515.392 656.348 514.768 656.312L514.948 657.164H516.832C517.648 657.164 518.068 656.756 518.068 655.952V649.352H519.4V648.524H518.068V646.172H517.204V648.524H513.724ZM509.428 649.304L508.852 649.844C509.692 650.78 510.46 651.704 511.132 652.604C510.508 653.78 509.632 654.8 508.504 655.664L509.008 656.42C510.112 655.508 511 654.476 511.66 653.324C512.092 653.936 512.488 654.536 512.848 655.136L513.472 654.512C513.052 653.84 512.584 653.156 512.08 652.484C512.704 651.152 513.04 649.664 513.1 648.032V647.396H509.032V648.236H512.32C512.236 649.508 511.972 650.684 511.528 651.764C510.88 650.948 510.184 650.12 509.428 649.304ZM514.372 650.768L513.712 651.248C514.456 652.172 515.068 653.048 515.548 653.876L516.232 653.396C515.8 652.628 515.176 651.752 514.372 650.768ZM522.676 655.844V656.684H531.148V655.844H528.616C529.36 654.068 529.972 652.028 530.476 649.748L529.624 649.52C529.072 652.04 528.424 654.14 527.68 655.844H522.676ZM523.984 650.108L523.228 650.348C523.732 651.74 524.14 653.204 524.464 654.716L525.28 654.512C524.896 652.856 524.464 651.38 523.984 650.108ZM526.3 649.256L525.544 649.496C525.976 650.936 526.324 652.436 526.588 653.996L527.416 653.804C527.08 652.1 526.708 650.576 526.3 649.256ZM526.312 646.1L525.364 646.268C525.604 646.604 525.82 646.964 526.012 647.348H521.56V650.864C521.536 653.3 521.176 655.196 520.504 656.564L521.212 657.2C521.992 655.616 522.4 653.504 522.448 650.864V648.188H531.34V647.348H526.948C526.756 646.892 526.54 646.472 526.312 646.1ZM535.288 647.672L535.672 648.62H532.792V649.376H543.208V648.62H540.22L540.688 647.672H542.644V646.928H538.42C538.3 646.616 538.168 646.34 538.048 646.088L537.124 646.232C537.244 646.436 537.364 646.664 537.472 646.928H533.356V647.672H535.288ZM536.572 648.62L536.188 647.672H539.788L539.32 648.62H536.572ZM534.16 650.084V653.636H541.84V650.084H534.16ZM541 652.964H535V652.172H541V652.964ZM535 651.536V650.768H541V651.536H535ZM533.68 654.2C533.452 654.992 533.092 655.724 532.6 656.384L533.344 656.852C533.848 656.156 534.232 655.328 534.52 654.368L533.68 654.2ZM539.644 657.008C540.1 657.008 540.424 656.924 540.64 656.78C540.88 656.588 541.048 656.084 541.132 655.256L540.316 654.992C540.268 655.592 540.172 655.964 540.028 656.084C539.932 656.18 539.752 656.228 539.488 656.228H536.968C536.584 656.228 536.392 656.048 536.392 655.712V654.308H535.504V655.892C535.504 656.636 535.9 657.008 536.716 657.008H539.644ZM538.132 653.864L537.4 654.32C537.904 654.824 538.288 655.292 538.576 655.724L539.296 655.22C539.032 654.824 538.636 654.368 538.132 653.864ZM541.9 654.092L541.204 654.524C541.852 655.316 542.356 656.036 542.74 656.696L543.46 656.192C543.1 655.592 542.572 654.896 541.9 654.092ZM545.98 648.98V651.248H548.536C547.696 651.824 546.532 652.232 545.044 652.472L545.38 653.192C547.012 652.916 548.296 652.424 549.232 651.716C549.472 651.908 549.7 652.124 549.916 652.364C548.776 653.144 547.168 653.78 545.092 654.284L545.512 655.016C547.54 654.464 549.148 653.756 550.324 652.892C550.48 653.132 550.612 653.372 550.72 653.636C549.376 654.656 547.456 655.484 544.972 656.132L545.404 656.876C547.72 656.24 549.568 655.412 550.936 654.404C550.972 654.584 550.996 654.776 550.996 654.98C550.996 655.556 550.876 655.94 550.648 656.132C550.408 656.312 550.084 656.42 549.7 656.444C549.424 656.444 549.088 656.456 548.68 656.456L548.944 657.248C549.256 657.248 549.532 657.236 549.796 657.212C550.552 657.14 551.08 656.96 551.38 656.696C551.704 656.372 551.872 655.796 551.872 654.98C551.848 654.536 551.764 654.104 551.62 653.696C551.8 653.636 551.992 653.576 552.196 653.504C552.748 654.68 553.684 655.736 554.992 656.696L555.568 655.976C554.308 655.184 553.42 654.26 552.916 653.228C553.612 652.94 554.26 652.616 554.836 652.232L554.272 651.584C553.48 652.148 552.484 652.616 551.308 652.988C550.972 652.364 550.468 651.788 549.808 651.248H554.62V648.572H551.5C551.884 648.284 552.256 647.948 552.64 647.552V646.976H548.824C549.04 646.76 549.244 646.544 549.448 646.328L548.548 646.124C547.54 647.192 546.232 648.056 544.624 648.716L545.164 649.376C545.44 649.256 545.716 649.124 545.98 648.98ZM550.372 648.572H546.712C547.18 648.284 547.624 647.984 548.032 647.66H551.548C551.164 647.996 550.768 648.308 550.372 648.572ZM553.768 650.528H550.348C550.576 650.168 550.756 649.748 550.888 649.292H553.768V650.528ZM549.34 650.528H546.832V649.292H550.024C549.88 649.736 549.652 650.144 549.34 650.528Z" fill="black"/>
<path d="M544.4 572.604V576.768H551.696V572.604H544.4ZM550.844 576.036H545.252V575.052H550.844V576.036ZM545.252 574.344V573.348H550.844V574.344H545.252ZM547.7 578.448V582.036C547.448 581.988 547.232 581.928 547.04 581.868C546.416 581.64 545.84 581.112 545.336 580.272C545.492 579.876 545.624 579.456 545.744 579.012L544.928 578.868C544.532 580.368 543.776 581.568 542.672 582.456L543.236 583.164C543.956 582.576 544.556 581.844 545.024 580.956C545.504 581.748 546.056 582.276 546.668 582.552C547.376 582.852 548.72 583.008 550.7 583.008C551.384 583.02 552.152 583.032 553.016 583.032L553.256 582.216C552.548 582.24 551.672 582.252 550.64 582.252C549.848 582.252 549.152 582.216 548.576 582.168V580.572H552.032V579.804H548.576V578.448H553.316V577.656H542.696V578.448H547.7Z" fill="black"/>
<path d="M752.164 519.76V520.6H757.072C755.992 521.908 754.168 523.036 751.6 523.984L752.14 524.692C753.964 523.96 755.44 523.132 756.568 522.196V525.34H757.432V521.368C757.648 521.128 757.864 520.864 758.056 520.6H761.884V519.76H752.164ZM760.984 525.76H753.04V530.152H753.916V529.588H760.108V530.152H760.984V525.76ZM753.916 528.748V526.6H760.108V528.748H753.916ZM758.692 521.668L758.116 522.22C759.628 523.132 760.816 523.984 761.68 524.776L762.304 524.14C761.332 523.312 760.132 522.484 758.692 521.668Z" fill="black"/>
<path d="M623 718L636 729L650.5 718" stroke="black" stroke-width="3"/>
<path d="M710 399.5L701.5 411L710 421.5" stroke="black" stroke-width="3"/>
<path d="M350.476 134.184V139.476H348.736V145.14H349.564V144.336H352.948V145.128H353.788V139.476H351.364V137.136H354.376V136.296H351.364V134.184H350.476ZM349.564 143.532V140.232H352.948V143.532H349.564ZM343.672 136.188V137.028H348.388V136.188H346.444C346.3 135.468 346.144 134.832 345.976 134.28L345.1 134.424C345.292 134.952 345.472 135.54 345.616 136.188H343.672ZM344.764 137.748L344.008 137.988C344.332 139.5 344.608 141.084 344.824 142.728L345.544 142.548C345.316 140.748 345.052 139.14 344.764 137.748ZM348.196 142.56C347.8 142.68 347.404 142.788 346.996 142.896C347.38 141.324 347.656 139.62 347.848 137.772L347.008 137.652C346.84 139.572 346.576 141.384 346.192 143.088C345.34 143.28 344.476 143.436 343.588 143.556L343.792 144.384C345.364 144.12 346.828 143.796 348.196 143.4V142.56ZM359.308 139.788V140.628H362.056V143.94H358.816V144.792H366.34V143.94H362.932V140.628H365.8V139.788H362.932V137.556H362.056V139.788H359.308ZM357.376 140.316V145.236H358.228V139.332C358.876 138.516 359.44 137.628 359.908 136.68H366.328V135.828H360.292C360.508 135.312 360.688 134.772 360.856 134.22L359.956 134.112C359.788 134.7 359.572 135.276 359.332 135.828H355.84V136.68H358.924C358.084 138.276 356.92 139.692 355.42 140.928L355.96 141.636C356.464 141.216 356.932 140.772 357.376 140.316ZM372.592 136.044L372.04 136.572C372.64 136.992 373.12 137.388 373.468 137.772L374.02 137.208C373.636 136.824 373.156 136.428 372.592 136.044ZM372.628 134.208C371.356 135.408 369.712 136.404 367.708 137.172L368.2 137.892C370.06 137.148 371.656 136.164 373 134.964C374.212 136.14 375.82 137.1 377.824 137.82L378.304 137.112C376.132 136.344 374.488 135.372 373.372 134.208H372.628ZM374.368 144.996C374.92 144.996 375.328 144.9 375.592 144.72C375.88 144.504 376.084 143.916 376.18 142.944L375.388 142.692C375.316 143.424 375.184 143.868 374.98 144.024C374.824 144.144 374.572 144.216 374.212 144.216H371.932C371.62 144.216 371.464 144.048 371.464 143.724V141.672H370.588V143.904C370.588 144.624 370.948 144.996 371.68 144.996H374.368ZM369.292 140.976C368.968 142.128 368.452 143.196 367.732 144.156L368.488 144.624C369.196 143.64 369.748 142.488 370.132 141.144L369.292 140.976ZM373.42 141.276L372.64 141.516C372.976 142.02 373.276 142.608 373.552 143.256L374.344 142.908C374.08 142.332 373.78 141.78 373.42 141.276ZM376.288 140.784L375.628 141.192C376.444 142.296 377.092 143.316 377.56 144.228L378.304 143.724C377.836 142.884 377.164 141.912 376.288 140.784ZM369.772 137.94V138.696H375.196C374.452 139.536 373.216 140.124 371.464 140.46L371.776 141.216C374.008 140.64 375.472 139.788 376.18 138.636V137.94H369.772ZM386.56 134.172V135.468H383.968V136.272H386.56V137.724H383.464V138.564H390.424V137.724H387.448V136.272H390.04V135.468H387.448V134.172H386.56ZM383.32 140.004V140.832H388.024V143.844C388.024 144.204 387.844 144.396 387.484 144.396C387.088 144.396 386.68 144.372 386.248 144.336L386.428 145.188H387.784C388.528 145.188 388.912 144.816 388.912 144.072V140.832H390.544V140.004H388.912V139.032H388.024V140.004H383.32ZM385.12 141.252L384.46 141.66C385.06 142.368 385.528 143.016 385.876 143.592L386.56 143.112C386.224 142.584 385.744 141.96 385.12 141.252ZM380.944 134.316L380.344 134.904C381.208 135.552 381.88 136.176 382.384 136.764L382.972 136.164C382.42 135.54 381.736 134.928 380.944 134.316ZM379.504 137.868V138.696H381.268V143.496C381.268 143.688 381.184 143.856 381.028 144L381.352 144.78C382.168 144.24 382.948 143.616 383.668 142.92L383.44 142.008C382.96 142.476 382.516 142.884 382.096 143.232V137.868H379.504ZM401.008 140.208H392.992V145.212H393.868V144.612H400.132V145.212H401.008V140.208ZM393.868 143.784V141.036H400.132V143.784H393.868ZM392.14 138.972C395.26 138.852 398.08 138.684 400.612 138.456C400.9 138.912 401.2 139.38 401.5 139.884L402.34 139.476C401.452 138.024 400.492 136.692 399.46 135.492L398.68 135.864C399.16 136.416 399.628 137.028 400.084 137.676C398.02 137.868 395.836 138.024 393.532 138.12C394.612 137.232 395.704 136.008 396.784 134.472L395.896 134.172C394.336 136.464 393.028 137.796 391.972 138.156L392.14 138.972ZM407.992 134.196V143.88H403.672V144.72H414.352V143.88H408.88V138.744H413.332V137.904H408.88V134.196H407.992Z" fill="black"/>
<path d="M604.512 134.388L603.924 134.952C604.776 135.624 605.448 136.26 605.94 136.86L606.54 136.26C605.988 135.636 605.316 135.012 604.512 134.388ZM611.484 144.984H614.268L614.484 144.12C614.16 144.144 613.704 144.156 613.128 144.168C612.528 144.18 611.94 144.192 611.364 144.192C610.428 144.192 609.636 144.18 609.012 144.168C608.292 144.144 607.752 144.048 607.38 143.88C607.044 143.724 606.732 143.472 606.444 143.124C606.348 143.016 606.252 142.92 606.156 142.848V138.36H603.648V139.152H605.352V142.8C604.848 143.016 604.284 143.64 603.636 144.66L604.284 145.248C604.956 144.12 605.436 143.568 605.736 143.568C605.88 143.568 606.036 143.664 606.204 143.868C606.576 144.3 606.996 144.6 607.464 144.744C607.944 144.876 608.58 144.948 609.348 144.96C610.116 144.972 610.836 144.984 611.484 144.984ZM610.452 134.16V135.696H608.868C609.012 135.312 609.144 134.916 609.264 134.496L608.436 134.328C608.148 135.408 607.68 136.404 607.032 137.304L607.788 137.772C608.052 137.388 608.292 136.98 608.508 136.524H610.452V138.24H607.332V139.08H609.264C609.228 139.824 609.108 140.472 608.904 141C608.592 141.72 607.956 142.32 606.984 142.8L607.548 143.484C608.676 142.896 609.408 142.14 609.72 141.228C609.924 140.628 610.044 139.908 610.08 139.08H611.292V142.488C611.292 142.752 611.364 142.968 611.532 143.136C611.688 143.304 611.916 143.388 612.228 143.388H613.092C613.5 143.376 613.788 143.28 613.956 143.112C614.136 142.92 614.268 142.332 614.34 141.336L613.584 141.084C613.536 141.936 613.44 142.416 613.296 142.524C613.2 142.596 613.08 142.632 612.912 142.632H612.48C612.216 142.632 612.096 142.512 612.096 142.296V139.08H614.112V138.24H611.292V136.524H613.692V135.696H611.292V134.16H610.452ZM619.956 134.676V135.456H620.556C620.892 136.368 621.432 137.124 622.188 137.736C621.444 138.096 620.556 138.384 619.536 138.624L619.944 139.356C621.108 139.068 622.116 138.708 622.956 138.252C623.82 138.756 624.924 139.104 626.244 139.284L626.556 138.516C625.464 138.372 624.528 138.12 623.76 137.76C624.672 137.112 625.296 136.332 625.644 135.396V134.676H619.956ZM621.408 135.456H624.732C624.36 136.176 623.772 136.788 622.956 137.304C622.248 136.824 621.732 136.2 621.408 135.456ZM616.944 145.092C617.652 145.092 618.012 144.744 618.012 144.048V140.604C618.48 140.412 618.936 140.208 619.38 139.992V139.116C618.924 139.344 618.468 139.56 618.012 139.752V137.328H619.356V136.5H618.012V134.232H617.124V136.5H615.66V137.328H617.124V140.076C616.584 140.256 616.032 140.412 615.468 140.544L615.684 141.408C616.164 141.264 616.644 141.108 617.124 140.94V143.82C617.124 144.132 616.956 144.3 616.644 144.3C616.344 144.3 616.032 144.276 615.72 144.252L615.9 145.092H616.944ZM620.16 140.22V141.012H622.56V142.38H619.548V143.184H622.56V145.08H623.4V143.184H626.376V142.38H623.4V141.012H625.764V140.22H623.4V139.164H622.56V140.22H620.16ZM636.6 134.664H629.4V142.008H627.672V142.812H631.164C630.288 143.46 629.208 144.024 627.912 144.528L628.44 145.212C629.784 144.684 630.9 144.06 631.812 143.352L631.188 142.812H634.548L634.14 143.412C635.316 143.844 636.468 144.444 637.596 145.188L638.076 144.456C637.068 143.82 635.94 143.268 634.704 142.812H638.328V142.008H636.6V134.664ZM630.276 142.008V140.88H635.724V142.008H630.276ZM630.276 140.184V139.08H635.724V140.184H630.276ZM630.276 138.372V137.256H635.724V138.372H630.276ZM630.276 136.572V135.48H635.724V136.572H630.276ZM640.932 138.732V145.212H641.784V137.34C642.252 136.452 642.636 135.504 642.948 134.508L642.168 134.148C641.616 136.128 640.716 137.88 639.468 139.416L639.72 140.28C640.152 139.788 640.56 139.272 640.932 138.732ZM642.744 136.248V137.088H645.084C644.508 139.296 643.56 141.096 642.216 142.488L642.66 143.232C644.136 141.636 645.18 139.584 645.78 137.088H645.924V141.9H644.088V142.728H645.924V145.2H646.776V142.728H648.636V141.9H646.776V137.088H646.92C647.472 139.308 648.492 141.312 649.956 143.088L650.52 142.38C649.128 140.832 648.156 139.068 647.604 137.088H650.052V136.248H646.776V134.184H645.924V136.248H642.744ZM658.56 134.172V135.468H655.968V136.272H658.56V137.724H655.464V138.564H662.424V137.724H659.448V136.272H662.04V135.468H659.448V134.172H658.56ZM655.32 140.004V140.832H660.024V143.844C660.024 144.204 659.844 144.396 659.484 144.396C659.088 144.396 658.68 144.372 658.248 144.336L658.428 145.188H659.784C660.528 145.188 660.912 144.816 660.912 144.072V140.832H662.544V140.004H660.912V139.032H660.024V140.004H655.32ZM657.12 141.252L656.46 141.66C657.06 142.368 657.528 143.016 657.876 143.592L658.56 143.112C658.224 142.584 657.744 141.96 657.12 141.252ZM652.944 134.316L652.344 134.904C653.208 135.552 653.88 136.176 654.384 136.764L654.972 136.164C654.42 135.54 653.736 134.928 652.944 134.316ZM651.504 137.868V138.696H653.268V143.496C653.268 143.688 653.184 143.856 653.028 144L653.352 144.78C654.168 144.24 654.948 143.616 655.668 142.92L655.44 142.008C654.96 142.476 654.516 142.884 654.096 143.232V137.868H651.504ZM672.744 145.152C673.584 145.152 674.016 144.744 674.016 143.952V134.7H667.428V135.516H673.164V143.7C673.164 144.132 672.96 144.348 672.564 144.348L671.148 144.324L671.364 145.152H672.744ZM667.704 136.932V137.76H672.336V136.932H667.704ZM668.136 139.068V142.788H671.856V139.068H668.136ZM671.04 142.032H668.976V139.824H671.04V142.032ZM664.944 134.316L664.344 134.904C665.208 135.552 665.904 136.176 666.408 136.764L666.996 136.164C666.444 135.54 665.76 134.928 664.944 134.316ZM663.528 137.868V138.696H665.268V143.472C665.268 143.664 665.172 143.832 665.004 143.988L665.34 144.756C666.084 144.228 666.792 143.616 667.452 142.932L667.224 142.008C666.816 142.428 666.444 142.8 666.096 143.124V137.868H663.528Z" fill="black"/>
</svg>
